#N canvas 70 142 1442 732 10;
#X declare -lib zexy;
#X obj 356 224 unpack f f f f f f f f f f f f;
#X obj 361 342 hradio 15 1 0 12 empty empty empty 0 -6 0 8 -262144
-1 -1 0;
#X obj 289 489 spigot;
#X obj 328 458 >=;
#X obj 289 550 outlet;
#X obj 346 342 tgl 15 0 empty empty empty 0 -6 0 8 -258699 -1 -1 0
1;
#X obj 874 211 declare -lib zexy;
#X obj 358 384 multiplex 1 2 3 4 5 6 7 8 9 10 11 12;
#X obj 388 430 outlet;
#X obj 438 430 outlet;
#X obj 488 430 outlet;
#X obj 538 430 outlet;
#X obj 588 430 outlet;
#X obj 638 430 outlet;
#X obj 688 430 outlet;
#X obj 738 430 outlet;
#X obj 788 430 outlet;
#X obj 838 430 outlet;
#X obj 888 430 outlet;
#X obj 938 430 outlet;
#X obj 361 275 vsl 15 64 0 127 0 0 empty empty empty 0 -8 0 8 -262144
-1 -1 0 1;
#X obj 376 275 vsl 15 64 0 127 0 0 empty empty empty 0 -8 0 8 -262144
-1 -1 0 1;
#X obj 391 275 vsl 15 64 0 127 0 0 empty empty empty 0 -8 0 8 -262144
-1 -1 0 1;
#X obj 406 275 vsl 15 64 0 127 0 0 empty empty empty 0 -8 0 8 -262144
-1 -1 0 1;
#X obj 421 275 vsl 15 64 0 127 0 0 empty empty empty 0 -8 0 8 -262144
-1 -1 0 1;
#X obj 436 275 vsl 15 64 0 127 0 0 empty empty empty 0 -8 0 8 -262144
-1 -1 0 1;
#X obj 451 275 vsl 15 64 0 127 0 0 empty empty empty 0 -8 0 8 -262144
-1 -1 0 1;
#X obj 466 275 vsl 15 64 0 127 0 0 empty empty empty 0 -8 0 8 -262144
-1 -1 0 1;
#X obj 481 275 vsl 15 64 0 127 0 0 empty empty empty 0 -8 0 8 -262144
-1 -1 0 1;
#X obj 496 275 vsl 15 64 0 127 0 0 empty empty empty 0 -8 0 8 -262144
-1 -1 0 1;
#X obj 511 275 vsl 15 64 0 127 0 0 empty empty empty 0 -8 0 8 -262144
-1 -1 0 1;
#X obj 526 275 vsl 15 64 0 127 0 0 empty empty empty 0 -8 0 8 -262144
-1 -1 0 1;
#X obj 346 275 vsl 15 64 0 127 0 0 empty empty empty 0 -8 0 8 -262144
-258699 -1 0 1;
#X obj 268 159 metro 40;
#X obj 289 517 f;
#X obj 289 424 f;
#X obj 875 232 multiplex 1 2 3 4 5 6 7 8 9 10 11 12;
#X obj 249 357 spigot;
#X obj 204 207 t a;
#X obj 204 374 t a;
#X obj 258 100 sel 1;
#X obj 224 -4 t f f;
#X obj 260 43 > 0;
#X obj 346 21 f;
#X obj 224 -38 t 0 0;
#X obj 224 -58 bng 15 250 50 0 empty empty empty 17 7 0 10 -262144
-1 -1;
#X obj 132 401 t a, f 4;
#X obj 131 -21 t a, f 6;
#X obj 349 117 line;
#X msg 349 138 set \$1;
#X obj 402 52 - 10;
#X msg 349 96 \$1 \, \$2 2000;
#X obj 349 74 pack f f;
#X obj 702 77 pd~;
#X msg 709 51 pd~ stop;
#X obj 885 137 openpanel;
#X msg 885 159 set \$1;
#X obj 885 118 bng 15 250 50 0 empty empty empty 17 7 0 10 -262144
-1 -1;
#X msg 684 13 pd~ start /home/rep/2015_VJSet/100.Input/audio_bonk/bonk_input.pd
;
#X obj 905 333 receive BONKOUT;
#X obj 702 110 route boonk;
#X floatatom 702 151 5 0 0 0 - - -, f 5;
#X msg 885 179;
#X obj 226 244 adc~;
#X obj 237 275 bonk~;
#X obj 492 173 inlet;
#X connect 0 0 20 0;
#X connect 0 1 21 0;
#X connect 0 2 22 0;
#X connect 0 3 23 0;
#X connect 0 4 24 0;
#X connect 0 5 25 0;
#X connect 0 6 26 0;
#X connect 1 0 7 12;
#X connect 2 0 34 0;
#X connect 3 0 2 1;
#X connect 5 0 33 0;
#X connect 5 0 37 1;
#X connect 7 0 35 0;
#X connect 7 0 46 0;
#X connect 20 0 7 0;
#X connect 20 0 8 0;
#X connect 21 0 7 1;
#X connect 21 0 9 0;
#X connect 22 0 7 2;
#X connect 22 0 10 0;
#X connect 23 0 7 3;
#X connect 23 0 11 0;
#X connect 24 0 7 4;
#X connect 24 0 12 0;
#X connect 25 0 7 5;
#X connect 25 0 13 0;
#X connect 26 0 7 6;
#X connect 26 0 14 0;
#X connect 27 0 7 7;
#X connect 27 0 15 0;
#X connect 28 0 7 8;
#X connect 28 0 16 0;
#X connect 29 0 7 9;
#X connect 29 0 17 0;
#X connect 30 0 7 10;
#X connect 30 0 18 0;
#X connect 31 0 7 11;
#X connect 31 0 19 0;
#X connect 32 0 3 1;
#X connect 34 0 4 0;
#X connect 35 0 3 0;
#X connect 35 0 2 0;
#X connect 37 0 39 0;
#X connect 38 0 0 0;
#X connect 39 0 38 0;
#X connect 40 0 43 0;
#X connect 41 0 43 1;
#X connect 41 1 42 0;
#X connect 42 0 40 0;
#X connect 43 0 42 1;
#X connect 43 0 50 0;
#X connect 43 0 52 0;
#X connect 44 0 41 0;
#X connect 44 1 42 1;
#X connect 45 0 44 0;
#X connect 46 0 47 0;
#X connect 47 0 41 0;
#X connect 48 0 49 0;
#X connect 50 0 52 1;
#X connect 51 0 48 0;
#X connect 52 0 51 0;
#X connect 53 0 60 0;
#X connect 54 0 53 0;
#X connect 55 0 56 0;
#X connect 56 0 62 0;
#X connect 57 0 55 0;
#X connect 58 0 53 0;
#X connect 59 0 37 0;
#X connect 60 0 37 0;
#X connect 60 0 61 0;
#X connect 63 0 64 0;
#X connect 63 1 64 0;
#X connect 64 0 37 0;
#X connect 65 0 32 0;
#X coords 0 732 1 731 195 104 0;
