#N canvas 733 118 771 483 10;
#X obj 255 167 bonk~;
#X obj 241 114 adc~;
#X obj 252 239 stdout;
#X floatatom 121 187 5 0 0 0 - - -, f 5;
#X msg 63 300 45 52 20 11 12 12;
#X obj 89 77 loadbang;
#X msg 89 99 \; pd dsp 1;
#X msg 253 205 boonk \$1 \$2 \$3 \$4 \$5 \$6;
#X obj 393 136 print;
#X msg 311 102 bang;
#X obj 311 81 metro 50;
#X obj 311 62 tgl 15 0 empty empty empty 17 7 0 10 -262144 -1 -1 0
1;
#X connect 0 0 7 0;
#X connect 0 0 8 0;
#X connect 1 0 0 0;
#X connect 1 1 0 0;
#X connect 3 0 7 0;
#X connect 4 0 7 0;
#X connect 5 0 6 0;
#X connect 7 0 2 0;
#X connect 9 0 0 0;
#X connect 10 0 9 0;
#X connect 11 0 10 0;
