#N canvas 411 91 1186 808 10;
#X declare -path ./100.Abstractions;
#X declare -path ../100.Abstractions/;
#X declare -lib zexy;
#X declare -lib aubio;
#X obj 95 369 tgl 15 0 empty empty empty 17 7 0 10 -4032 -1 -1 0 1
;
#X obj 45 549 tgl 15 0 empty empty empty 17 7 0 10 -262144 -1 -1 0
1;
#X obj 371 89 declare -path ./100.Abstractions;
#X obj 211 549 tgl 15 0 empty empty empty 17 7 0 10 -262144 -1 -1 0
1;
#X obj 619 758 tgl 15 0 empty empty empty 17 7 0 10 -262144 -1 -1 0
1;
#X obj 396 551 tgl 15 0 empty empty empty 17 7 0 10 -262144 -1 -1 0
1;
#X obj 216 655 tgl 15 0 empty empty empty 17 7 0 10 -262144 -1 -1 0
1;
#X obj 765 386 midiin;
#X obj 765 437 print;
#X obj 765 420 spigot;
#X obj 796 405 tgl 15 0 empty empty empty 17 7 0 10 -262144 -1 -1 0
1;
#X obj 604 458 spigot;
#X obj 635 443 tgl 15 0 empty empty empty 17 7 0 10 -262144 -1 -1 0
1;
#X obj 604 374 notein;
#X obj 95 416 ./100.Fenetre/FrameBuffer.render;
#X obj 45 564 002.3d.Cube/cube;
#X obj 211 564 001.2d.Rayure/rayure;
#X obj 619 773 001.2d.Masques/masque;
#X obj 396 566 001.2d.Spirale/fildefer;
#X obj 216 670 001.2d.Masques/clap;
#X obj 611 636 ./001.2d.Masques/cache;
#X obj 611 601 tgl 15 0 empty empty empty 17 7 0 10 -262144 -1 -1 0
1;
#X obj 80 401 tgl 15 0 empty empty empty 17 7 0 10 -4034 -1 -1 0 1
;
#X obj 604 475 print number;
#X obj 643 408 spigot;
#X obj 674 393 tgl 15 0 empty empty empty 17 7 0 10 -262144 -1 -1 0
1;
#X obj 643 425 print channel;
#X floatatom 697 391 5 0 0 0 - - -, f 5;
#X floatatom 318 550 5 0 0 0 - - -, f 5;
#X obj 306 516 notein;
#X obj 327 533 f;
#X obj 289 516 bng 17 250 50 0 empty empty empty 17 7 0 10 -262144
-1 -1;
#X floatatom 124 550 5 0 0 0 - - -, f 5;
#X obj 112 516 notein;
#X obj 133 533 f;
#X obj 95 516 bng 17 250 50 0 empty empty empty 17 7 0 10 -262144 -1
-1;
#X floatatom 524 552 5 0 0 0 - - -, f 5;
#X obj 503 518 notein;
#X obj 524 535 f;
#X obj 486 518 bng 17 250 50 0 empty empty empty 17 7 0 10 -262144
-1 -1;
#X floatatom 316 656 5 0 0 0 - - -, f 5;
#X obj 304 622 notein;
#X obj 325 639 f;
#X obj 287 622 bng 17 250 50 0 empty empty empty 17 7 0 10 -262144
-1 -1;
#X floatatom 519 391 5 0 0 0 - - -, f 5;
#X obj 65 401 tgl 15 0 empty empty empty 17 7 0 10 -4034 -1 -1 0 1
;
#X floatatom 526 656 5 0 0 0 - - -, f 5;
#X obj 514 622 notein;
#X obj 535 639 f;
#X obj 497 622 bng 17 250 50 0 empty empty empty 17 7 0 10 -262144
-1 -1;
#X obj 396 331 tgl 15 0 empty empty empty 17 7 0 10 -257985 -1 -1 0
1;
#X obj 411 331 tgl 15 0 empty empty empty 17 7 0 10 -1 -1 -1 0 1;
#X obj 426 331 tgl 15 0 empty empty empty 17 7 0 10 -1 -1 -1 0 1;
#X obj 441 331 tgl 15 0 empty empty empty 17 7 0 10 -1 -1 -1 0 1;
#X obj 396 317 tgl 15 0 empty empty empty 17 7 0 10 -257985 -1 -1 0
1;
#X obj 411 317 tgl 15 0 empty empty empty 17 7 0 10 -257985 -1 -1 0
1;
#X obj 426 317 tgl 15 0 empty empty empty 17 7 0 10 -257985 -1 -1 0
1;
#X obj 441 317 tgl 15 0 empty empty empty 17 7 0 10 -257985 -1 -1 0
1;
#X obj 396 302 tgl 15 0 empty empty empty 17 7 0 10 -257985 -1 -1 0
1;
#X obj 411 302 tgl 15 0 empty empty empty 17 7 0 10 -1 -1 -1 0 1;
#X obj 426 302 tgl 15 0 empty empty empty 17 7 0 10 -257985 -1 -1 0
1;
#X obj 441 302 tgl 15 0 empty empty empty 17 7 0 10 -1 -1 -1 0 1;
#X obj 396 288 tgl 15 0 empty empty empty 17 7 0 10 -257985 -1 -1 0
1;
#X obj 411 288 tgl 15 0 empty empty empty 17 7 0 10 -257985 -1 -1 0
1;
#X obj 426 288 tgl 15 0 empty empty empty 17 7 0 10 -257985 -1 -1 0
1;
#X obj 441 288 tgl 15 0 empty empty empty 17 7 0 10 -257985 -1 -1 0
1;
#X obj 456 331 tgl 15 0 empty empty empty 17 7 0 10 -257985 -1 -1 0
1;
#X obj 456 317 tgl 15 0 empty empty empty 17 7 0 10 -257985 -1 -1 0
1;
#X obj 456 302 tgl 15 0 empty empty empty 17 7 0 10 -257985 -1 -1 0
1;
#X obj 456 288 tgl 15 0 empty empty empty 17 7 0 10 -257985 -1 -1 0
1;
#X obj 396 346 tgl 15 0 empty empty empty 17 7 0 10 -257985 -1 -1 0
1;
#X obj 411 346 tgl 15 0 empty empty empty 17 7 0 10 -257985 -1 -1 0
1;
#X obj 426 346 tgl 15 0 empty empty empty 17 7 0 10 -257985 -1 -1 0
1;
#X obj 441 346 tgl 15 0 empty empty empty 17 7 0 10 -257985 -1 -1 0
1;
#X obj 456 346 tgl 15 0 empty empty empty 17 7 0 10 -257985 -1 -1 0
1;
#X obj 396 273 tgl 15 0 empty empty empty 17 7 0 10 -257985 -1 -1 0
1;
#X obj 456 273 tgl 15 0 empty empty empty 17 7 0 10 -257985 -1 -1 0
1;
#X obj 381 361 tgl 15 0 empty empty empty 17 7 0 10 -257985 -1 -1 0
1;
#X obj 396 361 tgl 15 0 empty empty empty 17 7 0 10 -257985 -1 -1 0
1;
#X obj 411 361 tgl 15 0 empty empty empty 17 7 0 10 -257985 -1 -1 0
1;
#X obj 426 361 tgl 15 0 empty empty empty 17 7 0 10 -257985 -1 -1 0
1;
#X obj 441 361 tgl 15 0 empty empty empty 17 7 0 10 -257985 -1 -1 0
1;
#X obj 456 361 tgl 15 0 empty empty empty 17 7 0 10 -257985 -1 -1 0
1;
#X obj 471 361 tgl 15 0 empty empty empty 17 7 0 10 -257985 -1 -1 0
1;
#X obj 381 376 tgl 15 0 empty empty empty 17 7 0 10 -257985 -1 -1 0
1;
#X obj 396 376 tgl 15 0 empty empty empty 17 7 0 10 -257985 -1 -1 0
1;
#X obj 411 376 tgl 15 0 empty empty empty 17 7 0 10 -257985 -1 -1 0
1;
#X obj 426 376 tgl 15 0 empty empty empty 17 7 0 10 -257985 -1 -1 0
1;
#X obj 441 376 tgl 15 0 empty empty empty 17 7 0 10 -257985 -1 -1 0
1;
#X obj 456 376 tgl 15 0 empty empty empty 17 7 0 10 -257985 -1 -1 0
1;
#X obj 471 376 tgl 15 0 empty empty empty 17 7 0 10 -257985 -1 -1 0
1;
#X obj 381 391 tgl 15 0 empty empty empty 17 7 0 10 -257985 -1 -1 0
1;
#X obj 396 391 tgl 15 0 empty empty empty 17 7 0 10 -257985 -1 -1 0
1;
#X obj 411 391 tgl 15 0 empty empty empty 17 7 0 10 -257985 -1 -1 0
1;
#X obj 426 391 tgl 15 0 empty empty empty 17 7 0 10 -257985 -1 -1 0
1;
#X obj 441 391 tgl 15 0 empty empty empty 17 7 0 10 -257985 -1 -1 0
1;
#X obj 456 391 tgl 15 0 empty empty empty 17 7 0 10 -257985 -1 -1 0
1;
#X obj 471 391 tgl 15 0 empty empty empty 17 7 0 10 -257985 -1 -1 0
1;
#X obj 396 406 tgl 15 0 empty empty empty 17 7 0 10 -257985 -1 -1 0
1;
#X obj 411 406 tgl 15 0 empty empty empty 17 7 0 10 -257985 -1 -1 0
1;
#X obj 426 406 tgl 15 0 empty empty empty 17 7 0 10 -257985 -1 -1 0
1;
#X obj 441 406 tgl 15 0 empty empty empty 17 7 0 10 -257985 -1 -1 0
1;
#X obj 456 406 tgl 15 0 empty empty empty 17 7 0 10 -257985 -1 -1 0
1;
#X obj 396 421 tgl 15 0 empty empty empty 17 7 0 10 -257985 -1 -1 0
1;
#X obj 411 421 tgl 15 0 empty empty empty 17 7 0 10 -257985 -1 -1 0
1;
#X obj 426 421 tgl 15 0 empty empty empty 17 7 0 10 -257985 -1 -1 0
1;
#X obj 441 421 tgl 15 0 empty empty empty 17 7 0 10 -257985 -1 -1 0
1;
#X obj 456 421 tgl 15 0 empty empty empty 17 7 0 10 -257985 -1 -1 0
1;
#X obj 396 436 tgl 15 0 empty empty empty 17 7 0 10 -257985 -1 -1 0
1;
#X obj 456 436 tgl 15 0 empty empty empty 17 7 0 10 -257985 -1 -1 0
1;
#X obj 375 774 ./0001.2d.Bonhomme/bonhomme;
#X obj 375 759 tgl 15 0 empty empty empty 17 7 0 10 -262144 -1 -1 0
1;
#X floatatom 531 760 5 0 0 0 - - -, f 5;
#X obj 519 726 notein;
#X obj 540 743 f;
#X obj 502 726 bng 17 250 50 0 empty empty empty 17 7 0 10 -262144
-1 -1;
#X obj 412 655 tgl 15 0 empty empty empty 17 7 0 10 -262144 -1 -1 0
1;
#X obj 755 713 vradio 15 1 0 4 empty empty empty 0 -8 0 10 -262144
-1 -1 0;
#X obj 231 369 bng 15 250 50 0 empty empty empty 17 7 0 10 -262144
-1 -1;
#X obj 522 472 s linestop;
#X obj 522 442 sel 1;
#X obj 562 425 == 2;
#X floatatom 587 339 5 0 0 0 - - -, f 5;
#X obj 623 212 s SCALEFB;
#X obj 456 212 s XFB;
#X obj 541 212 s YFB;
#X obj 456 192 nbx 6 14 -1e+37 1e+37 0 0 empty empty empty 0 -8 0 10
-262144 -1 -1 0 256;
#X obj 541 192 nbx 6 14 -1e+37 1e+37 0 0 empty empty empty 0 -8 0 10
-262144 -1 -1 0 256;
#X obj 623 192 nbx 6 14 -100 100 0 0 empty empty empty 0 -8 0 10 -262144
-1 -1 0 256;
#X obj 731 136 bng 20 250 50 0 empty empty empty 17 7 0 10 -4034 -1
-1;
#X msg 761 195 1;
#X msg 728 195 0;
#X obj 899 343 notein;
#X obj 899 479 s linestop;
#X obj 899 429 sel 1;
#X obj 899 404 == 2;
#X obj 899 455 spigot;
#X obj 983 440 tgl 15 0 empty empty empty 17 7 0 10 -258113 -1 -1 0
1;
#X obj 945 391 nbx 6 14 -1e+37 1e+37 0 0 empty empty empty 0 -8 0 10
-258113 -1 -1 0 256;
#N canvas 103 223 521 568 valentine 0;
#X obj 73 -74 gemhead;
#X obj 73 229 GEMglPolygonMode;
#X obj 127 187 GLdefine GL_FRONT_AND_BACK;
#X obj 253 170 loadbang;
#X obj 182 165 bng 15 250 50 0 empty empty empty 17 7 0 10 -257985
-1 -1;
#X obj 73 479 GEMglPolygonMode;
#X obj 128 445 GLdefine GL_FRONT_AND_BACK;
#X obj 254 428 loadbang;
#X obj 182 414 bng 15 250 50 0 empty empty empty 17 7 0 10 -257985
-1 -1;
#X obj 182 462 GLdefine GL_FILL;
#X obj 73 128 colorRGB 1 1 1 1;
#X obj 182 204 GLdefine GL_FILL;
#X msg 259 365 10;
#X msg 87 294 justify left base;
#X obj 73 18 translateXYZ -4 3 0;
#X floatatom 116 -7 5 0 0 0 - - -, f 5;
#X obj 231 255 loadbang;
#X msg 100 311 font /usr/share/fonts/truetype/f500/f500.ttf;
#X obj 231 277 t a;
#X obj 304 262 bng 15 250 50 0 empty empty empty 17 7 0 10 -257985
-1 -1;
#X msg 114 328 text valentine;
#X obj 259 348 loadbang;
#X floatatom 297 392 5 0 0 0 - - -, f 5;
#X floatatom 159 -8 5 0 0 0 - - -, f 5;
#X obj 448 170 bng 15 250 50 0 empty empty empty 17 7 0 10 -257985
-1 -1;
#X obj 73 -97 inlet;
#X obj 154 -97 inlet;
#X obj 209 -97 inlet;
#X floatatom 350 113 5 0 0 0 - - -, f 5;
#X floatatom 148 52 5 0 0 0 - - -, f 5;
#X obj 73 74 rotateXYZ 0 180 0;
#X obj 73 364 text3d drasah;
#X connect 0 0 14 0;
#X connect 1 0 31 0;
#X connect 2 0 1 1;
#X connect 3 0 2 0;
#X connect 3 0 11 0;
#X connect 4 0 2 0;
#X connect 4 0 11 0;
#X connect 6 0 5 1;
#X connect 7 0 6 0;
#X connect 7 0 9 0;
#X connect 8 0 6 0;
#X connect 8 0 9 0;
#X connect 9 0 5 2;
#X connect 10 0 1 0;
#X connect 11 0 1 2;
#X connect 12 0 31 1;
#X connect 13 0 31 0;
#X connect 14 0 30 0;
#X connect 15 0 14 1;
#X connect 16 0 18 0;
#X connect 17 0 31 0;
#X connect 18 0 17 0;
#X connect 18 0 13 0;
#X connect 18 0 20 0;
#X connect 19 0 18 0;
#X connect 20 0 31 0;
#X connect 21 0 12 0;
#X connect 22 0 31 1;
#X connect 23 0 14 2;
#X connect 24 0 4 0;
#X connect 24 0 19 0;
#X connect 24 0 8 0;
#X connect 25 0 0 0;
#X connect 26 0 15 0;
#X connect 27 0 23 0;
#X connect 29 0 30 2;
#X connect 30 0 10 0;
#X connect 31 0 5 0;
#X restore 606 561 pd valentine;
#X obj 606 540 tgl 15 0 empty empty empty 17 7 0 10 -262144 -1 -1 0
1;
#X floatatom 646 541 5 0 0 0 - - -, f 5;
#X floatatom 687 541 5 0 0 0 - - -, f 5;
#X msg 676 235 0.59;
#X obj 123 286 s tutututu;
#X obj 143 236 tgl 15 0 empty empty empty 17 7 0 10 -159808 -1 -1 0
1;
#X obj 143 251 metro 500;
#X floatatom 203 237 5 0 0 0 - - -, f 5;
#X obj 633 81 cnv 15 150 25 empty empty empty 20 12 0 14 -257985 -66577
0;
#X obj 642 87 hsl 128 15 0 2 0 0 empty empty empty -2 -8 0 10 -262144
-1 -1 1270 1;
#X obj 639 128 s blur;
#X msg 639 65 0.2;
#X obj 639 46 loadbang;
#X obj 639 108 / 100;
#X obj 800 74 hradio 15 1 0 2 empty empty empty 0 -8 0 10 -257985 -1
-1 0;
#X obj 101 19 100.Input/audio_bonk/analyse_son;
#X obj 117 148 f;
#X obj 147 148 f;
#X obj 177 148 f;
#X obj 124 185 tgl 15 0 empty empty empty 17 7 0 10 -257985 -1 -1 1
1;
#X obj 85 203 spigot;
#X obj 800 40 loadbang;
#X msg 800 57 0;
#X obj 200 175 loadbang;
#X msg 159 168 1;
#X obj 75 127 b;
#X obj 924 370 hradio 15 1 0 8 empty empty empty 0 -8 0 10 -262144
-1 -1 0;
#X text 589 287 warning: MIDI timing FIFO overflowed;
#X obj 69 596 hradio 15 1 0 8 empty empty empty 0 -8 0 10 -262144 -1
-1 0;
#X obj 47 259 bng 15 250 50 0 empty empty empty 17 7 0 10 -262144 -1
-1;
#X obj 129 348 LIVE.window;
#X obj 922 183 QuartTemps;
#X obj 923 208 bpmgen;
#X obj 396 451 tgl 15 0 empty empty empty 17 7 0 10 -257985 -1 -1 0
1;
#X obj 456 451 tgl 15 0 empty empty empty 17 7 0 10 -257985 -1 -1 0
1;
#X obj 411 436 tgl 15 0 empty empty empty 17 7 0 10 -257985 -1 -1 0
1;
#X obj 441 436 tgl 15 0 empty empty empty 17 7 0 10 -257985 -1 -1 0
1;
#X obj 411 451 tgl 15 0 empty empty empty 17 7 0 10 -257985 -1 -1 0
1;
#X obj 441 451 tgl 15 0 empty empty empty 17 7 0 10 -257985 -1 -1 0
1;
#X obj 95 384 ./100.Fenetre/fenetree;
#X obj 137 327 tgl 15 0 empty empty empty 17 7 0 10 -4032 -1 -1 0 1
;
#X msg 276 218 2000;
#X obj 930 292 pix_invert;
#X obj 800 89 s FLOU2;
#X obj 354 61 ../002.3d.Screencast/screencast;
#X obj 412 670 005.Paysage.Foret/montagnes;
#X connect 0 0 179 0;
#X connect 1 0 15 0;
#X connect 3 0 16 0;
#X connect 4 0 17 0;
#X connect 5 0 18 0;
#X connect 6 0 19 0;
#X connect 7 0 9 0;
#X connect 9 0 8 0;
#X connect 10 0 9 1;
#X connect 11 0 23 0;
#X connect 12 0 11 1;
#X connect 13 0 11 0;
#X connect 13 0 44 0;
#X connect 13 0 121 0;
#X connect 13 2 24 0;
#X connect 13 2 27 0;
#X connect 21 0 20 0;
#X connect 22 0 14 1;
#X connect 24 0 26 0;
#X connect 25 0 24 1;
#X connect 28 0 16 1;
#X connect 29 0 30 1;
#X connect 30 0 28 0;
#X connect 31 0 30 0;
#X connect 32 0 15 1;
#X connect 33 0 34 1;
#X connect 34 0 32 0;
#X connect 35 0 34 0;
#X connect 36 0 18 1;
#X connect 37 0 38 1;
#X connect 38 0 36 0;
#X connect 39 0 38 0;
#X connect 40 0 19 1;
#X connect 41 0 42 1;
#X connect 42 0 40 0;
#X connect 43 0 42 0;
#X connect 45 0 14 0;
#X connect 46 0 185 1;
#X connect 47 0 48 1;
#X connect 48 0 46 0;
#X connect 49 0 48 0;
#X connect 111 0 110 0;
#X connect 112 0 110 1;
#X connect 113 0 114 1;
#X connect 114 0 112 0;
#X connect 115 0 114 0;
#X connect 116 0 185 0;
#X connect 117 0 17 1;
#X connect 118 0 179 1;
#X connect 121 0 120 0;
#X connect 122 0 121 1;
#X connect 126 0 124 0;
#X connect 127 0 125 0;
#X connect 128 0 123 0;
#X connect 129 0 130 0;
#X connect 129 0 131 0;
#X connect 130 0 123 0;
#X connect 131 0 125 0;
#X connect 131 0 124 0;
#X connect 132 0 135 0;
#X connect 134 0 136 0;
#X connect 135 0 134 0;
#X connect 136 0 133 0;
#X connect 137 0 136 1;
#X connect 140 0 139 0;
#X connect 141 0 139 1;
#X connect 142 0 139 2;
#X connect 143 0 128 0;
#X connect 145 0 146 0;
#X connect 146 0 144 0;
#X connect 147 0 146 1;
#X connect 149 0 153 0;
#X connect 151 0 149 0;
#X connect 152 0 151 0;
#X connect 153 0 150 0;
#X connect 154 0 183 0;
#X connect 155 0 165 0;
#X connect 155 1 156 0;
#X connect 155 2 157 0;
#X connect 155 3 158 0;
#X connect 159 0 160 1;
#X connect 160 0 144 0;
#X connect 160 0 169 0;
#X connect 161 0 162 0;
#X connect 162 0 154 0;
#X connect 163 0 164 0;
#X connect 164 0 159 0;
#X connect 165 0 160 0;
#X connect 166 0 135 1;
#X connect 166 0 138 0;
#X connect 168 0 32 0;
#X connect 181 0 147 0;
