#N canvas 23 67 926 803 10;
#X obj 481 722 gemwin;
#X obj -15 584 + 1;
#X obj -38 538 + 1;
#X obj -84 610 pack f f f f;
#X obj 100 180 hradio 15 1 0 5 empty empty empty 0 -6 0 8 -262144 -1
-1 4;
#N canvas 477 25 445 299 preset 0;
#X msg 36 193 setK 0.05 \, setD 0 \, setD2 30;
#X msg 55 166 setK 1 \, setD 0 \, setD2 30;
#X msg 75 138 setK 1 \, setD 0 \, setD2 200;
#X obj 36 16 inlet;
#X obj 115 254 outlet;
#X msg 95 108 setK 300 \, setD 300 \, setD2 5;
#X obj 36 43 sel 2 1 0 3 4;
#X msg 115 78 setK 3000 \, setD 1000 \, setD2 5000;
#X connect 0 0 4 0;
#X connect 1 0 4 0;
#X connect 2 0 4 0;
#X connect 3 0 6 0;
#X connect 5 0 4 0;
#X connect 6 0 0 0;
#X connect 6 1 1 0;
#X connect 6 2 2 0;
#X connect 6 3 5 0;
#X connect 6 4 7 0;
#X connect 7 0 4 0;
#X restore -290 328 pd preset;
#N canvas 0 22 268 186 stuff 0;
#X obj 13 20 loadbang;
#X obj 48 97 s \$0-link;
#X obj 13 72 t b b;
#X obj 13 123 s \$0-mass;
#X obj 13 45 metro 5;
#X obj 89 20 bng 15 250 50 0 empty empty empty 0 -6 0 8 -262144 -1
-1;
#X msg 124 92 reset;
#X msg 89 66 resetL \, resetF;
#X obj 89 40 t b b;
#X connect 0 0 4 0;
#X connect 2 0 3 0;
#X connect 2 1 1 0;
#X connect 4 0 2 0;
#X connect 5 0 8 0;
#X connect 6 0 3 0;
#X connect 7 0 1 0;
#X connect 8 0 7 0;
#X connect 8 1 6 0;
#X restore 13 14 pd stuff;
#X obj -226 411 link \$0-link 0 1 0 200;
#X obj -84 412 mass \$0-mass 10000 0;
#X obj 156 369 link \$0-link 0 1 0 200;
#X obj 155 393 mass \$0-mass 10000 0;
#X obj -84 637 s coordinates;
#X obj 156 297 b;
#X obj 100 195 hradio 15 1 0 5 empty empty empty 0 -6 0 8 -262144 -1
-1 2;
#N canvas 475 53 445 299 preset 0;
#X msg 36 193 setK 0.05 \, setD 0 \, setD2 30;
#X msg 55 166 setK 1 \, setD 0 \, setD2 30;
#X msg 75 138 setK 1 \, setD 0 \, setD2 200;
#X obj 36 16 inlet;
#X obj 115 254 outlet;
#X msg 95 108 setK 300 \, setD 300 \, setD2 5;
#X obj 36 43 sel 2 1 0 3 4;
#X msg 115 78 setK 3000 \, setD 1000 \, setD2 5000;
#X connect 0 0 4 0;
#X connect 1 0 4 0;
#X connect 2 0 4 0;
#X connect 3 0 6 0;
#X connect 5 0 4 0;
#X connect 6 0 0 0;
#X connect 6 1 1 0;
#X connect 6 2 2 0;
#X connect 6 3 5 0;
#X connect 6 4 7 0;
#X connect 7 0 4 0;
#X restore 100 234 pd preset;
#X obj 481 646 spigot;
#X obj 487 435 t b a;
#X msg 327 646 view 0 0 10 0 0 0 0 1 0;
#X msg 247 705 view 0 0 \$1 0 0 0 0 1 0;
#X floatatom 247 691 5 0 0 0 - - -;
#X obj 239 100 toggle2;
#X msg 252 67 1;
#X msg 219 66 0;
#X obj 226 -64 r autoCAMmvt;
#X obj 304 421 line;
#X msg 177 561 view \$1 \$2 \$3 0 0 \$4 0 1 0;
#X msg 304 397 \$1 2000;
#X obj 226 -39 b;
#X obj 226 8 % 2;
#X obj 226 34 sel 0 1;
#X obj 226 -16 f;
#X obj 285 -14 + 1;
#X obj 100 119 cnv 15 156 60 empty empty empty 20 12 0 14 -245500 -66577
0;
#X obj 100 141 bpmgen;
#X obj -61 197 QuartTemps;
#X obj 100 119 taptempo;
#X obj 177 531 pack f f f f;
#X obj 223 458 / 2;
#X obj 223 480 + 3;
#X obj 304 346 random 40;
#X obj 304 373 * -0.1;
#X obj -61 500 f;
#X floatatom 245 424 5 0 0 0 - - -;
#X obj 156 321 random 40;
#X obj 157 346 expr ($f1 - 20) / 1;
#X obj -211 378 expr ($f1 -20) / 1;
#X obj -212 257 random 40;
#X obj 386 50 pad_midi 37;
#X obj 208 185 QuartTemps;
#X connect 1 0 3 3;
#X connect 2 0 3 2;
#X connect 3 0 11 0;
#X connect 4 0 5 0;
#X connect 5 0 7 0;
#X connect 7 1 8 0;
#X connect 8 0 7 1;
#X connect 8 0 2 0;
#X connect 8 0 3 0;
#X connect 8 0 36 0;
#X connect 9 1 10 0;
#X connect 10 0 9 1;
#X connect 10 0 1 0;
#X connect 10 0 36 1;
#X connect 10 0 37 0;
#X connect 10 0 41 0;
#X connect 10 0 42 0;
#X connect 12 0 43 0;
#X connect 13 0 14 0;
#X connect 14 0 9 0;
#X connect 15 0 0 0;
#X connect 16 0 17 0;
#X connect 16 1 15 1;
#X connect 17 0 0 0;
#X connect 18 0 0 0;
#X connect 19 0 18 0;
#X connect 20 0 16 0;
#X connect 20 0 33 1;
#X connect 21 0 20 0;
#X connect 22 0 20 0;
#X connect 23 0 27 0;
#X connect 24 0 36 3;
#X connect 25 0 15 0;
#X connect 26 0 24 0;
#X connect 27 0 30 0;
#X connect 28 0 29 0;
#X connect 29 0 22 0;
#X connect 29 1 21 0;
#X connect 30 0 31 0;
#X connect 30 0 28 0;
#X connect 31 0 30 1;
#X connect 33 0 34 0;
#X connect 33 0 48 0;
#X connect 34 0 46 0;
#X connect 35 0 33 0;
#X connect 36 0 25 0;
#X connect 37 0 38 0;
#X connect 38 0 36 2;
#X connect 39 0 40 0;
#X connect 40 0 26 0;
#X connect 41 0 3 1;
#X connect 43 0 44 0;
#X connect 44 0 9 0;
#X connect 45 0 7 0;
#X connect 46 0 45 0;
#X connect 48 0 12 0;
#X connect 48 0 39 0;
#X coords 0 -1 1 1 156 110 1 100 100;
