#N canvas 95 172 1372 727 10;
#X obj 139 216 sel 1;
#X obj 139 171 stripnote;
#X obj 139 154 notein 1;
#X obj 139 194 == \$1;
#X obj 175 265 f;
#X obj 175 287 outlet;
#X obj 297 317 print note \$1;
#X obj 297 282 spigot;
#X obj 330 238 loadbang;
#X msg 330 260 0;
#X obj 487 265 tgl 17 0 empty empty DEBUG -40 9 0 12 -191407 -1 -1
0 1;
#X text 714 472 valeur;
#X text 623 472 controleur;
#X obj 652 544 pack f f;
#X obj 652 620 outlet;
#X msg 974 327 0;
#X msg 1031 327 1;
#X msg 1088 327 2;
#X msg 1146 327 4;
#X msg 1203 327 5;
#X msg 1260 327 6;
#X msg 1318 327 7;
#X msg 1375 327 8;
#X obj 974 276 symbol \$2;
#X obj 416 -17 cnv 15 400 150 empty empty empty 20 12 0 14 -257985
-66577 0;
#X obj 517 76 midiout;
#X floatatom 517 23 5 0 0 0 note_0_Pitch - -, f 5;
#X msg 517 46 176 \, 99 \, 2 \, 176 \, 98 \, 2 \, 176 \, 6 \, \$1;
#X text 515 -9 MIDI CTL OUT;
#X obj 974 239 loadbang;
#X obj 625 487 ctlin 98 1;
#X obj 715 487 ctlin 6 1;
#X obj 652 587 route 10;
#X msg 974 293 \$1;
#X obj 974 310 route lowboost pan pitch modtype modspeed moddepth level
decay, f 66;
#X floatatom 37 37 5 0 0 0 - - -, f 5;
#X obj 899 130 inlet;
#X obj 888 238 bng 15 250 50 0 empty empty empty 17 7 0 10 -262144
-1 -1;
#X obj 974 344 t f;
#X obj 933 452 +;
#X obj 819 345 * 10;
#X obj 785 291 f \$1;
#X floatatom 926 499 5 0 0 0 - - -, f 5;
#X obj 787 215 loadbang;
#X connect 0 0 4 0;
#X connect 1 0 3 0;
#X connect 1 1 4 1;
#X connect 2 0 1 0;
#X connect 2 1 1 1;
#X connect 3 0 0 0;
#X connect 4 0 5 0;
#X connect 4 0 7 0;
#X connect 7 0 6 0;
#X connect 8 0 9 0;
#X connect 9 0 7 1;
#X connect 10 0 7 1;
#X connect 13 0 32 0;
#X connect 15 0 38 0;
#X connect 16 0 38 0;
#X connect 17 0 38 0;
#X connect 18 0 38 0;
#X connect 19 0 38 0;
#X connect 20 0 38 0;
#X connect 21 0 38 0;
#X connect 22 0 38 0;
#X connect 23 0 33 0;
#X connect 26 0 27 0;
#X connect 27 0 25 0;
#X connect 29 0 23 0;
#X connect 30 0 13 0;
#X connect 31 0 13 1;
#X connect 32 0 14 0;
#X connect 33 0 34 0;
#X connect 34 0 15 0;
#X connect 34 1 16 0;
#X connect 34 2 17 0;
#X connect 34 3 18 0;
#X connect 34 4 19 0;
#X connect 34 5 20 0;
#X connect 34 6 21 0;
#X connect 34 7 22 0;
#X connect 36 0 37 0;
#X connect 37 0 23 0;
#X connect 37 0 41 0;
#X connect 38 0 39 1;
#X connect 39 0 42 0;
#X connect 40 0 39 0;
#X connect 41 0 40 0;
#X connect 42 0 32 1;
#X connect 43 0 41 0;
#X coords 0 -1 1 1 192 17 1 100 100;
