#N canvas 82 136 1372 727 10;
#X text 343 433 valeur;
#X text 252 433 controleur;
#X obj 281 505 pack f f;
#X obj 281 581 outlet;
#X msg 603 288 0;
#X msg 660 288 1;
#X msg 717 288 2;
#X msg 775 288 4;
#X msg 832 288 5;
#X msg 889 288 6;
#X msg 947 288 7;
#X msg 1004 288 8;
#X obj 603 237 symbol \$2;
#X obj 603 200 loadbang;
#X obj 254 448 ctlin 98 1;
#X obj 344 448 ctlin 6 1;
#X obj 281 548 route 10;
#X msg 603 254 \$1;
#X obj 603 271 route lowboost pan pitch modtype modspeed moddepth level
decay, f 66;
#X obj 528 91 inlet;
#X obj 517 199 bng 15 250 50 0 empty empty empty 17 7 0 10 -262144
-1 -1;
#X obj 603 305 t f;
#X obj 562 413 +;
#X obj 448 306 * 10;
#X obj 414 252 f \$1;
#X floatatom 555 460 5 0 0 0 - - -, f 5;
#X obj 416 176 loadbang;
#X msg 802 462 0;
#X msg 803 481 1;
#X msg 803 500 2;
#X msg 803 519 4;
#X msg 804 538 5;
#X msg 805 557 6;
#X msg 805 576 7;
#X msg 805 595 8;
#X text 847 460 Electribe midi CTL messages : 0 - Low Boost 1 \, -
Pan 2 - Pitch \, 4 - Mod Type \, 5 - Mod Speed \, 6 - Mod Depth \,
7 - Level \, 8 - Decay;
#X connect 2 0 16 0;
#X connect 4 0 21 0;
#X connect 5 0 21 0;
#X connect 6 0 21 0;
#X connect 7 0 21 0;
#X connect 8 0 21 0;
#X connect 9 0 21 0;
#X connect 10 0 21 0;
#X connect 11 0 21 0;
#X connect 12 0 17 0;
#X connect 13 0 12 0;
#X connect 14 0 2 0;
#X connect 15 0 2 1;
#X connect 16 0 3 0;
#X connect 17 0 18 0;
#X connect 18 0 4 0;
#X connect 18 1 5 0;
#X connect 18 2 6 0;
#X connect 18 3 7 0;
#X connect 18 4 8 0;
#X connect 18 5 9 0;
#X connect 18 6 10 0;
#X connect 18 7 11 0;
#X connect 19 0 20 0;
#X connect 20 0 12 0;
#X connect 20 0 24 0;
#X connect 21 0 22 1;
#X connect 22 0 25 0;
#X connect 23 0 22 0;
#X connect 24 0 23 0;
#X connect 25 0 16 1;
#X connect 26 0 24 0;
#X coords 0 727 1 726 192 17 0;
