#N canvas 201 164 862 564 10;
#X obj 546 70 inlet;
#X obj 536 351 outlet;
#X obj 546 143 sel 1 0;
#X obj 546 111 change;
#X obj 536 180 b;
#X msg 536 217 1;
#X obj 578 292 f;
#X msg 593 244 0;
#X msg 624 244 1;
#X obj 624 222 delay \$1;
#X connect 0 0 3 0;
#X connect 2 0 4 0;
#X connect 2 1 6 0;
#X connect 3 0 2 0;
#X connect 4 0 5 0;
#X connect 4 0 7 0;
#X connect 4 0 9 0;
#X connect 5 0 1 0;
#X connect 6 0 1 0;
#X connect 7 0 6 1;
#X connect 8 0 6 1;
#X connect 9 0 8 0;
