#N canvas 901 158 450 300 10;
#X obj 307 11 r linestop;
#X msg 307 35 stop;
#X obj 240 81 inlet;
#X obj 307 263 outlet;
#X obj 319 77 inlet;
#X obj 396 78 inlet;
#X obj 307 207 line;
#X connect 0 0 1 0;
#X connect 1 0 6 0;
#X connect 2 0 6 0;
#X connect 4 0 6 1;
#X connect 5 0 6 2;
#X connect 6 0 3 0;
