#N canvas 340 132 773 373 10;
#X obj 236 151 shell;
#X obj 236 212 print;
#X obj 263 176 print ------------------ done ---------------------------------
;
#X msg 236 75 nvidia-settings -t -q RefreshRate | grep Hz;
#X msg 265 105 nvidia-settings -t -q FlatpanelNativeResolution;
#X msg 299 134 nvidia-settings -t -d -q [gpu:0]/EnabledDisplays;
#X text 146 103 resolution;
#X text 110 76 rafraichissement;
#X text 173 129 ecran;
#X connect 0 0 1 0;
#X connect 0 1 2 0;
#X connect 3 0 0 0;
#X connect 4 0 0 0;
#X connect 5 0 0 0;
