#N canvas 661 201 528 486 10;
#X obj 133 70 inlet;
#X obj 89 430 outlet;
#X obj 133 191 f;
#X obj 162 191 + 1;
#X obj 187 249 sel 1;
#X msg 187 269 1;
#X obj 133 266 == 1;
#X obj 133 287 sel 1;
#X obj 251 214 cnv 7 62 7 empty empty empty 20 12 0 14 -191407 -66577
0;
#X obj 250 214 hradio 8 1 0 8 empty empty empty 0 -8 0 10 -228856 -1
-1 3;
#X obj 187 229 > 1;
#X obj 250 430 outlet;
#X obj 430 176 loadbang;
#X obj 353 281 r beat;
#X msg 430 197 3;
#X obj 35 71 notein;
#X obj 35 277 b;
#X obj 35 242 sel 1 0;
#X obj 35 217 < 15;
#X obj 89 348 t a, f 4;
#X connect 0 0 2 0;
#X connect 2 0 3 0;
#X connect 2 0 6 0;
#X connect 2 0 10 0;
#X connect 3 0 2 1;
#X connect 4 0 5 0;
#X connect 5 0 2 1;
#X connect 6 0 7 0;
#X connect 7 0 19 0;
#X connect 9 0 10 1;
#X connect 9 0 11 0;
#X connect 10 0 4 0;
#X connect 12 0 14 0;
#X connect 14 0 9 0;
#X connect 15 0 18 0;
#X connect 16 0 19 0;
#X connect 17 0 16 0;
#X connect 18 0 17 0;
#X connect 19 0 1 0;
#X coords 0 -1 1 1 64 22 1 250 200;
