#N canvas 396 95 1082 782 10;
#X obj 191 465 realtime;
#X obj 244 251 bng 12 250 50 0 empty empty empty 17 7 0 10 -228856
-1 -1;
#X obj 244 326 f;
#X obj 281 326 + 1;
#X obj 263 521 /;
#X msg 257 296 -1;
#X obj 191 412 sel 1;
#X obj 191 390 == 1;
#X obj 263 542 spigot;
#X obj 281 346 t f f f;
#X obj 257 276 delay 3000;
#X obj 322 132 key;
#X obj 322 175 sel 1;
#X obj 191 440 b;
#X obj 244 440 b;
#X obj 263 740 outlet;
#X obj 206 264 bng 8 250 50 0 empty empty empty 17 7 0 9 -1 -1 -1;
#X obj 214 264 cnv 7 42 7 empty BPM BPM:389 0 4 0 8 -191407 -1 0;
#X obj 274 712 s BPM;
#X msg 274 692 label \$1;
#X obj 274 672 makefilename BPM:%d;
#X obj 244 115 inlet;
#X msg 139 627 130;
#X obj 139 610 loadbang;
#X obj 263 592 /;
#X obj 263 609 * 60;
#X msg 263 575 1000 \$1;
#X obj 452 206 sel 1;
#X obj 452 186 change;
#X obj 452 165 r gamepad_button_1;
#X obj 322 223 b;
#X floatatom 375 149 5 0 0 0 - - -, f 5;
#X text 246 76 capte une touche clavier pressee en rythme \, renvoi
un BPM soius forme de chiffre;
#X text 68 590 130 BPM par defaut;
#X obj 322 154 == 178;
#X obj 263 644 f;
#X text 337 591 ms 2 bpm;
#X obj 454 249 notein;
#X obj 454 271 route 1 2 3 4 5;
#X connect 0 0 4 0;
#X connect 1 0 2 0;
#X connect 1 0 10 0;
#X connect 2 0 3 0;
#X connect 3 0 2 1;
#X connect 3 0 9 0;
#X connect 4 0 8 0;
#X connect 5 0 2 0;
#X connect 6 0 13 0;
#X connect 6 1 14 0;
#X connect 7 0 6 0;
#X connect 8 0 26 0;
#X connect 9 0 4 1;
#X connect 9 1 7 0;
#X connect 9 2 8 1;
#X connect 10 0 5 0;
#X connect 11 0 31 0;
#X connect 11 0 34 0;
#X connect 12 0 30 0;
#X connect 13 0 0 0;
#X connect 14 0 0 1;
#X connect 19 0 18 0;
#X connect 20 0 19 0;
#X connect 21 0 1 0;
#X connect 22 0 35 0;
#X connect 23 0 22 0;
#X connect 24 0 25 0;
#X connect 25 0 35 0;
#X connect 26 0 24 0;
#X connect 27 0 30 0;
#X connect 28 0 27 0;
#X connect 29 0 28 0;
#X connect 30 0 1 0;
#X connect 34 0 12 0;
#X connect 35 0 20 0;
#X connect 35 0 15 0;
#X connect 37 0 38 0;
#X coords 0 -1 1 1 156 22 1 100 250;
