#N canvas 500 152 740 483 10;
#X obj 100 100 tgl 17 0 empty empty empty 17 7 0 10 -241339 -1 -262144
0 1;
#X obj 185 178 sel 1 0;
#X msg 204 225 color 13;
#X obj 100 69 inlet;
#X obj 100 154 outlet;
#X obj 244 24 loadbang;
#X msg 244 41 0;
#X msg 330 222 color \$1;
#X floatatom 329 198 5 0 0 0 - - -;
#X msg 32 245 color 76;
#X msg 200 264 color 0;
#X connect 0 0 1 0;
#X connect 0 0 4 0;
#X connect 1 0 2 0;
#X connect 1 1 10 0;
#X connect 2 0 0 0;
#X connect 3 0 0 0;
#X connect 5 0 6 0;
#X connect 6 0 0 0;
#X connect 7 0 0 0;
#X connect 8 0 7 0;
#X connect 9 0 0 0;
#X connect 10 0 0 0;
#X coords 0 -1 1 1 17 17 2 100 100;
