#N canvas 574 178 740 483 10;
#X obj 100 100 tgl 17 0 empty empty empty 17 7 0 10 -241291 -1 -262144
0 1;
#X msg 258 153 color 0;
#X obj 185 178 sel 1 0;
#X obj 100 69 inlet;
#X obj 100 154 outlet;
#X obj 244 24 loadbang;
#X msg 244 41 0;
#X msg 264 114 color 15;
#X connect 0 0 2 0;
#X connect 0 0 4 0;
#X connect 1 0 0 0;
#X connect 2 0 7 0;
#X connect 2 1 1 0;
#X connect 3 0 0 0;
#X connect 5 0 6 0;
#X connect 6 0 0 0;
#X connect 7 0 0 0;
#X coords 0 -1 1 1 17 17 2 100 100;
