#N canvas 235 371 1216 731 10;
#X declare -path ../100.Abstractions;
#X obj -110 974 rotateXYZ;
#X obj -148 715 alpha;
#X obj 352 925 line;
#X msg -262 1390 draw line;
#X obj -93 900 line;
#X obj -304 1258 scaleXYZ;
#X obj 351 973 expr 1 - $f1;
#X obj -275 1234 + 1;
#X floatatom -66 391 5 0 0 0 - - -, f 5;
#X obj -148 510 scaleXYZ 1 1 1;
#X floatatom -337 446 5 0 0 0 Z - -, f 5;
#X obj -148 604 gemlist;
#X obj -148 576 until;
#X obj -148 532 t b a;
#X msg -33 537 set \$1;
#X obj 103 153 hsl 100 17 1 30 0 0 empty empty Demultiplication -2
8 0 8 -258021 -1 -1 0 1;
#X obj 351 948 spigot;
#X obj 100 285 tgl 17 0 empty empty lines_mvt 17 7 0 8 -262144 -1 -1
0 1;
#X obj -287 1071 separator;
#X obj 352 875 f;
#X obj 15 795 b;
#X obj -93 854 pack f f;
#X obj -200 1356 loadbang;
#X msg -35 136 1;
#X obj -76 922 random 360;
#X obj -59 946 random 360;
#X obj -473 1069 separator;
#X obj -503 1445 cuboid 1 1 1;
#X obj -304 1434 cuboid 2 1 1;
#X msg -476 1411 1;
#X obj 178 285 tgl 17 0 empty empty Pillule 17 7 0 8 -261013 -1 -1
0 1;
#X obj -251 918 sel 1;
#X msg -449 1411 0;
#X msg -66 1385 1;
#X msg -106 1385 2;
#X obj -93 821 random 30;
#X obj -232 1054 pix_separator;
#X msg -237 1176 0;
#X obj -304 1203 translateXYZ 1 0 0;
#X msg -242 1152 1;
#X obj -135 243 loadbang;
#X msg -135 268 0;
#X obj 404 310 spigot;
#X obj 178 268 tgl 17 0 empty empty Alternance 17 7 0 8 -257985 -1
-1 0 1;
#X obj 103 135 hsl 100 17 0 8 0 0 empty empty Echelle 13 7 0 8 -262144
-1 -1 2475 1;
#X floatatom -288 446 5 0 0 0 Y - -, f 5;
#X floatatom -240 446 5 0 0 0 X - -, f 5;
#X obj -323 700 sel 0 1;
#X msg -323 720 0;
#X msg -148 554 1;
#X obj -16 1231 cuboid 1 1 1;
#X obj 102 1175 random 2;
#X obj 102 1201 + 1;
#X obj -304 1367 spigot;
#X obj 100 269 tgl 17 0 empty empty lines 17 7 0 8 -262144 -1 -1 0
1;
#X obj -33 520 int;
#X obj 100 35 inlet;
#X floatatom 100 253 5 0 0 0 - - -, f 5;
#X msg -163 1434 width \$1;
#X obj 133 252 hradio 15 1 0 8 empty empty empty 0 -8 0 10 -262144
-1 -1 2;
#X obj 36 263 + 1;
#X obj -179 397 tgl 15 0 empty empty empty 17 7 0 10 -262144 -1 -1
0 1;
#X msg -200 1373 1;
#X obj 239 100 toggle2;
#X obj -336 417 - 10;
#X obj -336 402 bng 15 250 50 0 empty empty empty 17 7 0 10 -262144
-1 -1;
#X msg -93 880 \$1 \, 0 \$2;
#X obj 494 943 b;
#X obj 494 917 spigot;
#X obj 605 926 tgl 15 0 empty empty clignote 17 7 0 10 -262144 -1 -1
0 1;
#X obj 488 1034 *;
#X obj 184 181 hradio 10 1 0 3 empty empty modes 0 -5 0 8 -262144 -1
-1 2;
#X obj 617 844 sel 0 1 2;
#X msg 594 870 1;
#X msg 634 885 0;
#X msg 668 908 0;
#X obj 554 986 delay 20;
#X msg 503 986 1;
#X msg 554 1017 0;
#X msg 248 1111 1;
#X msg 276 1111 0;
#X obj -147 429 gemhead 59;
#X msg 26 118 2;
#X obj -53 101 loadbang;
#X msg -53 164 2;
#X obj 186 116 tgl 17 0 empty empty perspec 18 8 0 8 -228856 -1 -1
0 1;
#X obj -148 308 sel 1 0;
#X msg -129 334 set -300;
#X msg 322 1111 0.9;
#X msg 350 1111 0.4;
#X text 336 1090 rose;
#X text 265 1092 rouge;
#X msg 117 820 stop;
#X obj 133 115 bng 15 250 50 0 empty empty STOP! 18 8 0 8 -258113 -1
-1;
#X msg 379 120 1;
#X obj 272 132 delay 100;
#X obj 272 156 t b b;
#X msg 272 173 0;
#X obj -147 460 translateXYZ 0 0 0;
#X msg -375 1417 draw quad;
#X obj 220 -6 r gamepad_button_5;
#X obj 220 18 gamepad_maintient 1000;
#X obj 181 677 b;
#X obj -148 751 t a a;
#X obj -336 385 loadbang;
#X msg 115 1111 0;
#X msg 145 1111 0.6;
#X msg 175 1111 0.2;
#X msg 205 1111 1;
#X obj 115 1096 bng 15 250 50 0 empty empty empty 17 7 0 10 -14350
-1 -1;
#X obj 248 1096 bng 15 250 50 0 empty empty empty 17 7 0 10 -258113
-1 -1;
#X obj 322 1096 bng 15 250 50 0 empty empty empty 17 7 0 10 -261234
-1 -1;
#X text 134 1090 vert / blue;
#X msg 395 1111 0;
#X obj 395 1096 bng 15 250 50 0 empty empty empty 17 7 0 10 -14001
-1 -1;
#X text 414 1090 blue / vert;
#X obj 241 139 vsl 15 50 -10 14 0 0 empty empty y 3 10 0 8 -228856
-2272 -1 0 1;
#X obj 404 200 b;
#X obj 404 226 f;
#X obj 443 234 + 1;
#X obj 404 255 % 2;
#X obj 404 163 bang;
#X obj 196 317 QuartTemps;
#X obj 100 191 taptempo;
#X floatatom 404 283 5 0 0 0 - - -, f 5;
#X msg -148 354 set 60;
#X obj 351 1018 * 0.2;
#X obj 53 632 /;
#X obj 53 649 * 60;
#X msg 53 615 1000 \$1;
#X obj 89 677 * 1;
#X obj 101 652 + 1;
#X msg 352 902 1 \, 0 \$1;
#X obj 53 590 f;
#X obj 79 562 b;
#X obj -503 1343 translateXYZ 4 0 0;
#X obj -409 1282 + 1;
#X obj -470 1206 bng 15 250 50 0 empty empty empty 17 7 0 10 -262144
-1 -1;
#X obj -476 1283 + 1;
#X obj 523 603 spigot;
#X obj -369 1160 tgl 15 0 empty empty empty 17 7 0 10 -262144 -1 -1
0 1;
#X msg -350 1227 0;
#X obj -363 1203 sel 0;
#X obj -34 434 + 0;
#X obj -336 1176 bng 15 250 50 0 empty empty empty 17 7 0 10 -262144
-1 -1;
#X msg -378 1227 2;
#X text 485 1054 alpha;
#X obj -304 1146 colorRGB 1 1 1 1;
#X msg 565 1111 1;
#X obj 535 1096 bng 15 250 50 0 empty empty empty 17 7 0 10 -1 -1 -1
;
#X text 554 1090 noir;
#X msg 535 1111 0.5;
#X obj -476 1259 random 4;
#X obj -409 1258 random 10;
#X obj 100 213 bpmgen;
#X msg -411 1014 1;
#X floatatom 169 1236 5 0 0 0 - - -, f 5;
#X obj -16 1128 colorRGB 1 0.3 0 1;
#X obj -473 1097 colorRGB 1 1 1 1;
#X floatatom 492 434 5 0 0 0 - - -, f 5;
#X floatatom 555 428 5 0 0 0 - - -, f 5;
#X obj 499 373 notein 1;
#X obj 551 485 sel 2;
#X obj 666 531 midiin;
#X msg 455 1111 0.8;
#X msg 425 1111 0.6;
#X msg 486 1111 0.5;
#X obj 463 8 declare -path ../100.Abstractions;
#X connect 0 0 36 0;
#X connect 0 0 157 0;
#X connect 1 0 103 0;
#X connect 2 0 16 0;
#X connect 2 0 70 0;
#X connect 3 0 28 0;
#X connect 4 0 0 1;
#X connect 5 0 53 0;
#X connect 6 0 126 0;
#X connect 7 0 5 3;
#X connect 7 0 5 2;
#X connect 7 0 5 1;
#X connect 8 0 9 1;
#X connect 8 0 9 3;
#X connect 8 0 143 0;
#X connect 9 0 13 0;
#X connect 10 0 98 3;
#X connect 11 0 1 0;
#X connect 12 0 11 0;
#X connect 13 0 49 0;
#X connect 13 1 11 1;
#X connect 14 0 49 0;
#X connect 15 0 55 0;
#X connect 16 0 6 0;
#X connect 17 0 16 1;
#X connect 17 0 47 0;
#X connect 18 0 147 0;
#X connect 19 0 132 0;
#X connect 20 0 24 0;
#X connect 20 0 25 0;
#X connect 20 0 35 0;
#X connect 21 0 66 0;
#X connect 22 0 3 0;
#X connect 22 0 62 0;
#X connect 23 0 15 0;
#X connect 24 0 0 2;
#X connect 25 0 0 3;
#X connect 26 0 158 0;
#X connect 29 0 27 1;
#X connect 29 0 27 2;
#X connect 29 0 27 3;
#X connect 30 0 31 0;
#X connect 31 0 29 0;
#X connect 31 0 34 0;
#X connect 31 0 39 0;
#X connect 31 1 32 0;
#X connect 31 1 33 0;
#X connect 31 1 37 0;
#X connect 32 0 27 1;
#X connect 32 0 27 2;
#X connect 33 0 28 1;
#X connect 34 0 28 1;
#X connect 35 0 21 0;
#X connect 36 0 18 0;
#X connect 36 0 26 0;
#X connect 37 0 38 1;
#X connect 38 0 5 0;
#X connect 39 0 38 1;
#X connect 40 0 41 0;
#X connect 41 0 30 0;
#X connect 42 0 30 0;
#X connect 43 0 42 1;
#X connect 44 0 8 0;
#X connect 45 0 98 2;
#X connect 46 0 98 1;
#X connect 47 0 48 0;
#X connect 48 0 7 0;
#X connect 49 0 12 0;
#X connect 51 0 52 0;
#X connect 52 0 50 2;
#X connect 52 0 28 2;
#X connect 53 0 28 0;
#X connect 54 0 53 1;
#X connect 55 0 14 0;
#X connect 56 0 63 0;
#X connect 57 0 58 0;
#X connect 58 0 28 0;
#X connect 59 0 60 0;
#X connect 60 0 57 0;
#X connect 61 0 81 0;
#X connect 62 0 58 0;
#X connect 63 0 81 0;
#X connect 63 0 154 1;
#X connect 64 0 10 0;
#X connect 65 0 64 0;
#X connect 66 0 4 0;
#X connect 67 0 76 0;
#X connect 67 0 77 0;
#X connect 68 0 67 0;
#X connect 69 0 68 1;
#X connect 71 0 72 0;
#X connect 72 0 73 0;
#X connect 72 1 74 0;
#X connect 72 1 77 0;
#X connect 72 2 75 0;
#X connect 72 2 77 0;
#X connect 73 0 69 0;
#X connect 74 0 69 0;
#X connect 75 0 69 0;
#X connect 76 0 78 0;
#X connect 77 0 70 1;
#X connect 78 0 70 1;
#X connect 79 0 157 1;
#X connect 79 0 157 4;
#X connect 80 0 157 3;
#X connect 80 0 157 2;
#X connect 81 0 98 0;
#X connect 82 0 44 0;
#X connect 83 0 84 0;
#X connect 83 0 23 0;
#X connect 83 0 82 0;
#X connect 84 0 71 0;
#X connect 85 0 86 0;
#X connect 86 0 125 0;
#X connect 86 1 87 0;
#X connect 87 0 81 0;
#X connect 88 0 157 1;
#X connect 89 0 157 3;
#X connect 89 0 157 2;
#X connect 92 0 2 0;
#X connect 92 0 4 0;
#X connect 93 0 94 0;
#X connect 93 0 95 0;
#X connect 94 0 154 1;
#X connect 95 0 96 0;
#X connect 96 0 97 0;
#X connect 96 1 92 0;
#X connect 97 0 154 1;
#X connect 98 0 9 0;
#X connect 99 0 28 0;
#X connect 100 0 101 0;
#X connect 101 0 63 0;
#X connect 102 0 51 0;
#X connect 102 0 19 0;
#X connect 102 0 20 0;
#X connect 103 0 0 0;
#X connect 103 1 68 0;
#X connect 104 0 65 0;
#X connect 105 0 157 1;
#X connect 106 0 157 2;
#X connect 107 0 157 4;
#X connect 108 0 157 4;
#X connect 109 0 105 0;
#X connect 109 0 106 0;
#X connect 109 0 107 0;
#X connect 109 0 108 0;
#X connect 110 0 79 0;
#X connect 110 0 80 0;
#X connect 111 0 88 0;
#X connect 111 0 89 0;
#X connect 113 0 157 1;
#X connect 114 0 113 0;
#X connect 114 0 165 0;
#X connect 114 0 164 0;
#X connect 114 0 166 0;
#X connect 116 0 98 2;
#X connect 117 0 118 0;
#X connect 118 0 119 0;
#X connect 118 0 120 0;
#X connect 119 0 118 1;
#X connect 120 0 124 0;
#X connect 121 0 102 0;
#X connect 121 0 117 0;
#X connect 122 0 121 0;
#X connect 122 0 134 0;
#X connect 122 0 139 0;
#X connect 122 1 131 0;
#X connect 123 0 133 0;
#X connect 123 0 154 0;
#X connect 124 0 42 0;
#X connect 125 0 81 0;
#X connect 126 0 7 0;
#X connect 127 0 128 0;
#X connect 128 0 130 0;
#X connect 129 0 127 0;
#X connect 130 0 21 1;
#X connect 130 0 19 1;
#X connect 131 0 130 1;
#X connect 132 0 2 0;
#X connect 133 0 129 0;
#X connect 134 0 133 0;
#X connect 135 0 27 0;
#X connect 136 0 135 1;
#X connect 137 0 152 0;
#X connect 137 0 153 0;
#X connect 138 0 135 3;
#X connect 139 0 137 0;
#X connect 140 0 139 1;
#X connect 140 0 142 0;
#X connect 141 0 135 2;
#X connect 141 0 135 3;
#X connect 142 0 145 0;
#X connect 142 0 141 0;
#X connect 142 0 144 0;
#X connect 143 0 9 2;
#X connect 145 0 135 1;
#X connect 147 0 38 0;
#X connect 148 0 157 4;
#X connect 149 0 151 0;
#X connect 149 0 148 0;
#X connect 151 0 157 1;
#X connect 151 0 157 2;
#X connect 151 0 157 3;
#X connect 152 0 138 0;
#X connect 153 0 136 0;
#X connect 154 0 122 0;
#X connect 155 0 158 1;
#X connect 155 0 158 2;
#X connect 155 0 158 3;
#X connect 156 0 157 2;
#X connect 157 0 50 0;
#X connect 158 0 135 0;
#X connect 161 0 159 0;
#X connect 161 0 162 0;
#X connect 161 1 160 0;
#X connect 162 0 134 0;
#X connect 162 0 139 0;
#X connect 164 0 157 3;
#X connect 165 0 157 2;
#X connect 166 0 157 4;
#X coords 0 -1 1 1 156 202 1 100 100;
