#N canvas 316 196 1122 703 10;
#X obj 351 450 gemlist;
#X obj 351 422 until;
#X obj 351 378 t b a;
#X msg 418 383 set \$1;
#X msg 351 400 4;
#X obj 418 366 int;
#X obj 418 309 loadbang;
#X obj 418 347 nbx 5 14 -1e+37 1e+37 0 0 empty empty empty 0 -8 0 10
-257985 -1 -1 4 256;
#X obj 631 452 b;
#X obj 485 313 random 5;
#X obj 610 437 bng 15 250 50 0 empty empty empty 17 7 0 10 -257985
-1 -1;
#X obj 351 150 spigot;
#X obj 512 -83 inlet;
#X obj 485 330 + 1;
#X msg 381 330 1;
#X obj 351 703 rotateXYZ 0 0 0;
#X obj 351 -14 alpha;
#X obj 351 57 translateXYZ 0 0 -4;
#X obj 512 100 t a;
#X obj -63 1342 loadbang;
#X obj 454 736 s rotationCUBE;
#X obj 351 111 rotateXYZ;
#X floatatom 391 92 5 0 0 0 - - -, f 5;
#X obj 497 686 - 5;
#X obj 385 594 random 20;
#X obj 385 634 - 10;
#X obj 487 575 random 360;
#X obj 487 594 - 180;
#X obj 548 643 random 180;
#X obj 514 274 scaleXYZ;
#X obj 549 239 f;
#X obj 599 -83 inlet;
#X obj 209 904 loadbang;
#X msg 418 326 1;
#X obj 673 481 bng 15 250 50 0 empty empty empty 17 7 0 10 -262144
-1 -1;
#X floatatom 107 904 5 0 0 0 - - -, f 5;
#X msg 107 923 width \$1;
#X msg 209 923 draw line \, width 3;
#X obj 351 1339 gemlist;
#X obj 351 1311 until;
#X obj 351 1267 t b a;
#X msg 351 1289 3;
#X obj 351 1144 separator;
#X msg 249 1414 draw fill;
#X obj 351 1431 rectangle 2 1;
#X obj 351 1170 rotateXYZ 0 90 0;
#X obj 351 1238 translateXYZ 0 0 4;
#X obj 351 1409 colorRGB 1 1 1 1;
#X obj 351 1364 translateXYZ 0 -2 0;
#X obj 351 1387 rotateXYZ 30 0 0;
#X obj 351 1116 spigot;
#X floatatom 508 951 5 0 0 0 - - -, f 5;
#X msg 473 1012 1;
#X obj 508 1041 pipe 100;
#X msg 508 1064 0;
#X obj 508 995 t b;
#X obj 378 858 r rreedd;
#X obj 432 898 r bblluuee;
#X obj 405 878 r ggrreenn;
#X obj 614 830 bng 50 250 50 0 empty empty empty 17 7 0 10 -4034 -1
-1;
#X msg 614 880 1;
#X msg 645 880 0;
#X obj 532 830 bng 50 250 50 0 empty empty empty 17 7 0 10 -258113
-1 -1;
#X msg 532 880 1;
#X msg 567 880 0;
#X obj 699 830 bng 50 250 50 0 empty empty empty 17 7 0 10 -4160 -1
-1;
#X msg 734 880 1;
#X msg 699 880 0;
#X obj 854 830 bng 50 250 50 0 empty empty empty 17 7 0 10 -1 -1 -1
;
#X msg 784 880 0;
#X obj 532 897 s rreedd;
#X obj 614 897 s ggrreenn;
#X obj 699 897 s bblluuee;
#X obj 351 918 colorRGB 0 0 0 1;
#X obj 923 863 loadbang;
#X obj 599 83 electribe_note 0;
#X obj 508 970 electribe_note;
#X obj 473 1101 tgl 15 0 empty empty empty 17 7 0 10 -262144 -1 -1
0 1;
#X obj 609 1150 translateXYZ 1 0 0;
#X floatatom 684 1071 5 0 0 0 - - -, f 5;
#X obj 599 156 t b b;
#X obj 549 214 line_;
#X obj 439 670 line_;
#X obj 351 29 pix_texture;
#X obj 425 -83 r SCREEN;
#X floatatom 493 786 5 0 0 0 - - -, f 5;
#X obj 165 509 scaleXYZ;
#X floatatom 200 483 5 0 0 0 - - -, f 5;
#X obj 351 -83 r cube;
#X obj 351 820 cube 1;
#X obj 351 940 cube 1;
#X obj 780 830 bng 50 250 50 0 empty empty empty 17 7 0 10 -262144
-1 -1;
#X msg 439 651 \$1 3000;
#X obj 190 73 gemframebuffer;
#X msg 551 189 1.06 \, 0.9 3000;
#X obj 351 797 colorRGB 1 1 1 1;
#X connect 0 0 29 0;
#X connect 1 0 0 0;
#X connect 2 0 4 0;
#X connect 2 1 0 1;
#X connect 3 0 4 0;
#X connect 4 0 1 0;
#X connect 5 0 3 0;
#X connect 6 0 33 0;
#X connect 7 0 5 0;
#X connect 8 0 24 0;
#X connect 8 0 26 0;
#X connect 8 0 28 0;
#X connect 8 0 34 0;
#X connect 9 0 13 0;
#X connect 10 0 8 0;
#X connect 11 0 2 0;
#X connect 12 0 18 0;
#X connect 13 0 7 0;
#X connect 14 0 7 0;
#X connect 15 0 95 0;
#X connect 16 0 83 0;
#X connect 17 0 21 0;
#X connect 18 0 11 1;
#X connect 21 0 11 0;
#X connect 22 0 21 2;
#X connect 23 0 15 3;
#X connect 24 0 25 0;
#X connect 25 0 15 1;
#X connect 26 0 27 0;
#X connect 27 0 92 0;
#X connect 28 0 23 0;
#X connect 29 0 15 0;
#X connect 30 0 29 1;
#X connect 30 0 29 2;
#X connect 30 0 29 3;
#X connect 31 0 75 0;
#X connect 32 0 37 0;
#X connect 33 0 7 0;
#X connect 35 0 36 0;
#X connect 36 0 90 0;
#X connect 37 0 90 0;
#X connect 38 0 48 0;
#X connect 39 0 38 0;
#X connect 40 0 41 0;
#X connect 40 1 38 1;
#X connect 41 0 39 0;
#X connect 42 0 45 0;
#X connect 43 0 44 0;
#X connect 46 0 40 0;
#X connect 47 0 44 0;
#X connect 48 0 49 0;
#X connect 49 0 47 0;
#X connect 50 0 42 0;
#X connect 51 0 76 0;
#X connect 52 0 77 0;
#X connect 53 0 54 0;
#X connect 54 0 77 0;
#X connect 55 0 53 0;
#X connect 55 0 52 0;
#X connect 56 0 73 1;
#X connect 57 0 73 3;
#X connect 58 0 73 2;
#X connect 59 0 60 0;
#X connect 59 0 61 0;
#X connect 60 0 71 0;
#X connect 61 0 70 0;
#X connect 61 0 72 0;
#X connect 62 0 63 0;
#X connect 62 0 64 0;
#X connect 63 0 70 0;
#X connect 64 0 71 0;
#X connect 64 0 72 0;
#X connect 65 0 66 0;
#X connect 65 0 67 0;
#X connect 66 0 72 0;
#X connect 67 0 71 0;
#X connect 67 0 70 0;
#X connect 68 0 69 0;
#X connect 69 0 72 0;
#X connect 69 0 71 0;
#X connect 69 0 70 0;
#X connect 73 0 90 0;
#X connect 74 0 69 0;
#X connect 75 0 80 0;
#X connect 76 0 55 0;
#X connect 79 0 78 3;
#X connect 80 0 94 0;
#X connect 80 1 8 0;
#X connect 81 0 30 0;
#X connect 82 0 15 2;
#X connect 82 0 20 0;
#X connect 83 0 17 0;
#X connect 84 0 83 1;
#X connect 85 0 95 4;
#X connect 87 0 86 3;
#X connect 87 0 86 2;
#X connect 87 0 86 1;
#X connect 88 0 16 0;
#X connect 89 0 73 0;
#X connect 91 0 63 0;
#X connect 91 0 60 0;
#X connect 91 0 66 0;
#X connect 92 0 82 0;
#X connect 94 0 81 0;
#X connect 95 0 89 0;
