#N canvas 323 148 1119 751 10;
#X obj 271 -112 gemwin;
#X msg 271 -133 create \, 1;
#X obj 115 286 GEMglLineStipple;
#X obj 115 -25 GEMglEnable;
#X obj 189 -48 GLdefine GL_LINE_STIPPLE;
#X msg 189 -70 bang;
#X obj 144 222 GLdefine \$1;
#X obj 233 269 GLdefine \$1;
#X obj 115 371 GEMglLineWidth;
#X msg 171 314 bang;
#X obj 196 347 GLdefine \$1;
#X floatatom 215 318 5 0 0 0 - - -, f 5;
#X floatatom 161 189 5 0 0 0 - - -, f 5;
#X floatatom 259 213 5 0 0 0 - - -, f 5;
#X obj 115 132 GEMglPolygonMode;
#X obj 177 75 GLdefine GL_FRONT_AND_BACK;
#X obj 224 97 GLdefine GL_LINE;
#X obj 224 49 loadbang;
#X msg 169 5 bang;
#X obj 169 25 GLdefine GL_FRONT_AND_BACK;
#X obj 406 60 bng 15 250 50 0 empty empty empty 17 7 0 10 -262144 -1
-1;
#X msg -68 527 smooth 0;
#X obj -69 506 loadbang;
#X msg 42 469 texture \$1;
#X obj 42 449 hradio 15 1 0 3 empty empty empty 0 -6 0 8 -262144 -1
-1 0;
#X msg 10 527 material \$1;
#X obj 10 507 tgl 15 0 empty empty empty 0 -6 0 8 -262144 -1 -1 0 1
;
#X obj 138 422 openpanel;
#X msg 138 502 open \$1;
#X obj 138 401 bng 15 250 50 0 empty empty empty 17 7 0 10 -262144
-1 -1;
#X msg 168 447 set \$1;
#X msg 168 467 /home/rep/LIVE/2015_VJSet/001.Cube/dodecahedron.obj
;
#X msg 210 527 open /home/rep/LIVE/Medias/001.Deco3D/boid.obj;
#X obj 115 544 model /home/rep/LIVE/Medias/001.Deco3D/boid.obj;
#X obj 115 696 GEMglPolygonMode;
#X obj 169 650 GLdefine GL_FRONT_AND_BACK;
#X obj 216 624 loadbang;
#X obj 224 672 GLdefine GL_FILL;
#X obj 169 610 bng 15 250 50 0 empty empty empty 17 7 0 10 -262144
-1 -1;
#X obj 115 -105 rotateXYZ;
#X obj 155 -175 line;
#X obj 155 -237 tgl 15 0 empty empty empty 17 7 0 10 -262144 -1 -1
1 1;
#X obj 155 -218 metro 10000;
#X msg 155 -196 0 \, 360 10000;
#X obj 351 322 hradio 15 1 0 8 empty empty empty 0 -8 0 10 -262144
-1 -1 5;
#X msg 237 429 /home/rep/LIVE/2015_VJSet/001.Cube/dodecahedron.obj
;
#X obj 115 -349 r dodecahedre;
#X obj 115 -308 translateXYZ 0 0 -4;
#X connect 1 0 0 0;
#X connect 2 0 8 0;
#X connect 3 0 14 0;
#X connect 4 0 3 1;
#X connect 5 0 4 0;
#X connect 6 0 2 1;
#X connect 7 0 2 2;
#X connect 8 0 33 0;
#X connect 9 0 10 0;
#X connect 10 0 8 1;
#X connect 11 0 10 0;
#X connect 12 0 6 0;
#X connect 13 0 7 0;
#X connect 14 0 2 0;
#X connect 15 0 14 1;
#X connect 16 0 14 2;
#X connect 17 0 15 0;
#X connect 17 0 16 0;
#X connect 18 0 19 0;
#X connect 19 0 14 1;
#X connect 20 0 16 0;
#X connect 20 0 15 0;
#X connect 21 0 33 0;
#X connect 22 0 21 0;
#X connect 23 0 33 0;
#X connect 24 0 23 0;
#X connect 25 0 33 0;
#X connect 26 0 25 0;
#X connect 27 0 28 0;
#X connect 27 0 30 0;
#X connect 28 0 33 0;
#X connect 29 0 27 0;
#X connect 30 0 31 0;
#X connect 32 0 33 0;
#X connect 33 0 34 0;
#X connect 35 0 34 1;
#X connect 36 0 35 0;
#X connect 36 0 37 0;
#X connect 37 0 34 2;
#X connect 38 0 35 0;
#X connect 38 0 37 0;
#X connect 39 0 3 0;
#X connect 40 0 39 2;
#X connect 41 0 42 0;
#X connect 42 0 43 0;
#X connect 43 0 40 0;
#X connect 44 0 11 0;
#X connect 45 0 28 0;
#X connect 46 0 47 0;
#X connect 47 0 39 0;
