#N canvas 38 148 1517 673 10;
#X obj 187 346 s FeedBackParam1;
#X obj 187 366 s FeedBackParam2;
#X obj 187 386 s FeedBackParam3;
#X obj 187 406 s FeedBackParam4;
#X obj 187 426 s FeedBackParam5;
#X obj 190 117 hsl 128 12 -300 -200 0 0 empty empty z -2 5 0 10 -262144
-162280 -1 6001 1;
#X obj 190 153 hsl 128 12 -0.05 0.05 0 0 empty empty empty -2 -8 0
10 -262144 -1 -1 11500 1;
#X obj 190 165 hsl 128 12 -0.5 0.5 0 0 empty empty empty -2 -8 0 10
-262144 -1 -1 4966 1;
#X obj 190 177 hsl 128 12 -2 2 0 0 empty empty empty -2 -8 0 10 -262144
-1 -1 8800 1;
#X obj 190 189 hsl 128 12 0 1 0 0 empty empty empty -2 -8 0 10 -262144
-1 -1 12700 1;
#X floatatom 1131 -253 5 0 0 0 - - -, f 5;
#X obj 175 117 bng 12 250 50 0 empty empty empty 17 7 0 10 -257985
-1 -1;
#X msg 1113 -76 print;
#X obj 918 232 glsl_program;
#X obj 992 128 pack 0 0;
#X msg 1151 30 print;
#X obj 1013 108 t b f;
#X obj 1013 63 change;
#X obj 991 -40 change;
#X msg 992 168 link \$1 \$2;
#X msg 1112 215 print;
#X floatatom 1013 89 2 0 0 0 ID - -, f 2;
#X floatatom 991 -17 2 0 0 0 ID - -, f 2;
#X obj 1010 189 print linking;
#X obj 919 43 glsl_fragment;
#X obj 919 -59 glsl_vertex;
#X obj 896 -96 bng 15 250 50 0 empty empty empty 0 -6 0 8 -260097 -1
-1;
#X msg 841 73 K1 \$1;
#X msg 829 127 K3 \$1;
#X msg 829 215 D1 \$1;
#X obj 727 43 hsl 100 15 -0.05 0.05 0 0 empty empty empty -2 -8 0 10
-258113 -1 -1 8965 0;
#X obj 727 112 hsl 100 15 -0.5 0.5 0 0 empty empty empty -2 -8 0 10
-258113 -1 -1 3871 0;
#X obj 727 200 hsl 100 15 -2 2 0 0 empty empty empty -2 -8 0 10 -258113
-1 -1 6860 0;
#X floatatom 1044 -186 5 0 0 0 - - -, f 5;
#X msg 694 183 0;
#X msg 929 -81 open feedback.vert;
#X msg 930 13 open feedback.frag;
#X obj 724 78 r op3.freq;
#X obj 724 166 r op4.freq;
#X obj 724 95 expr $f1 / 50;
#X obj 724 183 expr $f1 * (-1);
#X msg 829 272 alpha \$1;
#X obj 726 257 hsl 100 15 0 1 0 0 empty empty GLSLAlpha -2 -8 0 10
-258113 -1 -1 9900 1;
#X floatatom 952 -161 5 0 0 0 - - -, f 5;
#X floatatom 997 -160 5 0 0 0 - - -, f 5;
#X text 865 -98 3 ->;
#X obj 919 -223 alpha;
#X msg 952 -186 0;
#X obj 952 331 t b b;
#X obj 952 312 loadbang;
#X msg 987 355 1024 768;
#X obj 615 345 t b a;
#X obj 918 392 pix_snap2tex;
#X msg 686 345 quality 1;
#X obj 992 594 rectangle 5.33333 4;
#X obj 1168 419 unpack f f;
#X obj 1168 442 /;
#X obj 1054 494 *;
#X obj 1119 370 b;
#X obj 1047 -257 loadbang;
#X obj 576 14 r FeedBackParam2;
#X obj 553 50 r FeedBackParam3;
#X obj 533 94 r FeedBackParam4;
#X obj 526 158 r FeedBackParam5;
#X obj 818 415 pack f f;
#X floatatom 817 391 5 0 0 0 - - -, f 5;
#X floatatom 861 390 5 0 0 0 - - -, f 5;
#X obj 1119 329 r resolution;
#X msg 952 354 0 0;
#X obj 919 -128 translateXYZ 0 0 0;
#X msg 997 -287 0;
#X obj 748 -129 loadbang;
#X msg 997 -186 0;
#X obj 1094 -189 f;
#X floatatom 1551 -88 5 0 0 0 - - -, f 5;
#X floatatom 1464 -21 5 0 0 0 - - -, f 5;
#X floatatom 1372 4 5 0 0 0 - - -, f 5;
#X floatatom 1417 5 5 0 0 0 - - -, f 5;
#X obj 1339 -58 alpha;
#X msg 1372 -21 0;
#X obj 1373 111 t b b;
#X obj 1373 92 loadbang;
#X msg 1408 135 1024 768;
#X obj 1206 118 t b a;
#X obj 1339 172 pix_snap2tex;
#X msg 1277 118 quality 1;
#X obj 1206 101 gemhead 99;
#X obj 1455 251 rectangle 5.33333 4;
#X obj 1545 120 unpack f f;
#X obj 1545 143 /;
#X obj 1503 193 *;
#X obj 1503 129 b;
#X msg 1503 155 32;
#X obj 1467 -92 loadbang;
#X obj 1503 88 r resolution;
#X msg 1373 134 0 0;
#X obj 1339 37 translateXYZ 0 0 0;
#X msg 1417 -122 0;
#X msg 1417 -21 0;
#X obj 1551 -64 f;
#X obj 1323 -183 GEMglLoadIdentity;
#X obj 1272 -269 tgl 15 0 empty empty empty 17 7 0 10 -262144 -1 -1
0 1;
#X obj 354 -125 sel 1;
#X msg 354 -108 0;
#X obj 404 -125 sel 1;
#X msg 404 -108 0;
#X obj 1348 -151 colorRGB 1 1 1 1;
#X floatatom 1482 -236 5 0 0 0 - - -, f 5;
#X obj 190 129 hsl 128 12 -10 10 0 0 empty empty x -2 5 0 10 -262144
-162280 -1 6350 1;
#X obj 190 141 hsl 128 12 -10 10 0 0 empty empty y -2 5 0 10 -262144
-162280 -1 6350 1;
#X msg 147 114 0;
#X obj 193 -35 t b b;
#X msg 302 251 1;
#X obj 175 129 bng 12 250 50 0 empty empty empty 17 7 0 10 -241307
-1 -1;
#X msg 145 142 0;
#X obj 1063 17 f;
#X obj 1093 61 f;
#X obj 1084 -47 bng 15 250 50 0 empty empty empty 17 7 0 10 -262144
-1 -1;
#X obj 1084 -25 t b b;
#X obj 1105 103 t b f;
#X obj 1163 -164 t b b b;
#X obj 1171 -199 bng 15 250 50 0 empty empty empty 17 7 0 10 -262144
-1 -1;
#X obj 1304 -406 f;
#X obj 828 478 sphere 50 50;
#X obj 364 212 env~;
#X floatatom 414 239 5 0 0 0 - - -, f 5;
#X obj 363 258 expr ( $f1 - 50 ) / 4;
#X obj 362 168 adc~;
#X floatatom 1138 551 5 0 0 0 - - -, f 5;
#X floatatom 1180 483 5 0 0 0 - - -, f 5;
#X obj 311 -183 r feedbackonoff;
#X obj 911 459 rotateXYZ 0 0 0;
#X floatatom 977 429 5 0 0 0 - - -, f 5;
#X obj 405 -66 tgl 15 0 empty empty empty 17 7 0 10 -262144 -1 -1 0
1;
#X obj 339 100 tgl 15 0 empty empty empty 17 7 0 10 -262144 -1 -1 1
1;
#X msg 617 584 1920 1080;
#X obj 517 629 s resolution;
#X floatatom 1183 537 5 0 0 0 - - -, f 5;
#X msg 1119 396 256;
#X obj 919 -278 gemhead a;
#X obj 1323 -225 gemhead 50 a;
#X msg 552 523 1280 1024;
#X obj 616 328 gemhead -99 a;
#X floatatom -73 350 5 0 0 0 - - -, f 5;
#X msg -73 369 set \$1;
#X msg -73 391 -252.748;
#X msg 19 42 -252.441;
#X obj 19 19 loadbang;
#X obj 127 182 bng 15 250 50 0 empty empty empty 17 7 0 10 -1 -1 -1
;
#X msg 588 550 1280 720;
#X obj 530 426 t a;
#X msg 517 498 1360 768;
#X floatatom 144 4 5 0 0 0 - - -, f 5;
#X msg 124 -69 251;
#X connect 5 0 0 0;
#X connect 5 0 73 0;
#X connect 5 0 99 0;
#X connect 5 0 143 0;
#X connect 5 0 152 0;
#X connect 6 0 1 0;
#X connect 7 0 2 0;
#X connect 8 0 3 0;
#X connect 9 0 4 0;
#X connect 9 0 122 0;
#X connect 10 0 73 0;
#X connect 11 0 110 0;
#X connect 11 0 111 0;
#X connect 11 0 146 0;
#X connect 12 0 25 0;
#X connect 13 0 52 0;
#X connect 14 0 19 0;
#X connect 15 0 24 0;
#X connect 16 0 14 0;
#X connect 16 1 14 1;
#X connect 17 0 21 0;
#X connect 18 0 22 0;
#X connect 19 0 13 0;
#X connect 19 0 23 0;
#X connect 20 0 13 0;
#X connect 21 0 16 0;
#X connect 22 0 14 0;
#X connect 24 0 13 0;
#X connect 24 1 17 0;
#X connect 24 1 116 1;
#X connect 25 0 24 0;
#X connect 25 1 18 0;
#X connect 25 1 115 1;
#X connect 26 0 35 0;
#X connect 26 0 36 0;
#X connect 27 0 13 0;
#X connect 28 0 13 0;
#X connect 29 0 13 0;
#X connect 30 0 27 0;
#X connect 31 0 28 0;
#X connect 32 0 29 0;
#X connect 33 0 69 3;
#X connect 34 0 32 0;
#X connect 35 0 25 0;
#X connect 36 0 24 0;
#X connect 37 0 39 0;
#X connect 38 0 40 0;
#X connect 39 0 31 0;
#X connect 40 0 32 0;
#X connect 41 0 13 0;
#X connect 42 0 41 0;
#X connect 43 0 69 1;
#X connect 44 0 69 2;
#X connect 46 0 69 0;
#X connect 47 0 43 0;
#X connect 48 0 68 0;
#X connect 48 1 50 0;
#X connect 49 0 48 0;
#X connect 50 0 52 2;
#X connect 51 0 52 0;
#X connect 52 0 131 0;
#X connect 53 0 52 0;
#X connect 55 0 56 0;
#X connect 55 1 56 1;
#X connect 56 0 57 1;
#X connect 56 0 129 0;
#X connect 57 0 54 1;
#X connect 57 0 128 0;
#X connect 58 0 138 0;
#X connect 59 0 47 0;
#X connect 59 0 72 0;
#X connect 60 0 30 0;
#X connect 61 0 31 0;
#X connect 62 0 32 0;
#X connect 63 0 42 0;
#X connect 64 0 52 1;
#X connect 65 0 64 0;
#X connect 66 0 64 1;
#X connect 67 0 52 2;
#X connect 67 0 55 0;
#X connect 67 0 58 0;
#X connect 68 0 52 1;
#X connect 69 0 25 0;
#X connect 70 0 44 0;
#X connect 71 0 26 0;
#X connect 72 0 44 0;
#X connect 73 0 69 3;
#X connect 74 0 99 0;
#X connect 75 0 96 3;
#X connect 76 0 96 1;
#X connect 77 0 96 2;
#X connect 78 0 96 0;
#X connect 79 0 76 0;
#X connect 80 0 95 0;
#X connect 80 1 82 0;
#X connect 81 0 80 0;
#X connect 82 0 84 2;
#X connect 83 0 84 0;
#X connect 84 0 87 0;
#X connect 85 0 84 0;
#X connect 86 0 83 0;
#X connect 88 0 89 0;
#X connect 88 1 89 1;
#X connect 89 0 90 1;
#X connect 90 0 87 1;
#X connect 91 0 92 0;
#X connect 92 0 90 0;
#X connect 92 0 87 2;
#X connect 93 0 79 0;
#X connect 93 0 98 0;
#X connect 94 0 84 2;
#X connect 94 0 88 0;
#X connect 94 0 91 0;
#X connect 95 0 84 1;
#X connect 96 0 84 0;
#X connect 97 0 77 0;
#X connect 98 0 77 0;
#X connect 99 0 96 3;
#X connect 100 0 106 0;
#X connect 101 0 86 0;
#X connect 101 0 140 0;
#X connect 102 0 103 0;
#X connect 103 0 134 0;
#X connect 104 0 105 0;
#X connect 105 0 133 0;
#X connect 106 0 78 0;
#X connect 107 0 106 4;
#X connect 108 0 69 1;
#X connect 109 0 69 2;
#X connect 110 0 108 0;
#X connect 110 0 109 0;
#X connect 111 0 112 0;
#X connect 111 1 26 0;
#X connect 112 0 9 0;
#X connect 113 0 114 0;
#X connect 114 0 108 0;
#X connect 114 0 109 0;
#X connect 115 0 14 0;
#X connect 116 0 119 0;
#X connect 117 0 118 0;
#X connect 118 0 116 0;
#X connect 118 1 115 0;
#X connect 119 0 14 0;
#X connect 119 1 14 1;
#X connect 120 0 117 0;
#X connect 120 1 36 0;
#X connect 120 2 35 0;
#X connect 121 0 120 0;
#X connect 122 0 107 0;
#X connect 124 0 125 0;
#X connect 130 0 134 0;
#X connect 131 0 54 0;
#X connect 132 0 131 3;
#X connect 133 0 101 0;
#X connect 133 0 102 0;
#X connect 134 0 104 0;
#X connect 134 0 139 0;
#X connect 134 0 142 0;
#X connect 135 0 136 0;
#X connect 138 0 57 0;
#X connect 138 0 54 2;
#X connect 139 0 46 0;
#X connect 140 0 100 0;
#X connect 141 0 136 0;
#X connect 142 0 51 0;
#X connect 143 0 144 0;
#X connect 144 0 145 0;
#X connect 146 0 5 0;
#X connect 147 0 146 0;
#X connect 148 0 146 0;
#X connect 148 0 150 0;
#X connect 149 0 136 0;
#X connect 150 0 151 0;
#X connect 151 0 136 0;
#X coords 0 -1 1 1 256 128 1 100 100;
