#N canvas 79 226 1520 673 10;
#X obj 187 346 s FeedBackParam1;
#X obj 187 366 s FeedBackParam2;
#X obj 187 386 s FeedBackParam3;
#X obj 187 406 s FeedBackParam4;
#X obj 187 426 s FeedBackParam5;
#X obj 190 117 hsl 128 12 -300 -200 0 0 empty empty z -2 5 0 10 -262144
-162280 -1 12700 1;
#X obj 190 153 hsl 128 12 -0.05 0.05 0 0 empty empty empty -2 -8 0
10 -262144 -1 -1 0 1;
#X obj 190 165 hsl 128 12 -0.5 0.5 0 0 empty empty empty -2 -8 0 10
-262144 -1 -1 0 1;
#X obj 190 177 hsl 128 12 -2 2 0 0 empty empty empty -2 -8 0 10 -262144
-1 -1 0 1;
#X obj 190 189 hsl 128 12 0 1 0 0 empty empty empty -2 -8 0 10 -262144
-1 -1 0 1;
#X floatatom 1131 -253 5 0 0 0 - - -;
#X msg 171 67 -28;
#X obj 152 32 loadbang;
#X obj 175 117 bng 12 250 50 0 empty empty empty 17 7 0 10 -257985
-1 -1;
#X msg 1113 -76 print;
#X obj 918 232 glsl_program;
#X obj 992 128 pack 0 0;
#X msg 1151 30 print;
#X obj 1013 108 t b f;
#X obj 1013 63 change;
#X obj 991 -40 change;
#X msg 992 168 link \$1 \$2;
#X msg 1112 215 print;
#X floatatom 1013 89 2 0 0 0 ID - -;
#X floatatom 991 -17 2 0 0 0 ID - -;
#X obj 1010 189 print linking;
#X obj 919 43 glsl_fragment;
#X obj 919 -59 glsl_vertex;
#X obj 896 -96 bng 15 250 50 0 empty empty empty 0 -6 0 8 -260097 -1
-1;
#X msg 829 58 K1 \$1;
#X msg 829 127 K3 \$1;
#X msg 829 215 D1 \$1;
#X obj 727 43 hsl 100 15 -0.05 0.05 0 0 empty empty empty -2 -8 0 10
-258113 -1 -1 0 0;
#X obj 727 112 hsl 100 15 -0.5 0.5 0 0 empty empty empty -2 -8 0 10
-258113 -1 -1 0 0;
#X obj 727 200 hsl 100 15 -2 2 0 0 empty empty empty -2 -8 0 10 -258113
-1 -1 0 0;
#X msg 724 -95 0;
#X floatatom 1044 -186 5 0 0 0 - - -;
#X msg 688 26 0;
#X msg 687 95 0;
#X msg 694 183 0;
#X msg 929 -81 open feedback.vert;
#X msg 930 13 open feedback.frag;
#X obj 737 -14 r op2.freq;
#X obj 724 78 r op3.freq;
#X obj 724 166 r op4.freq;
#X obj 724 95 expr $f1 / 50;
#X obj 724 183 expr $f1 * (-1);
#X msg 829 272 alpha \$1;
#X obj 726 257 hsl 100 15 0 1 0 0 empty empty GLSLAlpha -2 -8 0 10
-258113 -1 -1 0 1;
#X floatatom 952 -161 5 0 0 0 - - -;
#X floatatom 997 -160 5 0 0 0 - - -;
#X text 865 -98 3 ->;
#X obj 919 -223 alpha;
#X obj 617 223 r volumeNOISE;
#X obj 617 240 / 2;
#X obj 737 3 range 0.01 1000 -0.05 0.05 0;
#X msg 952 -186 0;
#X obj 952 331 t b b;
#X obj 952 312 loadbang;
#X msg 987 355 1024 768;
#X obj 785 338 t b a;
#X obj 918 392 pix_snap2tex;
#X msg 856 338 quality 1;
#X obj 992 594 rectangle 5.33333 4;
#X obj 1168 419 unpack f f;
#X obj 1168 442 /;
#X obj 1054 494 *;
#X obj 1119 370 b;
#X obj 1047 -257 loadbang;
#X obj 551 -4 r FeedBackParam1;
#X obj 551 16 r FeedBackParam2;
#X obj 551 36 r FeedBackParam3;
#X obj 551 56 r FeedBackParam4;
#X obj 551 76 r FeedBackParam5;
#X msg 570 164 1;
#X obj 361 -210 s resolution;
#X obj 818 415 pack f f;
#X floatatom 817 391 5 0 0 0 - - -;
#X floatatom 861 390 5 0 0 0 - - -;
#X obj 1119 329 r resolution;
#X msg 952 354 0 0;
#X obj 919 -128 translateXYZ 0 0 0;
#X msg 299 -246 1024 768;
#X obj 187 201 hradio 17 1 0 5 empty empty empty 0 -8 0 10 -228856
-1 -1 2;
#X obj 305 -304 route 0 1 2 3;
#X msg 997 -287 0;
#X obj 313 -92 r gamepad_button_4;
#X obj 748 -129 loadbang;
#X msg 361 -246 1024 512;
#X msg 494 -246 2400 600;
#X msg 426 -246 1200 300;
#X msg 997 -186 0;
#X obj 313 -67 gamepad_maintient 1000;
#X obj 1094 -189 f;
#X obj 55 -20 loadbang;
#X msg -232 24 2;
#X obj 797 -250 GEMglLoadIdentity;
#X msg 848 -406 set 1e+10;
#X floatatom 1551 -88 5 0 0 0 - - -;
#X floatatom 1464 -21 5 0 0 0 - - -;
#X floatatom 1372 4 5 0 0 0 - - -;
#X floatatom 1417 5 5 0 0 0 - - -;
#X obj 1339 -58 alpha;
#X msg 1372 -21 0;
#X obj 1373 111 t b b;
#X obj 1373 92 loadbang;
#X msg 1408 135 1024 768;
#X obj 1206 118 t b a;
#X obj 1339 172 pix_snap2tex;
#X msg 1277 118 quality 1;
#X obj 1206 101 gemhead 99;
#X obj 1455 251 rectangle 5.33333 4;
#X obj 1545 120 unpack f f;
#X obj 1545 143 /;
#X obj 1503 193 *;
#X obj 1503 129 b;
#X msg 1503 155 32;
#X obj 1467 -92 loadbang;
#X obj 1503 88 r resolution;
#X msg 1373 134 0 0;
#X obj 1339 37 translateXYZ 0 0 0;
#X msg 1417 -122 0;
#X msg 1417 -21 0;
#X obj 1551 -64 f;
#X obj 1323 -183 GEMglLoadIdentity;
#X obj 1272 -269 tgl 15 0 empty empty empty 17 7 0 10 -262144 -1 -1
0 1;
#X obj 422 117 sel 1;
#X msg 422 134 0;
#X obj 472 117 sel 1;
#X msg 472 134 0;
#X msg 716 361 set \$1;
#X floatatom 645 318 5 0 0 0 - - -;
#X obj 641 404 * 1000;
#X obj 1348 -151 colorRGB 1 1 1 1;
#X floatatom 1482 -236 5 0 0 0 - - -;
#X obj 628 -204 hsl 128 12 -10 10 0 0 empty empty x -2 5 0 10 -262144
-162280 -1 0 1;
#X obj 190 141 hsl 128 12 -10 10 0 0 empty empty y -2 5 0 10 -262144
-162280 -1 0 1;
#X msg 147 114 0;
#X obj 168 -130 t b b;
#X obj 193 -35 t b b;
#X msg 206 16 1;
#X obj 175 129 bng 12 250 50 0 empty empty empty 17 7 0 10 -241307
-1 -1;
#X msg 145 142 0;
#X obj 951 -333 gemhead -10000;
#X obj 1063 17 f;
#X obj 1093 61 f;
#X obj 1084 -47 bng 15 250 50 0 empty empty empty 17 7 0 10 -262144
-1 -1;
#X obj 1084 -25 t b b;
#X obj 1105 103 t b f;
#X obj 1163 -164 t b b b;
#X obj 1171 -199 bng 15 250 50 0 empty empty empty 17 7 0 10 -262144
-1 -1;
#X obj 1304 -406 f;
#X obj 828 478 sphere 50 50;
#X obj 592 -218 r gamepad_joystick_2_X;
#X obj 602 -278 r gamepad_joystick_2_Y;
#X obj 602 -261 - 127;
#X obj 592 -201 - 127;
#X obj 539 -316 / 64;
#X obj 592 -179 / 64;
#X msg 937 -379 set 40;
#X obj 364 212 env~;
#X msg 187 -228 320 240;
#X floatatom 414 239 5 0 0 0 - - -;
#X obj 363 258 expr ( $f1 - 50 ) / 4;
#X obj 362 168 adc~;
#X msg 574 348 set \$1;
#X floatatom 584 303 5 0 0 0 - - -;
#X floatatom 1138 551 5 0 0 0 - - -;
#X floatatom 1180 483 5 0 0 0 - - -;
#X obj -50 359 ctlin 8;
#X obj -132 297 ctlin 7;
#X obj -216 253 ctlin 6;
#X obj -324 207 ctlin 5;
#X obj -324 224 expr ($f1 / 1270 ) - 0.05;
#X obj -50 376 / 127;
#X obj -216 270 expr ($f1 / 127 ) - 0.5;
#X obj -132 314 expr ($f1 / 127 * 4 ) - 2;
#X obj 348 66 r feedbackonoff;
#X obj 911 459 rotateXYZ 0 0 0;
#X floatatom 977 429 5 0 0 0 - - -;
#X obj -160 -139 ctlin 4;
#X floatatom -159 -59 5 0 0 0 - - -;
#X floatatom -43 -51 5 0 0 0 - - -;
#X obj 48 -178 ctlout 5 1;
#X obj -254 326 ctlout 5 3;
#X obj -192 365 ctlout 5 4;
#X obj -318 286 ctlout 6 1;
#X floatatom -265 -265 5 0 0 0 - - -;
#X floatatom -58 -212 5 0 0 0 - - -;
#X floatatom -4 -214 5 0 0 0 - - -;
#X obj -265 -297 ctlin 4 1;
#X floatatom -136 -268 5 0 0 0 - - -;
#X obj -136 -300 ctlin;
#X floatatom -264 -204 5 0 0 0 - - -;
#X obj -264 -236 ctlin 5 1;
#X floatatom -265 -142 5 0 0 0 - - -;
#X obj -265 -174 ctlin 6 1;
#X floatatom -266 -80 5 0 0 0 - - -;
#X obj -266 -112 ctlin 7 1;
#X obj -350 -96 ctlout 77 1;
#X obj -348 -157 ctlout 76 1;
#X obj -348 -219 ctlout 77 1;
#X obj -346 -280 ctlout 76 1;
#X obj 326 35 pad_midi 39;
#X msg 176 -282 1440 900;
#X obj 68 -98 random 40;
#X obj 58 -55 * -1;
#X obj 83 -126 b;
#X obj 107 -158 gemhead;
#X floatatom -112 -40 5 0 0 0 - - -;
#X obj -157 -105 expr ( $f1 / 127 * 20 ) - 30;
#X obj 305 -189 bng 15 250 50 0 empty empty empty 17 7 0 10 -262144
-1 -1;
#X floatatom 348 -121 5 0 0 0 - - -;
#X obj 363 -183 t b b;
#X obj 479 -140 line;
#X msg 508 -179 \$1 \, 0 50;
#X obj 313 -158 random 60;
#X obj 316 -131 - 30;
#X floatatom -314 8 5 0 0 0 - - -;
#X obj -314 -13 _Utiles/pocketdial 105;
#X obj -259 83 / 100;
#X msg -236 155 0;
#X msg 439 -319 1600 450;
#X msg 138 -241 1600 450;
#X obj 270 76 tgl 15 0 empty empty empty 17 7 0 10 -262144 -1 -1 0
1;
#X obj 339 100 tgl 15 0 empty empty empty 17 7 0 10 -262144 -1 -1 0
1;
#X msg 1285 302 1920 1080;
#X obj 1278 324 s resolution;
#X floatatom 1183 537 5 0 0 0 - - -;
#X msg 1119 396 256;
#X obj 786 321 gemhead -99 a;
#X obj 920 -278 gemhead a;
#X obj 1323 -225 gemhead 50 a;
#X msg 1346 423 1280 768;
#X floatatom 41 104 5 0 0 0 - - -;
#X floatatom 108 19 5 0 0 0 - - -;
#X floatatom 395 -598 5 0 0 0 - - -;
#X floatatom 395 -548 5 0 0 0 - - -;
#X floatatom 395 -498 5 0 0 0 - - -;
#X floatatom 395 -448 5 0 0 0 - - -;
#X obj 758 -615 / 1.27;
#X floatatom 812 -490 5 0 0 0 - - -;
#X obj 785 -576 - 300;
#X msg 17 -304 0.05 -0.05;
#X msg 90 -236 0.1;
#X obj 130 -321 / 1270;
#X obj 123 -290 - 0.05;
#X msg 1227 402 1360 768;
#X msg 1423 367 640 480;
#X msg 1374 484 680 480;
#X obj 363 -362 t f;
#X obj 518 238 f;
#X obj 392 -408 inlet;
#X obj 395 -621 ../100.Input/lpd8/lpd8_ctl 1;
#X obj 395 -571 ../100.Input/lpd8/lpd8_ctl 2;
#X obj 395 -521 ../100.Input/lpd8/lpd8_ctl 3;
#X obj 395 -471 ../100.Input/lpd8/lpd8_ctl 4;
#X connect 5 0 0 0;
#X connect 5 0 93 0;
#X connect 5 0 123 0;
#X connect 5 0 182 0;
#X connect 5 0 234 0;
#X connect 5 0 235 0;
#X connect 6 0 1 0;
#X connect 7 0 2 0;
#X connect 8 0 3 0;
#X connect 9 0 4 0;
#X connect 9 0 151 0;
#X connect 10 0 93 0;
#X connect 11 0 5 0;
#X connect 12 0 11 0;
#X connect 13 0 11 0;
#X connect 13 0 137 0;
#X connect 13 0 139 0;
#X connect 14 0 27 0;
#X connect 15 0 61 0;
#X connect 16 0 21 0;
#X connect 17 0 26 0;
#X connect 18 0 16 0;
#X connect 18 1 16 1;
#X connect 19 0 23 0;
#X connect 20 0 24 0;
#X connect 21 0 15 0;
#X connect 21 0 25 0;
#X connect 22 0 15 0;
#X connect 23 0 18 0;
#X connect 24 0 16 0;
#X connect 26 0 15 0;
#X connect 26 1 19 0;
#X connect 26 1 145 1;
#X connect 27 0 26 0;
#X connect 27 1 20 0;
#X connect 27 1 144 1;
#X connect 28 0 40 0;
#X connect 28 0 41 0;
#X connect 29 0 15 0;
#X connect 30 0 15 0;
#X connect 31 0 15 0;
#X connect 32 0 29 0;
#X connect 33 0 30 0;
#X connect 34 0 31 0;
#X connect 35 0 32 0;
#X connect 35 0 33 0;
#X connect 35 0 34 0;
#X connect 36 0 81 3;
#X connect 37 0 32 0;
#X connect 38 0 33 0;
#X connect 39 0 34 0;
#X connect 40 0 27 0;
#X connect 41 0 26 0;
#X connect 42 0 55 0;
#X connect 43 0 45 0;
#X connect 44 0 46 0;
#X connect 45 0 33 0;
#X connect 46 0 34 0;
#X connect 47 0 15 0;
#X connect 48 0 47 0;
#X connect 49 0 81 1;
#X connect 50 0 81 2;
#X connect 52 0 81 0;
#X connect 53 0 54 0;
#X connect 54 0 48 0;
#X connect 55 0 32 0;
#X connect 56 0 49 0;
#X connect 57 0 80 0;
#X connect 57 1 59 0;
#X connect 58 0 57 0;
#X connect 59 0 61 2;
#X connect 60 0 61 0;
#X connect 61 0 178 0;
#X connect 62 0 61 0;
#X connect 64 0 65 0;
#X connect 64 1 65 1;
#X connect 65 0 66 1;
#X connect 65 0 168 0;
#X connect 66 0 63 1;
#X connect 66 0 167 0;
#X connect 67 0 229 0;
#X connect 68 0 56 0;
#X connect 68 0 91 0;
#X connect 70 0 32 0;
#X connect 71 0 33 0;
#X connect 72 0 34 0;
#X connect 73 0 48 0;
#X connect 74 0 32 0;
#X connect 74 0 48 0;
#X connect 76 0 61 1;
#X connect 77 0 76 0;
#X connect 78 0 76 1;
#X connect 79 0 61 2;
#X connect 79 0 64 0;
#X connect 79 0 67 0;
#X connect 80 0 61 1;
#X connect 81 0 27 0;
#X connect 82 0 75 0;
#X connect 83 0 84 0;
#X connect 84 0 82 0;
#X connect 84 1 88 0;
#X connect 84 1 85 0;
#X connect 84 2 90 0;
#X connect 84 3 89 0;
#X connect 85 0 50 0;
#X connect 86 0 92 0;
#X connect 87 0 28 0;
#X connect 88 0 75 0;
#X connect 89 0 75 0;
#X connect 90 0 75 0;
#X connect 91 0 50 0;
#X connect 92 0 224 0;
#X connect 93 0 81 3;
#X connect 94 0 95 0;
#X connect 95 0 83 0;
#X connect 97 0 231 0;
#X connect 98 0 123 0;
#X connect 99 0 120 3;
#X connect 100 0 120 1;
#X connect 101 0 120 2;
#X connect 102 0 120 0;
#X connect 103 0 100 0;
#X connect 104 0 119 0;
#X connect 104 1 106 0;
#X connect 105 0 104 0;
#X connect 106 0 108 2;
#X connect 107 0 108 0;
#X connect 108 0 111 0;
#X connect 109 0 108 0;
#X connect 110 0 107 0;
#X connect 112 0 113 0;
#X connect 112 1 113 1;
#X connect 113 0 114 1;
#X connect 114 0 111 1;
#X connect 115 0 116 0;
#X connect 116 0 114 0;
#X connect 116 0 111 2;
#X connect 117 0 103 0;
#X connect 117 0 122 0;
#X connect 118 0 108 2;
#X connect 118 0 112 0;
#X connect 118 0 115 0;
#X connect 119 0 108 1;
#X connect 120 0 108 0;
#X connect 121 0 101 0;
#X connect 122 0 101 0;
#X connect 123 0 120 3;
#X connect 124 0 133 0;
#X connect 125 0 110 0;
#X connect 125 0 232 0;
#X connect 126 0 127 0;
#X connect 127 0 225 0;
#X connect 128 0 129 0;
#X connect 129 0 224 0;
#X connect 130 0 230 0;
#X connect 131 0 132 0;
#X connect 132 0 130 0;
#X connect 133 0 102 0;
#X connect 134 0 133 4;
#X connect 135 0 81 1;
#X connect 136 0 81 2;
#X connect 137 0 135 0;
#X connect 137 0 136 0;
#X connect 139 0 140 0;
#X connect 139 1 28 0;
#X connect 140 0 9 0;
#X connect 141 0 142 0;
#X connect 142 0 135 0;
#X connect 142 0 136 0;
#X connect 144 0 16 0;
#X connect 145 0 148 0;
#X connect 146 0 147 0;
#X connect 147 0 145 0;
#X connect 147 1 144 0;
#X connect 148 0 16 0;
#X connect 148 1 16 1;
#X connect 149 0 146 0;
#X connect 149 1 41 0;
#X connect 149 2 40 0;
#X connect 150 0 149 0;
#X connect 151 0 134 0;
#X connect 153 0 156 0;
#X connect 154 0 155 0;
#X connect 155 0 157 0;
#X connect 156 0 158 0;
#X connect 157 0 136 0;
#X connect 158 0 135 0;
#X connect 159 0 231 0;
#X connect 160 0 162 0;
#X connect 161 0 75 0;
#X connect 165 0 230 0;
#X connect 166 0 165 0;
#X connect 169 0 174 0;
#X connect 170 0 176 0;
#X connect 171 0 175 0;
#X connect 172 0 173 0;
#X connect 173 0 6 0;
#X connect 174 0 9 0;
#X connect 175 0 7 0;
#X connect 176 0 8 0;
#X connect 177 0 225 0;
#X connect 178 0 63 0;
#X connect 179 0 178 3;
#X connect 180 0 210 0;
#X connect 190 0 187 0;
#X connect 190 0 202 0;
#X connect 192 0 191 0;
#X connect 192 1 188 0;
#X connect 192 2 189 0;
#X connect 194 0 193 0;
#X connect 194 0 201 0;
#X connect 196 0 195 0;
#X connect 196 0 200 0;
#X connect 198 0 197 0;
#X connect 198 0 199 0;
#X connect 203 0 225 0;
#X connect 204 0 75 0;
#X connect 205 0 206 0;
#X connect 207 0 205 0;
#X connect 208 0 207 0;
#X connect 210 0 181 0;
#X connect 210 0 5 0;
#X connect 210 0 209 0;
#X connect 211 0 216 0;
#X connect 214 0 135 0;
#X connect 215 0 214 0;
#X connect 216 0 217 0;
#X connect 217 0 212 0;
#X connect 217 0 215 0;
#X connect 218 0 220 0;
#X connect 219 0 218 0;
#X connect 221 0 135 0;
#X connect 222 0 75 0;
#X connect 223 0 75 0;
#X connect 224 0 125 0;
#X connect 224 0 126 0;
#X connect 225 0 128 0;
#X connect 225 0 230 0;
#X connect 225 0 231 0;
#X connect 226 0 227 0;
#X connect 229 0 66 0;
#X connect 229 0 63 2;
#X connect 230 0 60 0;
#X connect 231 0 52 0;
#X connect 232 0 124 0;
#X connect 236 0 240 0;
#X connect 237 0 245 0;
#X connect 240 0 242 0;
#X connect 241 0 5 0;
#X connect 242 0 241 0;
#X connect 245 0 246 0;
#X connect 246 0 6 0;
#X connect 247 0 227 0;
#X connect 248 0 227 0;
#X connect 249 0 227 0;
#X connect 250 0 251 0;
#X connect 251 0 48 0;
#X connect 252 0 250 0;
#X connect 253 0 236 0;
#X connect 254 0 237 0;
#X connect 255 0 238 0;
#X connect 256 0 239 0;
#X coords 0 -1 1 1 256 128 1 100 100;
