#N canvas 640 156 746 562 10;
#X obj 315 49 FrameBufferFeedback;
#X msg 179 134 create \, 1;
#X msg 83 134 0 \, destroy;
#X obj 136 50 inlet;
#X obj 136 83 sel 0 1;
#X msg 280 227 dimen \$1 \$2;
#X msg 280 210 600 600;
#X msg 344 210 1200 600;
#X msg 417 210 1920 1080;
#X msg 497 210 400 300;
#X msg 461 397 color 1 1 1;
#X msg 470 358 perspec -1 1 -1 1 1 300;
#X obj 280 375 t a;
#X obj 146 229 t a;
#X msg 352 330 offset \$1 \$2;
#X msg 352 311 1600 0;
#X msg 326 278 border \$1;
#X obj 326 261 tgl 15 0 empty empty empty 17 7 0 10 -262144 -1 -1 1
1;
#X obj 420 414 t a;
#X msg 552 397 color 0 0 0;
#X msg 418 469 frame 50;
#X obj 603 261 bng 15 250 50 0 empty empty empty 17 7 0 10 -257985
-1 -1;
#X msg 420 258 border 0;
#X obj 318 112 bng 15 250 50 0 empty empty empty 17 7 0 10 -258113
-1 -1;
#X obj 309 146 del 30;
#X msg 566 210 1024 768;
#X obj 421 113 metro 5000;
#X obj 410 87 tgl 15 0 empty empty empty 17 7 0 10 -262144 -1 -1 0
1;
#X msg 73 280 lighting \$1;
#X obj 71 250 tgl 15 0 empty empty empty 17 7 0 10 -262144 -1 -1 0
1;
#X obj 84 435 world_light;
#X obj 80 357 gemhead;
#X obj 579 51 inlet;
#X obj 411 152 t b b;
#X msg 570 147 dimen 1024 768;
#X obj 683 186 t a;
#X msg 586 116 dimen 512 384;
#X obj 31 188 loadbang;
#X msg 47 221 0;
#X msg 564 20 dimen 1280 1024;
#X msg 298 449 title b;
#X obj 289 394 b;
#X msg 281 424 title a;
#X obj 199 479 abstractions/gemwin 20 a;
#X obj 203 522 abstractions/gemwin 20 b;
#X connect 1 0 13 0;
#X connect 2 0 13 0;
#X connect 3 0 4 0;
#X connect 4 0 2 0;
#X connect 4 1 1 0;
#X connect 5 0 12 0;
#X connect 6 0 5 0;
#X connect 7 0 5 0;
#X connect 8 0 5 0;
#X connect 10 0 18 0;
#X connect 11 0 12 0;
#X connect 12 0 41 0;
#X connect 12 0 43 0;
#X connect 12 0 44 0;
#X connect 13 0 43 0;
#X connect 14 0 12 0;
#X connect 15 0 14 0;
#X connect 16 0 12 0;
#X connect 17 0 16 0;
#X connect 18 0 12 0;
#X connect 19 0 18 0;
#X connect 20 0 12 0;
#X connect 21 0 15 0;
#X connect 21 0 11 0;
#X connect 21 0 19 0;
#X connect 21 0 20 0;
#X connect 21 0 36 0;
#X connect 22 0 12 0;
#X connect 23 0 24 0;
#X connect 23 0 2 0;
#X connect 24 0 1 0;
#X connect 25 0 5 0;
#X connect 26 0 23 0;
#X connect 27 0 26 0;
#X connect 28 0 13 0;
#X connect 29 0 28 0;
#X connect 31 0 30 0;
#X connect 32 0 23 0;
#X connect 34 0 35 0;
#X connect 35 0 12 0;
#X connect 36 0 35 0;
#X connect 37 0 38 0;
#X connect 38 0 29 0;
#X connect 39 0 12 0;
#X connect 40 0 44 0;
#X connect 41 0 42 0;
#X connect 41 0 40 0;
#X connect 42 0 43 0;
