#N canvas 375 118 1049 781 10;
#X obj 536 135 gemframebuffer;
#X obj 536 186 t a a a a a a a a;
#X obj 51 310 send cube;
#X obj 552 727 pix_texture;
#N canvas 1 111 1107 633 params 0;
#X msg 615 106 dimen 320 240;
#X msg 602 87 dimen 1024 1024;
#X msg 751 74 color 0 0 0 0;
#X msg 549 232 rectangle \$1;
#X obj 549 214 tgl 15 0 empty empty empty 0 -6 0 8 -262144 -1 -1 0
1;
#X msg 509 101 type FLOAT;
#X msg 531 187 texunit \$1;
#X msg 495 62 type BYTE;
#X msg 503 82 type INT;
#X msg 658 179 format YUV;
#X msg 649 158 format RGB;
#X msg 668 200 format RGBA;
#X msg 680 220 format RGB32;
#X floatatom 531 167 5 0 0 0 - - -, f 5;
#X obj 762 93 loadbang;
#X obj 649 245 t a;
#X obj 585 124 t a;
#X obj 751 135 t a;
#X obj 495 130 t a;
#X obj 495 154 t a;
#X msg 585 30 perspec -1 1 -1 1 1 20;
#X msg 593 56 perspec -1 1 -1 1 3 75;
#X text 752 29 default;
#X obj 477 298 t a;
#X obj 475 325 outlet;
#X msg 762 114 color 0 0 0 0;
#X connect 0 0 16 0;
#X connect 1 0 16 0;
#X connect 2 0 17 0;
#X connect 3 0 23 0;
#X connect 4 0 3 0;
#X connect 5 0 18 0;
#X connect 6 0 23 0;
#X connect 7 0 18 0;
#X connect 8 0 18 0;
#X connect 9 0 15 0;
#X connect 10 0 15 0;
#X connect 11 0 15 0;
#X connect 12 0 15 0;
#X connect 13 0 6 0;
#X connect 14 0 25 0;
#X connect 15 0 23 0;
#X connect 16 0 19 0;
#X connect 17 0 19 0;
#X connect 18 0 19 0;
#X connect 19 0 23 0;
#X connect 20 0 16 0;
#X connect 21 0 16 0;
#X connect 23 0 24 0;
#X connect 25 0 17 0;
#X restore 727 17 pd params;
#X obj 699 118 t a;
#X obj 51 293 separator;
#N canvas 321 150 1045 700 demux 0;
#X obj 159 53 inlet;
#X obj 268 51 inlet;
#X obj 268 251 spigot;
#X obj 159 255 spigot;
#X obj 366 48 inlet;
#X obj 366 250 spigot;
#X obj 759 46 inlet;
#X obj 759 78 t a;
#X obj 307 223 r zaza1;
#X obj 405 220 r zaza2;
#X obj 198 226 r zaza0;
#X obj 366 323 t a;
#X obj 366 366 outlet;
#X obj 471 48 inlet;
#X obj 471 250 spigot;
#X obj 510 220 r zaza3;
#X obj 577 46 inlet;
#X obj 577 248 spigot;
#X obj 616 218 r zaza4;
#X obj 759 115 sel 0 1 2 3 4;
#X msg 758 580 \; zaza0 1 \; zaza1 0 \; zaza2 0 \; zaza3 0 \; zaza4
0 \;;
#X msg 776 485 \; zaza0 0 \; zaza1 1 \; zaza2 0 \; zaza3 0 \; zaza4
0 \;;
#X msg 811 313 \; zaza0 0 \; zaza1 0 \; zaza2 0 \; zaza3 1 \; zaza4
0 \;;
#X msg 829 226 \; zaza0 0 \; zaza1 0 \; zaza2 0 \; zaza3 0 \; zaza4
1 \;;
#X msg 794 400 \; zaza0 0 \; zaza1 0 \; zaza2 1 \; zaza3 0 \; zaza4
0 \;;
#X connect 0 0 3 0;
#X connect 1 0 2 0;
#X connect 2 0 11 0;
#X connect 3 0 11 0;
#X connect 4 0 5 0;
#X connect 5 0 11 0;
#X connect 6 0 7 0;
#X connect 7 0 19 0;
#X connect 8 0 2 1;
#X connect 9 0 5 1;
#X connect 10 0 3 1;
#X connect 11 0 12 0;
#X connect 13 0 14 0;
#X connect 14 0 11 0;
#X connect 15 0 14 1;
#X connect 16 0 17 0;
#X connect 17 0 11 0;
#X connect 18 0 17 1;
#X connect 19 0 20 0;
#X connect 19 1 21 0;
#X connect 19 2 24 0;
#X connect 19 3 22 0;
#X connect 19 4 23 0;
#X restore 788 710 pd demux;
#X floatatom 788 732 5 0 0 0 - - -, f 5;
#X obj 552 1051 pix_coordinate;
#X obj 712 688 tgl 15 0 empty empty empty 17 7 0 10 -257985 -1 -1 0
1;
#X msg 408 1230 640 512 \, 320 256 \, 160 128 \, 80 64 \, 40 32 \,
20 16 \, 10 8 \, 5 4;
#X msg 619 703 quality \$1;
#X msg 616 667 rectangle 0;
#X obj 674 874 expr 1 - $f1;
#X obj 707 790 loadbang;
#X obj 647 848 t f f;
#X msg 647 1023 \$1 \$3 \$2 \$3 \$2 \$4 \$1 \$4;
#X obj 728 967 expr 1 - $f1;
#X obj 807 893 loadbang;
#X obj 701 918 / 10;
#X obj 701 941 t f f;
#X obj 647 990 pack f f f f;
#X obj 598 913 b;
#X obj 647 806 nbx 5 14 -1e+37 1e+37 0 0 empty empty empty 0 -8 0 10
-257985 -1 -1 0 256;
#X obj 701 899 nbx 5 14 -1e+37 1e+37 0 0 empty empty empty 0 -8 0 10
-257985 -1 -1 0 256;
#X msg 797 924 0;
#X obj 647 825 / 100;
#X obj 797 794 bng 15 250 50 0 empty empty proportions_ecran 17 7 0
10 -257985 -1 -1;
#X obj 797 770 loadbang;
#X obj 569 383 send masque;
#X obj 569 366 separator;
#X obj 585 327 separator;
#X obj 585 344 send fildefer;
#X msg 886 101 color 1 1 1;
#X obj 602 304 s dodecahedre;
#X obj 602 287 separator;
#X obj 795 42 loadbang;
#X obj 618 247 separator;
#X obj 618 264 s clap;
#X msg 742 76 format RGBA \, color 0 0 0 0;
#X msg 676 -2 dimen 80 64;
#X obj 676 -178 inlet;
#X obj 676 -40 sel 0 1;
#X msg 712 669 0;
#X obj 55 742 pix_texture;
#X floatatom 199 510 5 0 0 0 - - -, f 5;
#X obj 55 1053 pix_coordinate;
#X floatatom 123 596 5 0 0 0 - - -, f 5;
#X obj 55 494 alpha;
#X floatatom 89 581 5 0 0 0 - - -, f 5;
#X obj 55 629 rotateXYZ 0 0 0;
#X obj 186 693 tgl 15 0 empty empty empty 17 7 0 10 -257985 -1 -1 0
1;
#X obj 186 655 loadbang;
#X msg 92 708 quality \$1;
#X msg 89 672 rectangle 0;
#X obj 177 876 expr 1 - $f1;
#X obj 210 792 loadbang;
#X obj 150 850 t f f;
#X msg 150 1025 \$1 \$3 \$2 \$3 \$2 \$4 \$1 \$4;
#X obj 231 969 expr 1 - $f1;
#X obj 310 895 loadbang;
#X obj 204 920 / 10;
#X obj 204 943 t f f;
#X obj 150 992 pack f f f f;
#X obj 101 915 b;
#X obj 150 808 nbx 5 14 -1e+37 1e+37 0 0 empty empty empty 0 -8 0 10
-257985 -1 -1 0 256;
#X obj 204 901 nbx 5 14 -1e+37 1e+37 0 0 empty empty empty 0 -8 0 10
-257985 -1 -1 0 256;
#X msg 300 926 0;
#X obj 150 827 / 100;
#X obj 300 796 bng 15 250 50 0 empty empty proportions_ecran 17 7 0
10 -257985 -1 -1;
#X obj 300 774 loadbang;
#X msg 186 674 0;
#X obj 71 360 tgl 15 0 empty empty empty 17 7 0 10 -262144 -1 -1 0
1;
#X obj 51 142 gemframebuffer;
#X obj 51 201 t a a a a a a a a;
#X obj 676 -57 tgl 15 0 empty empty empty 17 7 0 10 -257985 -1 -1 0
1;
#X obj 97 -44 sel 0 1;
#X obj 70 -20 tgl 15 0 empty empty empty 17 7 0 10 -257985 -1 -1 1
1;
#X floatatom 610 811 5 0 0 0 - - -, f 5;
#X obj 70 -182 inlet;
#X floatatom 157 611 5 0 0 0 - - -, f 5;
#X obj 53 1228 gemlist;
#X obj 53 1200 until;
#X obj 53 1156 t b a;
#X floatatom 160 1229 5 0 0 0 - - -, f 5;
#X obj 53 1333 rotateXYZ 0 12 0;
#X msg 53 1178 5;
#X floatatom 125 1315 5 0 0 0 - - -, f 5;
#X obj 53 1278 translateXYZ 0 0 -1;
#X msg 210 833 -0.0081;
#X msg 707 831 -0.0042;
#X obj 146 173 s FB1;
#X obj 631 158 s FB2;
#X msg 732 59 perspec -1 1 -1 1 1 400;
#X msg 766 101 dimen 1024 768;
#X obj 55 559 scaleXYZ;
#X obj 338 511 r XFB;
#X obj 397 511 r YFB;
#X obj 175 1132 cube 160;
#X msg 116 42 format RGBA \, color 0 0 0 0 \, dimen 80 64 \, perspec
-1 1 -1 1 1 400;
#X msg 122 88 format RGBA \, color 0 0 0 0 \, dimen 160 128 \, perspec
-1 1 -1 1 1 400;
#X msg 407 1258 1920 1080 \, 960 540 \, 480 270 \, 240 135;
#X msg 281 837 0;
#X msg 785 838 0;
#N canvas 321 150 1045 700 demux 0;
#X obj 159 53 inlet;
#X obj 268 51 inlet;
#X obj 268 251 spigot;
#X obj 159 255 spigot;
#X obj 366 48 inlet;
#X obj 366 250 spigot;
#X obj 759 46 inlet;
#X obj 759 78 t a;
#X obj 307 223 r zaza1;
#X obj 405 220 r zaza2;
#X obj 198 226 r zaza0;
#X obj 366 323 t a;
#X obj 366 366 outlet;
#X obj 471 48 inlet;
#X obj 471 250 spigot;
#X obj 510 220 r zaza3;
#X obj 577 46 inlet;
#X obj 577 248 spigot;
#X obj 616 218 r zaza4;
#X obj 759 115 sel 0 1 2 3 4;
#X msg 758 580 \; zaza0 1 \; zaza1 0 \; zaza2 0 \; zaza3 0 \; zaza4
0 \;;
#X msg 776 485 \; zaza0 0 \; zaza1 1 \; zaza2 0 \; zaza3 0 \; zaza4
0 \;;
#X msg 811 313 \; zaza0 0 \; zaza1 0 \; zaza2 0 \; zaza3 1 \; zaza4
0 \;;
#X msg 829 226 \; zaza0 0 \; zaza1 0 \; zaza2 0 \; zaza3 0 \; zaza4
1 \;;
#X msg 794 400 \; zaza0 0 \; zaza1 0 \; zaza2 1 \; zaza3 0 \; zaza4
0 \;;
#X connect 0 0 3 0;
#X connect 1 0 2 0;
#X connect 2 0 11 0;
#X connect 3 0 11 0;
#X connect 4 0 5 0;
#X connect 5 0 11 0;
#X connect 6 0 7 0;
#X connect 7 0 19 0;
#X connect 8 0 2 1;
#X connect 9 0 5 1;
#X connect 10 0 3 1;
#X connect 11 0 12 0;
#X connect 13 0 14 0;
#X connect 14 0 11 0;
#X connect 15 0 14 1;
#X connect 16 0 17 0;
#X connect 17 0 11 0;
#X connect 18 0 17 1;
#X connect 19 0 20 0;
#X connect 19 1 21 0;
#X connect 19 2 24 0;
#X connect 19 3 22 0;
#X connect 19 4 23 0;
#X restore 268 725 pd demux;
#X floatatom 268 747 5 0 0 0 - - -, f 5;
#X obj 316 670 ~/Patchs/captureFB/Blur/blurrs;
#X obj 268 627 r FB1;
#X obj 321 700 r FLOU1;
#X obj 841 685 r FLOU2;
#X obj 491 -77 tgl 15 0 empty empty empty 17 7 0 10 -262144 -1 -1 0
1;
#X obj 130 -136 tgl 15 0 empty empty empty 17 7 0 10 -262144 -1 -1
0 1;
#X obj 68 250 separator;
#X obj 68 267 send rayurejaune;
#X obj 552 405 separator;
#X obj 552 422 s montagnes;
#X obj 51 -76 gemhead a;
#X obj 50 397 gemhead 100 a;
#X obj 536 -72 gemhead 60 a;
#X floatatom 249 1061 5 0 0 0 - - -, f 5;
#X obj 55 1094 rectangle 19 19;
#X obj 552 1104 rectangle 19 19;
#X obj 401 456 alpha;
#X obj 395 359 tgl 15 0 empty empty empty 17 7 0 10 -262144 -1 -1 0
1;
#X obj 69 429 gemhead 100 b;
#X msg 93 12 format RGBA \, color 0 0 0 0 \, dimen 1280 1024 \, perspec
-1 1 -1 1 1 400;
#X msg 699 -21 dimen 1280 1024;
#X msg 250 -22 color 1 1 1;
#X floatatom 667 1071 5 0 0 0 - - -, f 5;
#X obj 55 528 translateXYZ 0 0 -7;
#X obj 209 224 separator;
#X obj 209 241 s worldgovernance;
#X obj 380 389 gemhead 90 a;
#X obj 418 422 gemhead 90 b;
#X floatatom 696 510 5 0 0 0 - - -, f 5;
#X floatatom 620 597 5 0 0 0 - - -, f 5;
#X floatatom 586 580 5 0 0 0 - - -, f 5;
#X obj 552 614 rotateXYZ 0 0 0;
#X obj 712 650 loadbang;
#X obj 836 655 ~/Patchs/captureFB/Blur/blurrs;
#X obj 788 612 r FB2;
#X obj 552 559 scaleXYZ;
#X obj 406 542 r SCALEFB;
#X obj 552 528 translateXYZ 0 0 -7;
#X connect 0 0 1 0;
#X connect 0 1 93 0;
#X connect 1 1 115 0;
#X connect 1 2 31 0;
#X connect 1 3 32 0;
#X connect 1 4 36 0;
#X connect 1 5 38 0;
#X connect 3 0 9 0;
#X connect 4 0 5 0;
#X connect 5 0 0 0;
#X connect 6 0 2 0;
#X connect 7 0 8 0;
#X connect 7 0 3 1;
#X connect 9 0 122 0;
#X connect 10 0 12 0;
#X connect 12 0 3 0;
#X connect 13 0 3 0;
#X connect 14 0 22 1;
#X connect 15 0 91 0;
#X connect 16 0 22 0;
#X connect 16 1 14 0;
#X connect 17 0 9 1;
#X connect 18 0 22 3;
#X connect 19 0 26 0;
#X connect 20 0 21 0;
#X connect 21 0 22 2;
#X connect 21 1 18 0;
#X connect 22 0 17 0;
#X connect 23 0 22 0;
#X connect 24 0 27 0;
#X connect 25 0 20 0;
#X connect 25 0 23 0;
#X connect 26 0 21 0;
#X connect 27 0 16 0;
#X connect 27 0 79 0;
#X connect 28 0 91 0;
#X connect 28 0 26 0;
#X connect 29 0 28 0;
#X connect 31 0 30 0;
#X connect 32 0 33 0;
#X connect 34 0 5 0;
#X connect 36 0 35 0;
#X connect 37 0 40 0;
#X connect 37 0 94 0;
#X connect 37 0 95 0;
#X connect 38 0 39 0;
#X connect 40 0 5 0;
#X connect 41 0 5 0;
#X connect 42 0 76 0;
#X connect 43 0 41 0;
#X connect 43 1 127 0;
#X connect 44 0 10 0;
#X connect 45 0 47 0;
#X connect 46 0 130 3;
#X connect 47 0 121 0;
#X connect 48 0 51 2;
#X connect 49 0 130 0;
#X connect 50 0 51 1;
#X connect 51 0 45 0;
#X connect 52 0 54 0;
#X connect 53 0 72 0;
#X connect 53 0 55 0;
#X connect 54 0 45 0;
#X connect 55 0 45 0;
#X connect 56 0 64 1;
#X connect 57 0 90 0;
#X connect 58 0 64 0;
#X connect 58 1 56 0;
#X connect 59 0 47 1;
#X connect 60 0 64 3;
#X connect 61 0 68 0;
#X connect 62 0 63 0;
#X connect 63 0 64 2;
#X connect 63 1 60 0;
#X connect 64 0 59 0;
#X connect 65 0 64 0;
#X connect 66 0 69 0;
#X connect 67 0 62 0;
#X connect 67 0 65 0;
#X connect 68 0 63 0;
#X connect 69 0 58 0;
#X connect 70 0 90 0;
#X connect 70 0 68 0;
#X connect 71 0 70 0;
#X connect 72 0 52 0;
#X connect 73 0 118 0;
#X connect 73 0 125 0;
#X connect 74 0 75 0;
#X connect 74 1 92 0;
#X connect 75 0 6 0;
#X connect 75 1 113 0;
#X connect 75 2 131 0;
#X connect 76 0 43 0;
#X connect 77 0 100 0;
#X connect 77 1 126 0;
#X connect 78 0 77 0;
#X connect 80 0 78 0;
#X connect 81 0 51 3;
#X connect 82 0 89 0;
#X connect 83 0 82 0;
#X connect 84 0 87 0;
#X connect 84 1 82 1;
#X connect 85 0 89 3;
#X connect 87 0 83 0;
#X connect 88 0 86 2;
#X connect 89 0 86 0;
#X connect 90 0 58 0;
#X connect 91 0 16 0;
#X connect 94 0 5 0;
#X connect 95 0 5 0;
#X connect 96 0 51 0;
#X connect 97 0 130 1;
#X connect 97 0 144 1;
#X connect 98 0 130 2;
#X connect 98 0 144 2;
#X connect 100 0 74 0;
#X connect 101 0 74 0;
#X connect 103 0 58 0;
#X connect 104 0 16 0;
#X connect 105 0 106 0;
#X connect 108 0 45 1;
#X connect 109 0 105 5;
#X connect 110 0 7 5;
#X connect 111 0 119 0;
#X connect 112 0 117 0;
#X connect 113 0 114 0;
#X connect 115 0 116 0;
#X connect 117 0 74 0;
#X connect 118 0 49 0;
#X connect 119 0 0 0;
#X connect 120 0 121 2;
#X connect 120 0 121 1;
#X connect 123 0 144 0;
#X connect 124 0 133 0;
#X connect 124 0 134 0;
#X connect 125 0 49 0;
#X connect 126 0 74 0;
#X connect 127 0 5 0;
#X connect 128 0 74 0;
#X connect 129 0 122 2;
#X connect 129 0 122 1;
#X connect 130 0 96 0;
#X connect 131 0 132 0;
#X connect 133 0 123 0;
#X connect 134 0 123 0;
#X connect 135 0 144 3;
#X connect 136 0 138 2;
#X connect 137 0 138 1;
#X connect 138 0 3 0;
#X connect 139 0 44 0;
#X connect 139 0 13 0;
#X connect 140 0 7 1;
#X connect 141 0 140 0;
#X connect 141 0 7 0;
#X connect 142 0 138 0;
#X connect 143 0 142 1;
#X connect 143 0 142 2;
#X connect 143 0 96 1;
#X connect 143 0 96 2;
#X connect 144 0 142 0;
