#N canvas 403 126 1073 772 10;
#X obj 159 -64 inlet;
#X obj 26 145 gemframebuffer;
#X obj 44 380 translateXYZ 0 0 -4;
#X obj 44 450 pix_texture;
#X obj 44 470 square 4;
#X msg 61 429 quality 1 \, rectangle 0;
#X obj 61 408 loadbang;
#X obj 146 596 outlet;
#X obj 26 195 _glsl blur;
#X obj 47 166 bng 15 250 50 0 empty empty empty 17 7 0 10 -262144 -1
-1;
#X obj 248 85 t f f;
#X obj 248 17 r blur;
#X obj 248 133 pack f f;
#X obj 26 85 gemhead \$1;
#X obj 248 112 * \$2;
#X obj 301 111 * \$3;
#X msg 248 153 distance \$1 \$2;
#X obj 42 119 r to_fb;
#X obj 248 39 route float;
#X obj 322 61 unpack f f;
#X obj 441 18 r motion_blur;
#X obj 441 90 pack f f;
#X obj 441 65 * \$2;
#X obj 441 41 unpack f f;
#X obj 508 65 * \$2;
#X obj 700 626 glsl_program;
#X obj 751 415 pack 0 0;
#X obj 776 389 t b f;
#X obj 792 335 change;
#X obj 726 146 change;
#X msg 747 438 link \$1 \$2;
#X floatatom 781 362 2 0 0 0 ID - -;
#X floatatom 726 169 2 0 0 0 ID - -;
#X obj 761 477 print linking;
#X obj 920 -14 bng 15 250 50 0 empty empty empty 0 -6 0 8 -262144 -1
-1;
#X obj 654 127 glsl_vertex;
#X obj 638 316 glsl_fragment;
#X text 934 -22 <- load shader;
#X msg 539 296 print;
#X msg 550 109 print;
#X msg 585 610 print;
#X floatatom 766 676 0 0 0 0 - - -;
#X obj 917 237 t a;
#X msg 671 255 open blur.frag;
#X msg 729 48 open blur.vert;
#X obj 906 -55 loadbang;
#X obj 475 184 openpanel;
#X obj 478 153 bng 15 250 50 0 empty empty empty 17 7 0 10 -262144
-1 -1;
#X msg 479 228 open \$1;
#X connect 0 0 3 1;
#X connect 1 0 35 0;
#X connect 1 1 7 0;
#X connect 2 0 3 0;
#X connect 3 0 4 0;
#X connect 5 0 3 0;
#X connect 6 0 5 0;
#X connect 9 0 8 0;
#X connect 10 0 14 0;
#X connect 10 1 15 0;
#X connect 11 0 18 0;
#X connect 12 0 16 0;
#X connect 13 0 1 0;
#X connect 14 0 12 0;
#X connect 15 0 12 1;
#X connect 16 0 8 1;
#X connect 16 0 25 0;
#X connect 17 0 1 0;
#X connect 18 0 10 0;
#X connect 18 1 19 0;
#X connect 19 0 14 0;
#X connect 19 1 15 0;
#X connect 20 0 23 0;
#X connect 21 0 16 0;
#X connect 22 0 21 0;
#X connect 23 0 22 0;
#X connect 23 1 24 0;
#X connect 24 0 21 1;
#X connect 25 0 2 0;
#X connect 25 1 41 0;
#X connect 26 0 30 0;
#X connect 27 0 26 0;
#X connect 27 1 26 1;
#X connect 28 0 31 0;
#X connect 29 0 32 0;
#X connect 30 0 25 0;
#X connect 30 0 33 0;
#X connect 31 0 27 0;
#X connect 32 0 26 0;
#X connect 34 0 44 0;
#X connect 34 0 42 0;
#X connect 35 0 36 0;
#X connect 35 1 29 0;
#X connect 36 0 25 0;
#X connect 36 1 28 0;
#X connect 38 0 36 0;
#X connect 39 0 35 0;
#X connect 40 0 25 0;
#X connect 42 0 43 0;
#X connect 43 0 36 0;
#X connect 44 0 35 0;
#X connect 45 0 34 0;
#X connect 46 0 48 0;
#X connect 47 0 46 0;
#X connect 48 0 35 0;
