#N canvas 691 178 798 549 10;
#N canvas 1062 160 503 739 14_pass_blur 0;
#X obj 87 102 inlet;
#X obj 87 527 outlet;
#X obj 87 173 single_blur 76 0 64;
#X obj 87 263 single_blur 80 0 16;
#X obj 87 284 single_blur 81 16 0;
#X obj 87 305 single_blur 82 0 8;
#X obj 87 326 single_blur 83 8 0;
#X obj 87 347 single_blur 84 0 4;
#X obj 87 368 single_blur 85 4 0;
#X obj 87 389 single_blur 86 0 2;
#X obj 87 410 single_blur 87 2 0;
#X obj 87 430 single_blur 88 0 1;
#X obj 87 451 single_blur 89 1 0;
#X obj 87 236 single_blur 79 32 0;
#X obj 87 215 single_blur 78 0 32;
#X obj 87 194 single_blur 77 64 0;
#X connect 0 0 2 0;
#X connect 2 0 15 0;
#X connect 3 0 4 0;
#X connect 4 0 5 0;
#X connect 5 0 6 0;
#X connect 6 0 7 0;
#X connect 7 0 8 0;
#X connect 8 0 9 0;
#X connect 9 0 10 0;
#X connect 10 0 11 0;
#X connect 11 0 12 0;
#X connect 12 0 1 0;
#X connect 13 0 3 0;
#X connect 14 0 13 0;
#X connect 15 0 14 0;
#X restore 338 235 pd 14_pass_blur;
#X obj 409 90 gemwin;
#X msg 426 57 destroy;
#X obj 73 206 gemframebuffer;
#X msg 88 165 dimen 400 400 \, rectangle 0;
#X obj 85 415 square 1;
#X obj 312 449 square 1;
#X obj 313 358 translateXYZ 0 0 -4;
#X obj 98 312 colorRGB 1 0 0 1;
#X obj 40 274 translateXYZ 0 0 -4;
#X floatatom 121 243 5 0 0 0 - - -, f 5;
#X floatatom 422 322 5 0 0 0 - - -, f 5;
#X obj 311 332 pix_texture;
#X msg 398 33 title zizi \, dimen 400 400 \, create \, 1;
#X obj 74 115 gemhead zizi 50;
#X obj 295 269 gemhead zizi 80;
#X floatatom 249 216 5 0 0 0 - - -, f 5;
#X connect 2 0 1 0;
#X connect 3 0 9 0;
#X connect 3 1 12 1;
#X connect 3 1 16 0;
#X connect 4 0 3 0;
#X connect 7 0 6 0;
#X connect 8 0 5 0;
#X connect 9 0 8 0;
#X connect 10 0 9 3;
#X connect 11 0 7 3;
#X connect 12 0 7 0;
#X connect 13 0 1 0;
#X connect 14 0 3 0;
#X connect 15 0 12 0;
