#N canvas 182 121 1415 717 10;
#X obj 410 467 colorRGB 0 0 0 1;
#X obj 410 348 GEMglLoadIdentity;
#X obj 694 463 colorRGB 0 0 0 1;
#X obj 694 344 GEMglLoadIdentity;
#X obj -126 469 colorRGB 0 0 0 1;
#X obj -166 317 GEMglLoadIdentity;
#X obj 229 470 colorRGB 0 0 0 1;
#X obj 229 351 GEMglLoadIdentity;
#X obj 126 117 hsl 128 17 0 5 0 0 empty empty x 2 9 0 8 -228856 -2198
-1 8400 1;
#X obj 126 134 hsl 128 17 0 5 0 0 empty empty y 2 9 0 8 -228856 -1948
-1 6200 1;
#X msg 456 263 set -1000;
#X msg 740 259 set -1000;
#X msg -162 226 set -1000;
#X msg 275 266 set -1000;
#X obj 8 294 * -1;
#X obj -98 175 * -1;
#X floatatom 13 330 5 0 0 0 - - -, f 5;
#X obj 229 324 gemhead -10000;
#X floatatom 399 105 5 0 0 0 - - -, f 5;
#X floatatom 758 107 5 0 0 0 - - -, f 5;
#X floatatom 814 109 5 0 0 0 - - -, f 5;
#X floatatom 439 107 5 0 0 0 - - -, f 5;
#X obj -166 290 gemhead -10000;
#X obj 410 321 gemhead -10000;
#X obj 693 317 gemhead -10000;
#X obj 229 446 translateXYZ -3.4 -2.7 -1.00001;
#X obj -126 445 translateXYZ -3.4 2.7 -1.00001;
#X obj 410 443 translateXYZ 3.4 2.7 -1.00001;
#X obj 694 439 translateXYZ 3.4 -2.7 -1.00001;
#X obj 229 498 rectangle 3 2;
#X obj -126 497 rectangle 3 2;
#X obj 410 495 rectangle 3 2;
#X obj 693 491 rectangle 3 2;
#X obj -155 100 notein;
#X floatatom -168 142 5 0 0 0 - - -, f 5;
#X floatatom -121 128 5 0 0 0 - - -, f 5;
#X floatatom -85 120 5 0 0 0 - - -, f 5;
#X obj 306 112 t a;
#X obj 265 77 tgl 15 0 empty empty empty 17 7 0 10 -257985 -1 -1 1
1;
#X obj 332 58 inlet;
#X connect 0 0 31 0;
#X connect 1 0 27 0;
#X connect 2 0 32 0;
#X connect 3 0 28 0;
#X connect 4 0 30 0;
#X connect 5 0 26 0;
#X connect 6 0 29 0;
#X connect 7 0 25 0;
#X connect 8 0 14 0;
#X connect 8 0 27 1;
#X connect 8 0 28 1;
#X connect 9 0 15 0;
#X connect 9 0 26 2;
#X connect 9 0 27 2;
#X connect 14 0 16 0;
#X connect 14 0 25 1;
#X connect 14 0 26 1;
#X connect 15 0 25 2;
#X connect 15 0 28 2;
#X connect 17 0 7 0;
#X connect 18 0 25 1;
#X connect 18 0 26 1;
#X connect 19 0 27 1;
#X connect 19 0 28 1;
#X connect 20 0 25 2;
#X connect 20 0 28 2;
#X connect 21 0 26 2;
#X connect 21 0 27 2;
#X connect 22 0 5 0;
#X connect 23 0 1 0;
#X connect 24 0 3 0;
#X connect 25 0 6 0;
#X connect 26 0 4 0;
#X connect 27 0 0 0;
#X connect 28 0 2 0;
#X connect 33 0 34 0;
#X connect 33 1 35 0;
#X connect 33 2 36 0;
#X connect 37 0 17 0;
#X connect 37 0 22 0;
#X connect 37 0 23 0;
#X connect 37 0 24 0;
#X connect 38 0 37 0;
#X connect 39 0 37 0;
#X coords 0 -1 1 1 156 51 1 100 100;
