#N canvas 114 142 1415 717 10;
#X obj 472 469 colorRGB 0 0 0 1;
#X obj 696 469 colorRGB 0 0 0 1;
#X obj -126 469 colorRGB 0 0 0 1;
#X obj 229 467 colorRGB 0 0 0 1;
#X obj 126 117 hsl 128 17 0 5 0 0 empty empty x 2 9 0 8 -228856 -2198
-1 9534 1;
#X obj 126 134 hsl 128 17 0 5 0 0 empty empty y 2 9 0 8 -228856 -1948
-1 6374 1;
#X obj 129 273 * -1;
#X obj 561 257 * -1;
#X floatatom 1162 431 5 0 0 0 - - -, f 5;
#X floatatom 1067 431 5 0 0 0 - - -, f 5;
#X floatatom 1100 431 5 0 0 0 - - -, f 5;
#X floatatom 1195 431 5 0 0 0 - - -, f 5;
#X obj 229 445 translateXYZ -3.4 -2.7 -1.00001;
#X obj -126 445 translateXYZ -3.4 2.7 -1.00001;
#X obj 472 445 translateXYZ 3.4 2.7 -1.00001;
#X obj 696 445 translateXYZ 3.4 -2.7 -1.00001;
#X obj 229 495 rectangle 3 2;
#X obj -126 497 rectangle 3 2;
#X obj 472 497 rectangle 3 2;
#X obj 695 497 rectangle 3 2;
#X obj -57 -23 t a;
#X obj -91 -71 tgl 15 0 empty empty empty 17 7 0 10 -257985 -1 -1 0
1;
#X obj -31 -77 inlet;
#X obj -126 234 gemhead -10000 a;
#X obj -126 362 separator;
#X obj 229 362 separator;
#X obj 472 362 separator;
#X obj 696 362 separator;
#X obj -126 318 GEMglLoadIdentity;
#X obj -126 345 t a;
#X floatatom 533 173 5 0 0 0 - - -, f 5;
#X msg 98 34 2.75;
#X msg 215 8 2.5;
#X obj 112 -40 loadbang;
#X floatatom 530 580 5 0 0 0 - - -, f 5;
#X obj -126 275 alpha;
#X floatatom 493 40 5 0 0 0 - - -, f 5;
#X floatatom 501 93 5 0 0 0 - - -, f 5;
#X msg 610 70 set \$1;
#X msg 585 114 set \$1;
#X msg 640 162 2.50945;
#X msg 677 111 3.75354;
#X msg 402 -26 2.50945;
#X msg 336 -32 3.75354;
#X obj 368 -92 inlet;
#X obj 378 -66 bng 15 250 50 0 empty empty empty 17 7 0 10 -262144
-1 -1;
#X connect 0 0 18 0;
#X connect 1 0 19 0;
#X connect 2 0 17 0;
#X connect 3 0 16 0;
#X connect 4 0 6 0;
#X connect 4 0 14 1;
#X connect 4 0 15 1;
#X connect 4 0 36 0;
#X connect 5 0 7 0;
#X connect 5 0 13 2;
#X connect 5 0 14 2;
#X connect 5 0 30 0;
#X connect 5 0 37 0;
#X connect 6 0 12 1;
#X connect 6 0 13 1;
#X connect 7 0 12 2;
#X connect 7 0 15 2;
#X connect 8 0 12 1;
#X connect 8 0 13 1;
#X connect 9 0 14 1;
#X connect 9 0 15 1;
#X connect 10 0 12 2;
#X connect 10 0 15 2;
#X connect 11 0 13 2;
#X connect 11 0 14 2;
#X connect 12 0 3 0;
#X connect 13 0 2 0;
#X connect 14 0 0 0;
#X connect 15 0 1 0;
#X connect 20 0 23 0;
#X connect 21 0 20 0;
#X connect 22 0 20 0;
#X connect 23 0 35 0;
#X connect 24 0 13 0;
#X connect 25 0 12 0;
#X connect 26 0 14 0;
#X connect 27 0 15 0;
#X connect 28 0 29 0;
#X connect 29 0 24 0;
#X connect 29 0 25 0;
#X connect 29 0 26 0;
#X connect 29 0 27 0;
#X connect 31 0 4 0;
#X connect 32 0 5 0;
#X connect 33 0 31 0;
#X connect 33 0 32 0;
#X connect 34 0 0 4;
#X connect 34 0 1 4;
#X connect 34 0 3 4;
#X connect 34 0 2 4;
#X connect 35 0 28 0;
#X connect 36 0 38 0;
#X connect 37 0 39 0;
#X connect 38 0 41 0;
#X connect 39 0 40 0;
#X connect 42 0 5 0;
#X connect 43 0 4 0;
#X connect 44 0 45 0;
#X connect 45 0 43 0;
#X connect 45 0 42 0;
#X coords 0 -1 1 1 156 51 1 100 100;
