#N canvas 379 226 900 631 10;
#X obj 329 166 inlet;
#X obj 355 222 separator;
#X obj 429 521 b;
#X obj 355 329 GEMglLoadIdentity;
#X obj 355 617 translateXYZ 0 0 -4;
#X msg 485 562 100;
#X obj 355 287 spigot;
#X obj 394 268 tgl 15 0 empty empty empty 17 7 0 10 -257985 -1 -1 1
1;
#X obj 355 756 rectangle 100 1;
#X obj 355 686 rectangle 100 1;
#X msg 429 564 -5;
#X msg 203 739 draw line \, width 2;
#X obj 203 697 loadbang;
#X obj 355 720 colorRGB 1 1 1 1;
#X obj 485 538 delay 50;
#X obj 283 196 r clap;
#X obj 355 654 colorRGB 1 1 1 1;
#X obj 371 476 electribe_note 7;
#X floatatom 477 403 5 0 0 0 - - -;
#X obj 609 197 inlet;
#X connect 0 0 7 0;
#X connect 1 0 6 0;
#X connect 2 0 10 0;
#X connect 2 0 14 0;
#X connect 3 0 4 0;
#X connect 4 0 16 0;
#X connect 5 0 4 3;
#X connect 6 0 3 0;
#X connect 7 0 6 1;
#X connect 10 0 4 3;
#X connect 11 0 8 0;
#X connect 12 0 11 0;
#X connect 13 0 8 0;
#X connect 14 0 5 0;
#X connect 15 0 1 0;
#X connect 16 0 9 0;
#X connect 17 0 2 0;
#X connect 18 0 17 0;
#X connect 19 0 18 0;
