#N canvas 478 86 601 732 10;
#X obj 213 47 inlet;
#X obj 239 103 separator;
#X obj 313 402 b;
#X obj 239 210 GEMglLoadIdentity;
#X obj 239 498 translateXYZ 0 0 -4;
#X msg 369 443 100;
#X obj 239 168 spigot;
#X obj 278 149 tgl 15 0 empty empty empty 17 7 0 10 -257985 -1 -1 0
1;
#X obj 239 637 rectangle 100 1;
#X msg 87 620 draw line \, width 2;
#X obj 87 578 loadbang;
#X obj 239 601 colorRGB 1 1 1 1;
#X obj 369 419 delay 50;
#X obj 167 77 r clap;
#X obj 239 535 colorRGB 1 1 1 1;
#X obj 255 357 electribe_note 7;
#X floatatom 361 284 5 0 0 0 - - -, f 5;
#X obj 493 78 inlet;
#X msg 313 445 -3;
#X floatatom 453 456 5 0 0 0 - - -, f 5;
#X floatatom 418 584 5 0 0 0 - - -, f 5;
#X obj 239 567 rectangle 100 0.84;
#X connect 0 0 7 0;
#X connect 1 0 6 0;
#X connect 2 0 18 0;
#X connect 2 0 12 0;
#X connect 3 0 4 0;
#X connect 4 0 14 0;
#X connect 5 0 4 3;
#X connect 6 0 3 0;
#X connect 7 0 6 1;
#X connect 9 0 8 0;
#X connect 10 0 9 0;
#X connect 11 0 8 0;
#X connect 12 0 5 0;
#X connect 13 0 1 0;
#X connect 14 0 21 0;
#X connect 15 0 2 0;
#X connect 16 0 15 0;
#X connect 17 0 16 0;
#X connect 18 0 4 3;
#X connect 19 0 4 3;
#X connect 20 0 21 2;
