#N canvas 417 129 1149 688 10;
#X obj 238 137 GEMglLoadIdentity;
#X obj 169 27 r masque;
#X obj 334 -38 inlet;
#X obj 238 106 spigot;
#X obj 337 91 tgl 15 0 empty empty empty 17 7 0 10 -262144 -1 -1 1
1;
#X obj 58 351 rectangle 0.1 0.1;
#X obj 238 825 GEMglEnd;
#X obj 374 354 GLdefine GL_SMOOTH;
#X obj 374 332 loadbang;
#X obj 374 374 loadbang;
#X obj 374 396 GLdefine GL_POLYGON;
#X obj 238 413 GEMglBegin;
#X obj 238 371 GEMglShadeModel;
#X obj 391 809 loadbang;
#X obj 238 868 GEMglShadeModel;
#X obj 391 851 GLdefine GL_FLAT;
#X msg 562 240 bang;
#X obj 238 502 GEMglVertex3f -0.1 0 0;
#X obj 238 606 GEMglVertex3f 0 -0.1 0;
#X obj 238 693 GEMglVertex3f 0.1 0 0;
#X obj 881 119 gemmouse;
#X floatatom 845 286 9 0 0 1 X-position - -, f 9;
#X floatatom 894 245 8 0 0 1 Y-position - -, f 8;
#X floatatom 907 209 2 0 0 1 left-Button - -, f 2;
#X floatatom 920 189 2 0 0 1 middle-Button - -, f 2;
#X floatatom 933 169 2 0 0 1 right-Button - -, f 2;
#X obj 812 350 vradio 15 1 0 4 empty empty empty 0 -8 0 10 -262144
-1 -1 0;
#X obj 812 732 unpack f f;
#X obj 812 540 route 0 1 2 3;
#X obj 812 448 pack f f f;
#X obj 812 423 f;
#X obj 288 480 r xxx1;
#X obj 338 480 r yyy1;
#X obj 812 752 s xxx1;
#X obj 879 752 s yyy1;
#X obj 834 682 unpack f f;
#X obj 856 632 unpack f f;
#X obj 878 582 unpack f f;
#X obj 834 702 s xxx2;
#X obj 904 702 s yyy2;
#X obj 856 652 s xxx3;
#X obj 923 652 s yyy3;
#X obj 878 602 s xxx4;
#X obj 945 602 s yyy4;
#X obj 288 580 r xxx2;
#X obj 338 580 r yyy2;
#X obj 286 670 r xxx3;
#X obj 334 670 r yyy3;
#X obj 334 751 r yyy4;
#X obj 286 751 r xxx4;
#X obj 238 780 GEMglVertex3f 0 0.1 0;
#X obj 845 334 - 1;
#X obj 894 331 * -1;
#X obj 894 352 + 1;
#X obj 812 326 b;
#X obj 1055 222 sel 0 1;
#X obj 1055 483 tgl 15 0 empty empty empty 17 7 0 10 -262144 -1 -1
0 1;
#X obj 812 498 spigot;
#X floatatom 907 407 5 0 0 0 - - -, f 5;
#X obj 845 309 / 400;
#X obj 894 309 / 300;
#X obj 812 -38 inlet;
#X obj 238 54 gemhead;
#X obj 238 280 pix_texture;
#X floatatom 394 155 5 0 0 0 - - -, f 5;
#X obj 238 173 translateXYZ 0 0 -1.001;
#X obj 562 784 t b;
#X obj 562 337 t b;
#X obj 562 379 t b;
#X obj 372 556 GEMglTexCoord2fv 1 0;
#X obj 238 203 colorRGB 1 1 1 1;
#X obj 238 641 GEMglTexCoord2fv 1 1;
#X obj 238 446 GEMglTexCoord2fv 0 0;
#X obj 238 534 GEMglTexCoord2fv 0 1;
#X obj 238 724 GEMglTexCoord2fv 1 0;
#X obj 307 255 r FB1;
#X obj 237 79 alpha;
#X connect 0 0 65 0;
#X connect 2 0 4 0;
#X connect 3 0 0 0;
#X connect 4 0 3 1;
#X connect 6 0 14 0;
#X connect 7 0 12 1;
#X connect 8 0 7 0;
#X connect 9 0 10 0;
#X connect 10 0 11 1;
#X connect 11 0 72 0;
#X connect 12 0 11 0;
#X connect 13 0 15 0;
#X connect 15 0 14 1;
#X connect 16 0 67 0;
#X connect 17 0 73 0;
#X connect 18 0 71 0;
#X connect 19 0 74 0;
#X connect 20 0 21 0;
#X connect 20 1 22 0;
#X connect 20 2 23 0;
#X connect 20 3 24 0;
#X connect 20 4 25 0;
#X connect 21 0 59 0;
#X connect 22 0 60 0;
#X connect 23 0 55 0;
#X connect 26 0 30 0;
#X connect 27 0 33 0;
#X connect 27 1 34 0;
#X connect 28 0 27 0;
#X connect 28 1 35 0;
#X connect 28 2 36 0;
#X connect 28 3 37 0;
#X connect 29 0 57 0;
#X connect 30 0 29 0;
#X connect 31 0 17 1;
#X connect 32 0 17 2;
#X connect 35 0 38 0;
#X connect 35 1 39 0;
#X connect 36 0 40 0;
#X connect 36 1 41 0;
#X connect 37 0 42 0;
#X connect 37 1 43 0;
#X connect 44 0 18 1;
#X connect 45 0 18 2;
#X connect 46 0 19 1;
#X connect 47 0 19 2;
#X connect 48 0 50 2;
#X connect 49 0 50 1;
#X connect 50 0 6 0;
#X connect 51 0 29 1;
#X connect 52 0 53 0;
#X connect 53 0 29 2;
#X connect 53 0 58 0;
#X connect 54 0 26 0;
#X connect 55 0 56 0;
#X connect 56 0 57 1;
#X connect 57 0 28 0;
#X connect 59 0 51 0;
#X connect 59 0 54 0;
#X connect 60 0 52 0;
#X connect 60 0 54 0;
#X connect 61 0 26 0;
#X connect 62 0 76 0;
#X connect 63 0 12 0;
#X connect 64 0 65 3;
#X connect 65 0 70 0;
#X connect 66 0 15 0;
#X connect 67 0 7 0;
#X connect 67 0 68 0;
#X connect 68 0 10 0;
#X connect 68 0 66 0;
#X connect 70 0 63 0;
#X connect 71 0 19 0;
#X connect 72 0 17 0;
#X connect 73 0 18 0;
#X connect 74 0 50 0;
#X connect 75 0 63 1;
#X connect 76 0 3 0;
