#N canvas 744 100 624 736 10;
#X obj 264 185 notein;
#X obj 256 410 *;
#X obj 229 348 sel 0;
#X obj 229 321 == \$1;
#X floatatom 280 348 5 0 0 0 - - -, f 5;
#X obj 229 237 stripnote;
#X obj 256 464 outlet;
#X floatatom 200 426 5 0 0 0 - - -, f 5;
#X floatatom 103 307 5 0 0 0 - - -, f 5;
#X connect 0 0 5 0;
#X connect 0 1 5 1;
#X connect 1 0 6 0;
#X connect 1 0 7 0;
#X connect 2 1 1 0;
#X connect 3 0 2 0;
#X connect 4 0 1 1;
#X connect 5 0 3 0;
#X connect 5 0 8 0;
#X connect 5 1 4 0;
