#N canvas 748 84 624 736 10;
#X obj 488 -162 notein;
#X floatatom 453 -51 5 0 0 0 - - -, f 5;
#X obj 480 63 *;
#X obj 453 1 sel 0;
#X obj 453 -26 == \$1;
#X floatatom 504 1 5 0 0 0 - - -, f 5;
#X obj 453 -110 stripnote;
#X obj 453 -77 - 35;
#X obj 480 117 outlet;
#X floatatom 424 79 5 0 0 0 - - -, f 5;
#X connect 0 0 6 0;
#X connect 0 1 6 1;
#X connect 1 0 4 0;
#X connect 2 0 8 0;
#X connect 2 0 9 0;
#X connect 3 1 2 0;
#X connect 4 0 3 0;
#X connect 5 0 2 1;
#X connect 6 0 7 0;
#X connect 6 1 5 0;
#X connect 7 0 1 0;
