#N canvas 1014 303 423 425 10;
#X obj 194 -188 notein;
#X floatatom 152 -154 5 0 0 0 - - -;
#X floatatom 216 -105 5 0 0 0 - - -;
#X floatatom 245 -146 5 0 0 0 - - -;
#X obj 205 -63 *;
#X obj 204 -38 > 0;
#X obj 152 70 realtime;
#X obj 152 51 alternate;
#X obj 152 30 b;
#X obj 203 -11 t b b;
#X obj 157 -89 sel 0;
#X obj 219 154 outlet;
#X obj 147 -127 == \$1;
#X obj 152 89 > 500;
#X floatatom 133 -47 5 0 0 0 - - -;
#X obj 317 -61 print 2;
#X obj 80 -91 print 1;
#X obj 312 -154 delay 100;
#X obj 312 -130 print delayy;
#X obj 43 -186 ctlin;
#X floatatom 39 -132 5 0 0 0 - - -;
#X floatatom 67 -140 5 0 0 0 - - -;
#X floatatom 93 -155 5 0 0 0 - - -;
#X connect 0 0 1 0;
#X connect 0 1 2 0;
#X connect 0 1 15 0;
#X connect 0 2 3 0;
#X connect 1 0 12 0;
#X connect 2 0 4 1;
#X connect 4 0 5 0;
#X connect 5 0 9 0;
#X connect 6 0 13 0;
#X connect 7 0 6 0;
#X connect 7 1 6 1;
#X connect 8 0 7 0;
#X connect 9 0 8 0;
#X connect 9 1 11 0;
#X connect 10 1 4 0;
#X connect 10 1 14 0;
#X connect 12 0 10 0;
#X connect 12 0 16 0;
#X connect 13 0 11 0;
#X connect 17 0 18 0;
#X connect 19 0 20 0;
#X connect 19 1 21 0;
#X connect 19 2 22 0;
