#N canvas 517 109 903 593 10;
#X floatatom 16 -92 5 0 0 0 - - -;
#X floatatom 32 -113 5 0 0 0 - - -;
#X floatatom 49 -134 5 0 0 0 - - -;
#X floatatom 110 -103 5 0 0 0 - - -;
#X floatatom 123 -124 5 0 0 0 - - -;
#X floatatom 137 -142 5 0 0 0 - - -;
#X obj -83 -164 midiin;
#X floatatom -83 -124 5 0 0 0 - - -;
#X floatatom -50 -142 5 0 0 0 - - -;
#X obj -80 -249 inlet;
#X obj 208 -120 vsl 15 128 0 127 0 0 empty empty empty 0 -9 0 10 -262144
-1 -1 0 1;
#X obj 208 -147 line;
#X msg 208 -168 \$1 100;
#X obj 312 -109 == 40;
#X obj 312 -161 notein;
#X obj 353 -109 > 0;
#X obj 312 -74 *;
#X obj 312 -53 sel 1;
#X text 309 -180 pad 5 presse;
#X obj 428 -158 notein;
#X obj 469 -106 > 0;
#X obj 428 -71 *;
#X obj 428 -50 sel 1;
#X obj 428 -106 == 41;
#X text 425 -177 pad 6 presse;
#X obj 110 -165 ctlin;
#X obj 16 -165 notein;
#X obj 312 -10 outlet;
#X obj 428 -11 outlet;
#X connect 6 0 7 0;
#X connect 6 1 8 0;
#X connect 11 0 10 0;
#X connect 12 0 11 0;
#X connect 13 0 16 0;
#X connect 14 0 13 0;
#X connect 14 1 15 0;
#X connect 15 0 16 1;
#X connect 16 0 17 0;
#X connect 17 0 27 0;
#X connect 19 0 23 0;
#X connect 19 1 20 0;
#X connect 20 0 21 1;
#X connect 21 0 22 0;
#X connect 22 0 28 0;
#X connect 23 0 21 0;
#X connect 25 0 3 0;
#X connect 25 1 4 0;
#X connect 25 2 5 0;
#X connect 26 0 0 0;
#X connect 26 1 1 0;
#X connect 26 2 2 0;
#X coords 0 -1 1 1 85 60 1 100 100;
