#N canvas 681 104 526 795 10;
#X declare -path ../100.Abstractions/;
#X obj 185 660 pix_info ------;
#X floatatom 199 697 5 0 0 0 - - -, f 5;
#X floatatom 214 680 5 0 0 0 - - -, f 5;
#X obj 278 392 b;
#X obj 59 23 declare -path ../100.Abstractions/;
#X floatatom 345 176 5 0 0 0 - - -, f 5;
#X obj 311 377 bng 15 250 50 0 empty empty empty 17 7 0 10 -262144
-1 -1;
#X obj 80 856 rectangle 767.7 236.2;
#X obj 80 340 colorRGB 1 1 1 1;
#X obj 152 839 * 76.77;
#X obj 224 839 * 23.62;
#X floatatom 224 825 5 0 0 0 - - -, f 5;
#X floatatom 276 468 5 0 0 0 - - -, f 5;
#X obj 80 537 translateXYZ 0 0 -290;
#X obj 310 791 loadbang;
#X obj 276 482 * 10;
#X floatatom 276 499 5 0 0 0 - - -, f 5;
#X obj 278 442 random 1800;
#X obj 176 501 - 900;
#X obj 128 434 - 3000;
#X obj 128 409 random 6000;
#X obj 119 82 inlet;
#X obj 345 81 inlet;
#X obj 80 164 r worldgovernance;
#X obj 80 289 separator;
#X obj 80 262 spigot;
#X msg 169 267 1;
#X msg 204 268 0;
#X msg 88 755 quality 0;
#X obj 88 736 loadbang;
#X obj 169 207 t b;
#X obj 80 369 translateXYZ 0 0 -4;
#X obj 189 302 t f;
#X obj 278 190 electribe_note;
#X floatatom 307 855 5 0 0 0 - - -, f 5;
#X floatatom 256 864 5 0 0 0 - - -, f 5;
#X obj 90 996 rectangle 767.7 236.2;
#X obj 162 979 * 76.77;
#X obj 234 979 * 23.62;
#X floatatom 234 965 5 0 0 0 - - -, f 5;
#X msg 320 948 50;
#X obj 320 931 loadbang;
#X floatatom 317 995 5 0 0 0 - - -, f 5;
#X floatatom 266 1004 5 0 0 0 - - -, f 5;
#X obj 311 409 bng 15 250 50 0 empty empty empty 17 7 0 10 -262144
-1 -1;
#X obj 80 631 pix_image worldgovernance4.png;
#X obj 80 776 pix_texture;
#X floatatom 255 341 5 0 0 0 - - -, f 5;
#X floatatom 253 586 5 0 0 0 - - -, f 5;
#X msg 310 808 50;
#X obj 204 244 pipe 300;
#X connect 0 1 1 0;
#X connect 0 2 2 0;
#X connect 3 0 17 0;
#X connect 3 0 20 0;
#X connect 3 0 44 0;
#X connect 5 0 33 0;
#X connect 6 0 3 0;
#X connect 8 0 31 0;
#X connect 9 0 7 1;
#X connect 9 0 35 0;
#X connect 10 0 7 2;
#X connect 10 0 34 0;
#X connect 11 0 9 0;
#X connect 11 0 10 0;
#X connect 12 0 15 0;
#X connect 13 0 45 0;
#X connect 14 0 49 0;
#X connect 15 0 16 0;
#X connect 16 0 13 2;
#X connect 17 0 18 0;
#X connect 18 0 13 2;
#X connect 19 0 13 1;
#X connect 20 0 19 0;
#X connect 21 0 25 1;
#X connect 22 0 5 0;
#X connect 23 0 25 0;
#X connect 24 0 8 0;
#X connect 25 0 24 0;
#X connect 26 0 32 0;
#X connect 27 0 32 0;
#X connect 28 0 46 0;
#X connect 29 0 28 0;
#X connect 30 0 26 0;
#X connect 30 0 50 0;
#X connect 31 0 13 0;
#X connect 32 0 8 4;
#X connect 33 0 3 0;
#X connect 33 0 30 0;
#X connect 37 0 36 1;
#X connect 37 0 43 0;
#X connect 38 0 36 2;
#X connect 38 0 42 0;
#X connect 39 0 37 0;
#X connect 39 0 38 0;
#X connect 40 0 39 0;
#X connect 41 0 40 0;
#X connect 45 0 46 0;
#X connect 46 0 7 0;
#X connect 48 0 13 3;
#X connect 49 0 11 0;
#X connect 50 0 27 0;
