#N canvas 543 131 1054 797 10;
#X obj 443 601 route XYZ RGBA UV Nxyz;
#X obj 397 81 pix_info --------------------;
#X obj 24 25 inlet;
#X obj 397 714 outlet;
#X obj 602 113 loadbang;
#X obj 602 135 f \$1;
#X msg 681 495 draw quads \, position_enable 1 \, color_enable 1 \,
texture_enable 1 \, normal_enable 1;
#X obj 397 693 gemvertexbuffer 96;
#X obj 602 156 t f f;
#X obj 443 115 change -1;
#X obj 517 115 change -1;
#X obj 603 673 list prepend 0;
#X obj 603 694 list trim;
#X obj 708 673 list prepend 0;
#X obj 708 694 list trim;
#X obj 808 673 list prepend 0;
#X obj 808 694 list trim;
#X obj 908 673 list prepend 0;
#X obj 908 694 list trim;
#X obj 517 136 t b f;
#X obj 647 176 * -1;
#X obj 841 67 table \$0-tabXYZ 72;
#X obj 841 87 table \$0-tabRGBA 96;
#X obj 841 107 table \$0-tabUV 48;
#X obj 841 127 table \$0-tabNxyz 72;
#X obj 603 715 s \$0-tabXYZ;
#X obj 708 715 s \$0-tabRGBA;
#X obj 808 715 s \$0-tabUV;
#X obj 908 715 s \$0-tabNxyz;
#X msg 602 242 XYZ \$1 \$1 \$1 \$2 \$1 \$1 \$2 \$2 \$1 \$1 \$2 \$1
\$1 \$1 \$1 \$1 \$2 \$1 \$1 \$2 \$2 \$1 \$1 \$2 \$1 \$1 \$1 \$1 \$1
\$2 \$2 \$1 \$2 \$2 \$1 \$1 \$2 \$1 \$1 \$2 \$1 \$2 \$2 \$2 \$2 \$2
\$2 \$1 \$2 \$2 \$2 \$1 \$2 \$2 \$1 \$2 \$1 \$2 \$2 \$1 \$1 \$2 \$2
\$2 \$2 \$2 \$2 \$1 \$2 \$1 \$1 \$2 \, position \$3 0;
#X obj 619 306 symbol \$0-tabNxyz;
#X msg 619 329 Nxyz 0 0 1 0 0 1 0 0 1 0 0 1 1 0 0 1 0 0 1 0 0 1 0 0
0 1 0 0 1 0 0 1 0 0 1 0 -1 0 0 -1 0 0 -1 0 0 -1 0 0 0 -1 0 0 -1 0 0
-1 0 0 -1 0 0 0 -1 0 0 -1 0 0 -1 0 0 -1 \, normal \$1 0;
#X msg 443 554 UV \$1 0 0 0 0 \$2 \$1 \$2 0 0 0 \$2 \$1 \$2 \$1 0 \$1
\$2 \$1 0 0 0 0 \$2 \$1 0 0 0 0 \$2 \$1 \$2 \$1 0 0 0 0 \$2 \$1 \$2
0 \$2 \$1 \$2 \$1 0 0 0 \, texture \$3 0;
#X obj 602 198 pack f f;
#X obj 602 219 list append \$0-tabXYZ;
#X obj 443 186 pack f f;
#X obj 443 215 list append \$0-tabUV;
#X obj 24 458 list append \$0-tabRGBA;
#X obj 740 28 inlet;
#X obj 24 46 route color;
#X obj 24 67 t a a;
#X obj 93 97 list length;
#X obj 24 231 pack f f f 1;
#X obj 24 262 t b b l b;
#X obj 135 397 t l;
#X obj 51 398 list prepend;
#X msg 41 312 24;
#X obj 41 333 until;
#X obj 51 370 list;
#X obj 24 420 list;
#X msg 24 483 RGBA \$1 \$2 \$3 \$4 \$5 \$6 \$7 \$8 \$9 \$10 \$11 \$12
\$13 \$14 \$15 \$16 \$17 \$18 \$19 \$20 \$21 \$22 \$23 \$24 \$25 \$26
\$27 \$28 \$29 \$30 \$31 \$32 \$33 \$34 \$35 \$36 \$37 \$38 \$39 \$40
\$41 \$42 \$43 \$44 \$45 \$46 \$47 \$48 \$49 \$50 \$51 \$52 \$53 \$54
\$55 \$56 \$57 \$58 \$59 \$60 \$61 \$62 \$63 \$64 \$65 \$66 \$67 \$68
\$69 \$70 \$71 \$72 \$73 \$74 \$75 \$76 \$77 \$78 \$79 \$80 \$81 \$82
\$83 \$84 \$85 \$86 \$87 \$88 \$89 \$90 \$91 \$92 \$93 \$94 \$95 \$96
\, color \$97 0;
#X obj 24 149 route 3 4 96;
#X obj 24 125 list prepend;
#X obj 24 170 t a b;
#X msg 51 195 1;
#X obj 93 195 print error:;
#X msg 93 170 color message need 3 or 4 or 96 values;
#X floatatom 130 128 5 0 0 0 - - -;
#X obj 119 23 loadbang;
#X msg 119 44 1 1 1 1;
#X connect 0 0 11 0;
#X connect 0 1 13 0;
#X connect 0 2 15 0;
#X connect 0 3 17 0;
#X connect 0 4 7 0;
#X connect 1 0 7 0;
#X connect 1 1 9 0;
#X connect 1 2 10 0;
#X connect 2 0 39 0;
#X connect 4 0 5 0;
#X connect 4 0 6 0;
#X connect 4 0 30 0;
#X connect 5 0 8 0;
#X connect 6 0 0 0;
#X connect 7 0 3 0;
#X connect 8 0 33 0;
#X connect 8 1 20 0;
#X connect 9 0 35 0;
#X connect 10 0 19 0;
#X connect 11 0 12 0;
#X connect 12 0 25 0;
#X connect 13 0 14 0;
#X connect 14 0 26 0;
#X connect 15 0 16 0;
#X connect 16 0 27 0;
#X connect 17 0 18 0;
#X connect 18 0 28 0;
#X connect 19 0 35 0;
#X connect 19 1 35 1;
#X connect 20 0 33 1;
#X connect 29 0 0 0;
#X connect 30 0 31 0;
#X connect 31 0 0 0;
#X connect 32 0 0 0;
#X connect 33 0 34 0;
#X connect 34 0 29 0;
#X connect 35 0 36 0;
#X connect 36 0 32 0;
#X connect 37 0 50 0;
#X connect 38 0 5 0;
#X connect 39 0 40 0;
#X connect 39 1 1 0;
#X connect 40 0 52 0;
#X connect 40 1 41 0;
#X connect 41 0 52 1;
#X connect 41 0 57 0;
#X connect 42 0 43 0;
#X connect 43 0 49 0;
#X connect 43 1 46 0;
#X connect 43 2 48 1;
#X connect 43 3 45 1;
#X connect 44 0 45 1;
#X connect 45 0 44 0;
#X connect 45 0 49 1;
#X connect 46 0 47 0;
#X connect 47 0 48 0;
#X connect 48 0 45 0;
#X connect 49 0 37 0;
#X connect 50 0 0 0;
#X connect 51 0 53 0;
#X connect 51 1 42 0;
#X connect 51 2 37 0;
#X connect 51 3 56 0;
#X connect 52 0 51 0;
#X connect 53 0 42 0;
#X connect 53 1 54 0;
#X connect 54 0 42 3;
#X connect 56 0 55 0;
#X connect 58 0 59 0;
#X connect 59 0 40 0;