#N canvas 222 574 1306 273 10;
#X declare -path /home/rep/LIVE/2014_Drasah;
#X obj 332 174 gemhead;
#X obj 622 460 t a b;
#X obj 828 643 t a;
#X msg 841 457 draw lines;
#X obj 828 415 loadbang;
#X obj 651 660 t a;
#X obj 319 107 tgl 24 0 empty empty empty 17 7 0 10 -257985 -1 -1 1
1;
#X obj 505 129 hsl 128 10 0.1 150 0 0 empty empty amp_0.5_>_50 -2 -8
0 10 -262144 -1 -1 0 1;
#X obj 329 51 r vertbuffonoff;
#X obj 671 603 pack 0 0;
#X floatatom 671 537 5 0 0 0 - - -;
#X floatatom 689 558 5 0 0 0 - - -;
#X obj 689 580 t b f;
#X obj 479 325 GEMglPointSize 1;
#X floatatom 572 305 5 1 64 0 - - -;
#X msg 828 435 draw points;
#X msg 848 495 draw line;
#X msg 909 588 draw quads;
#X msg 906 569 draw quad;
#X msg 912 607 draw triangle;
#X msg 914 626 draw triangles;
#X obj 378 192 alpha;
#X floatatom 1330 122 5 0 0 0 - - -;
#X obj 1237 143 colorRGB 1 1 1 1;
#X msg 859 662 draw tristrip;
#X msg 847 476 draw lineloop;
#X floatatom 512 437 5 0 0 0 - - -;
#X obj 651 505 t a;
#X floatatom 1275 36 5 0 0 0 - - -;
#X floatatom 282 146 5 0 100000 0 y_scale - -;
#X floatatom 206 157 5 0 0 0 x_scale - -;
#X floatatom 1334 17 5 0 0 0 - - -;
#X obj 364 62 pad_midi 38;
#X msg 1287 94 0;
#X msg 1327 92 1;
#X obj 1276 123 t a;
#X obj 624 692 gemvertexbuffer 512;
#X msg 653 479 posX XXX \, posY dddd;
#X obj 569 348 t a a a;
#X obj 1041 417 t a b;
#X obj 1245 615 t a;
#X msg 1258 429 draw lines;
#X obj 1273 362 loadbang;
#X obj 1068 632 t a;
#X obj 1088 575 pack 0 0;
#X floatatom 1088 509 5 0 0 0 - - -;
#X floatatom 1106 530 5 0 0 0 - - -;
#X obj 1106 552 t b f;
#X msg 1245 407 draw points;
#X msg 1265 467 draw line;
#X msg 1326 560 draw quads;
#X msg 1323 541 draw quad;
#X msg 1329 579 draw triangle;
#X msg 1331 598 draw triangles;
#X msg 1276 634 draw tristrip;
#X msg 1264 448 draw lineloop;
#X obj 1068 477 t a;
#X obj 1041 664 gemvertexbuffer 512;
#X msg 1070 451 posX XXX \, posY in1;
#X obj 797 336 separator;
#X obj 622 436 colorRGB 1 1 1 1;
#X msg 1285 488 draw fill;
#X obj 804 365 scaleXYZ 1 100 1;
#X obj 605 392 separator;
#X obj 608 415 scaleXYZ 1 5 1;
#X msg 671 624 draw_range 20 512;
#X msg 1088 595 draw_range 20 512;
#X obj 1183 208 _Utiles/pocketdial 96;
#X floatatom 1183 228 5 0 0 0 - - -;
#X obj 1182 185 declare -path /home/rep/LIVE/2014_Drasah;
#X obj 915 400 r spectrum1_mode;
#X obj 915 429 route 1 2 3 4 5 6 7;
#X obj 479 457 rotateXYZ 6 0 0;
#X obj 506 193 r spectrum1_Yscale;
#X obj 1240 56 translateXYZ 3 0 0;
#X obj 332 236 rotateXYZ 0 0 90;
#X obj 332 213 colorRGB 1 1 1 1;
#X obj 479 272 scaleXYZ 13 3 3;
#X obj 766 552 loadbang;
#X msg 1137 289 0;
#X msg 1171 312 1;
#X obj 506 218 / 10;
#X obj 1052 394 colorRGB 0 0.4 1 1;
#X obj 225 37 loadbang;
#X floatatom 134 15 5 0 0 0 - - -;
#X obj 206 138 bng 15 250 50 0 empty empty reset_x_scale -80 7 0 10
-262144 -1 -1;
#X msg 131 58 0.5;
#X msg 1032 276 0;
#X obj 1063 238 bng 15 250 50 0 empty empty empty 17 7 0 10 -262144
-1 -1;
#X msg 1184 342 1;
#X obj 482 350 repeat 120;
#X msg 1028 316 0.2;
#X msg 1086 298 0.5;
#X floatatom 693 115 5 0 0 0 - - -;
#X obj 658 83 translateXYZ;
#X floatatom 681 29 5 0 0 0 - - -;
#X connect 0 0 94 0;
#X connect 1 0 36 0;
#X connect 1 1 37 0;
#X connect 2 0 5 0;
#X connect 3 0 2 0;
#X connect 4 0 15 0;
#X connect 5 0 36 0;
#X connect 6 0 0 0;
#X connect 8 0 6 0;
#X connect 9 0 65 0;
#X connect 10 0 9 0;
#X connect 11 0 12 0;
#X connect 12 0 9 0;
#X connect 12 1 9 1;
#X connect 13 0 90 0;
#X connect 14 0 13 1;
#X connect 15 0 2 0;
#X connect 16 0 2 0;
#X connect 17 0 2 0;
#X connect 18 0 2 0;
#X connect 19 0 2 0;
#X connect 20 0 2 0;
#X connect 22 0 23 4;
#X connect 24 0 2 0;
#X connect 25 0 2 0;
#X connect 26 0 72 1;
#X connect 27 0 5 0;
#X connect 28 0 74 1;
#X connect 29 0 77 2;
#X connect 30 0 77 2;
#X connect 30 0 77 3;
#X connect 31 0 74 2;
#X connect 33 0 35 0;
#X connect 34 0 35 0;
#X connect 35 0 23 1;
#X connect 35 0 23 2;
#X connect 35 0 23 3;
#X connect 37 0 27 0;
#X connect 38 0 72 0;
#X connect 38 1 63 0;
#X connect 38 2 59 0;
#X connect 39 0 57 0;
#X connect 39 1 58 0;
#X connect 40 0 43 0;
#X connect 41 0 40 0;
#X connect 42 0 55 0;
#X connect 43 0 57 0;
#X connect 44 0 66 0;
#X connect 45 0 44 0;
#X connect 46 0 47 0;
#X connect 47 0 44 0;
#X connect 47 1 44 1;
#X connect 48 0 40 0;
#X connect 49 0 40 0;
#X connect 50 0 40 0;
#X connect 51 0 40 0;
#X connect 52 0 40 0;
#X connect 53 0 40 0;
#X connect 54 0 40 0;
#X connect 55 0 40 0;
#X connect 56 0 43 0;
#X connect 58 0 56 0;
#X connect 59 0 62 0;
#X connect 60 0 1 0;
#X connect 61 0 40 0;
#X connect 62 0 82 0;
#X connect 63 0 64 0;
#X connect 64 0 60 0;
#X connect 65 0 5 0;
#X connect 66 0 43 0;
#X connect 67 0 68 0;
#X connect 70 0 71 0;
#X connect 71 0 15 0;
#X connect 71 1 3 0;
#X connect 71 2 25 0;
#X connect 71 3 16 0;
#X connect 71 4 18 0;
#X connect 71 5 17 0;
#X connect 71 6 19 0;
#X connect 71 7 20 0;
#X connect 73 0 81 0;
#X connect 75 0 77 0;
#X connect 76 0 75 0;
#X connect 77 0 13 0;
#X connect 78 0 65 0;
#X connect 78 0 66 0;
#X connect 79 0 82 1;
#X connect 79 0 82 2;
#X connect 79 0 82 3;
#X connect 80 0 82 4;
#X connect 81 0 77 1;
#X connect 82 0 39 0;
#X connect 83 0 86 0;
#X connect 85 0 86 0;
#X connect 86 0 30 0;
#X connect 87 0 82 1;
#X connect 88 0 87 0;
#X connect 88 0 91 0;
#X connect 88 0 92 0;
#X connect 89 0 82 3;
#X connect 89 0 82 2;
#X connect 89 0 82 1;
#X connect 90 0 38 0;
#X connect 91 0 82 2;
#X connect 92 0 82 3;
#X connect 93 0 81 0;
#X connect 94 0 76 0;
#X connect 95 0 94 2;
#X coords 0 -1 1 1 256 80 1 100 100;
