#N canvas 421 173 1044 810 10;
#N canvas 1 89 450 300 fps 0;
#X obj 46 -61 gemhead;
#X obj 46 -21 realtime;
#X obj 46 -41 t b b;
#X obj 46 41 /;
#X msg 46 21 1000 \$1;
#X obj 46 106 outlet;
#X obj 46 63 + 0.5;
#X obj 46 85 i;
#X connect 0 0 2 0;
#X connect 1 0 4 0;
#X connect 2 0 1 0;
#X connect 2 1 1 1;
#X connect 3 0 6 0;
#X connect 4 0 3 0;
#X connect 6 0 7 0;
#X connect 7 0 5 0;
#X restore 476 159 pd fps;
#X floatatom 476 182 5 0 0 1 fps - -;
#X obj 16 86 cnv 15 450 100 empty empty empty 20 12 0 14 -233017 -66577
0;
#X obj 17 246 cnv 15 450 300 empty empty empty 20 12 0 14 -233017 -66577
0;
#X obj 17 191 cnv 15 450 50 empty empty empty 20 12 0 14 -195568 -66577
0;
#X text 69 37 Class: geometric object;
#X text 477 17 GEM object;
#X text 71 17 Synopsis: [gemvertexbuffer];
#X obj 472 86 cnv 15 100 60 empty empty empty 20 12 0 14 -195568 -66577
0;
#N canvas 3 75 450 300 gemwin 0;
#X obj 132 246 gemwin;
#X obj 67 89 outlet;
#X obj 67 10 inlet;
#X obj 67 41 route create;
#X msg 67 70 set destroy;
#X msg 142 68 set create;
#X msg 198 142 destroy;
#X msg 132 142 create \, 1;
#X obj 245 38 loadbang;
#X msg 272 82 reset \, frame 100;
#X obj 245 58 t b b;
#X obj 132 117 t b b;
#X msg 376 135 \; pd dsp 1;
#X obj 349 114 t b b;
#X obj 349 181 del 100;
#X obj 349 201 s \$0-init100;
#X connect 2 0 3 0;
#X connect 3 0 4 0;
#X connect 3 0 11 0;
#X connect 3 1 5 0;
#X connect 3 1 6 0;
#X connect 4 0 1 0;
#X connect 5 0 1 0;
#X connect 6 0 0 0;
#X connect 7 0 0 0;
#X connect 8 0 10 0;
#X connect 9 0 0 0;
#X connect 10 0 5 0;
#X connect 10 1 9 0;
#X connect 11 0 7 0;
#X connect 13 0 14 0;
#X connect 13 1 12 0;
#X connect 14 0 15 0;
#X restore 477 125 pd gemwin;
#X msg 477 106 destroy;
#X text 473 85 Create window:;
#X text 16 90 Description: Renders a vertexbuffer.;
#X text 21 189 Arguments:;
#X text 67 200 number of vertex to be used. nuber in form of 2^n work
better;
#X text 19 251 Inlets:;
#X text 37 263 Inlet 1: gemlist;
#X text 19 515 Outlets:;
#X text 31 528 Outlet 1: gemlist;
#X text 37 419 Inlet 1: message: postion_enable float \, color_enable
float \, texture_enable float \, normal_enable float : enable/disable
the use of this data;
#X obj 579 -22 cnv 15 400 700 empty empty empty 20 12 0 14 -228992
-66577 0;
#X obj 586 678 cnv 15 150 30 empty empty empty 20 12 0 14 -24198 -66577
0;
#X msg 812 624 draw points;
#X msg 702 394 color_enable \$1;
#X obj 683 394 tgl 15 0 empty empty empty 17 7 0 10 -262144 -1 -1 0
1;
#X obj 589 144 GEMglPointSize 1;
#X obj 826 648 loadbang;
#X obj 589 86 translateXYZ 0 0 -2;
#X obj 589 124 rotateXYZ -45 0 -50;
#X obj 589 25 gemhead;
#X text 604 264 update VBO using table value;
#X obj 653 376 tgl 15 0 empty empty empty 17 7 0 10 -262144 -1 -1 1
1;
#X msg 675 374 position_enable \$1;
#X obj 739 434 tgl 15 0 empty empty empty 17 7 0 10 -262144 -1 -1 0
1;
#X obj 709 416 tgl 15 0 empty empty empty 17 7 0 10 -262144 -1 -1 1
1;
#X msg 731 414 texture_enable \$1;
#X msg 758 434 normal_enable \$1;
#X obj 589 225 pix_image;
#X obj 589 244 pix_texture;
#X obj 603 163 bng 15 250 50 0 empty empty empty 0 -6 0 8 -262144 -1
-1;
#N canvas 0 50 450 300 openpanel 0;
#X obj 114 62 inlet;
#X obj 121 254 outlet;
#X obj 114 125 openpanel;
#X msg 114 162 set open \$1;
#X obj 114 199 t b a;
#X connect 0 0 2 0;
#X connect 2 0 3 0;
#X connect 3 0 4 0;
#X connect 4 0 1 0;
#X connect 4 1 1 0;
#X restore 603 180 pd openpanel;
#X msg 603 199 open /home/rep/Bi.Polare/Live/v1.4_textureDist/pano.jpg
;
#X text 681 359 enable / disable specific VBO;
#X obj 589 4 tgl 15 0 empty empty empty 17 7 0 10 -262144 -1 -1 0 1
;
#X text 587 -15 Example:;
#X msg 826 671 resize 128;
#X floatatom 646 106 5 0 0 0 - - -;
#X obj 589 105 scale 3;
#X msg 603 281 position blablax blablay blablaz;
#X msg 614 300 color colorr colorg colorb colora;
#X msg 637 341 normal colorr blablay blablaz;
#X obj 750 180 bng 15 250 50 0 empty \$0-init100 empty 17 7 0 10 -262144
-1 -1;
#X text 37 337 Inlet 1: message: texture / textureU / textureV: update
vertex texcoords from tables;
#X text 37 367 Inlet 1: message: normal / normalX / normalY / normalZ:
update vertex normals from tables;
#X text 37 307 Inlet 1: message: color / colorR / colorG / colorB /
colorA: update vertex colors from tables;
#X text 37 277 Inlet 1: message: position / posX / posY / posZ: update
vertex positions from tables;
#N canvas 430 157 679 574 tabledata 0;
#X text 65 43 applying table data as vertex data;
#X msg 30 100 position tabX tabY tabZ 0;
#X msg 30 130 position tabXYZ 0;
#X text 200 102 will read X \, Y & Z values from the 3 tables as position
data \, starting at offset=0 (offset can be omitted);
#X text 200 132 will read interleaved X \, Y & Z values from the table
tabXYZ \, starting at offset=0 (offset can be omitted);
#X text 200 172 will update only X values from given table (starting
at offset=10);
#X msg 31 169 posX tabX 10;
#X msg 31 209 posY tabY;
#X text 200 212 will update only Y values from given table (starting
at default offset=0);
#X text 39 290 the same applies to the other vertex data types:;
#X msg 234 346 colorR r;
#X msg 294 346 colorG g;
#X msg 354 346 colorB b;
#X msg 415 346 colorA a;
#X msg 36 376 texture U V;
#X msg 140 376 texture UV;
#X msg 234 376 textureU U;
#X msg 304 376 textureV V;
#X msg 36 406 normal x y z;
#X msg 36 346 color r g b a;
#X msg 141 346 color rgba;
#X msg 140 406 normal xyz;
#X msg 234 406 normalX x;
#X msg 304 406 normalY y;
#X msg 374 406 normalZ z;
#X msg 36 316 position X Y Z;
#X msg 140 316 position XYZ;
#X msg 234 316 positionX X;
#X msg 314 316 positionY Y;
#X msg 394 316 positionZ Z;
#X text 51 453 offset is always optional (default=0) \, and comes after
the table names;
#X text 50 507 unset table data is initialized to 0.f;
#X restore 381 319 pd tabledata;
#X text 37 394 Inlet 1: message: resize float : change the number of
vertex to use;
#X text 33 108 Vertex position \, color etc can be copy from pd table
to the vertex buffer (VBO = Vertex Buffer Object). This object can
draw lot's of points very efficiently.;
#X obj 750 202 t b b b;
#N canvas 717 114 450 459 load_tables 0;
#X obj 31 71 noise~;
#X obj 32 94 tabwrite~ colorr;
#X obj 32 114 noise~;
#X obj 33 158 noise~;
#X obj 33 137 tabwrite~ colorg;
#X obj 34 181 tabwrite~ colorb;
#X obj 28 322 noise~;
#X obj 29 365 noise~;
#X obj 30 409 noise~;
#X obj 29 345 tabwrite~ blablax;
#X obj 31 432 tabwrite~ blablaz;
#X obj 30 388 tabwrite~ blablay;
#X msg 288 48 dsp 1;
#X obj 288 68 s pd;
#X obj 288 28 loadbang;
#X obj 119 34 t b;
#X obj 119 13 loadbang;
#X msg 152 34 bang;
#X obj 215 10 inlet;
#X obj 267 122 table colorr 2;
#X obj 267 141 table colorg 2;
#X obj 267 164 table colorb 2;
#X obj 267 186 table colora 2;
#X obj 267 280 table blablax 2;
#X obj 266 299 table blablay 2;
#X obj 266 319 table blablaz 2;
#X obj 265 216 table blablau 2;
#X obj 265 236 table blablav 2;
#X obj 37 217 noise~;
#X obj 38 261 noise~;
#X obj 38 240 tabwrite~ blablau;
#X obj 39 284 tabwrite~ blablav;
#X connect 0 0 1 0;
#X connect 2 0 4 0;
#X connect 3 0 5 0;
#X connect 6 0 9 0;
#X connect 7 0 11 0;
#X connect 8 0 10 0;
#X connect 12 0 13 0;
#X connect 14 0 12 0;
#X connect 15 0 1 0;
#X connect 15 0 4 0;
#X connect 15 0 5 0;
#X connect 15 0 9 0;
#X connect 15 0 11 0;
#X connect 15 0 10 0;
#X connect 15 0 30 0;
#X connect 15 0 31 0;
#X connect 16 0 15 0;
#X connect 17 0 15 0;
#X connect 18 0 15 0;
#X connect 28 0 30 0;
#X connect 29 0 31 0;
#X restore 807 232 pd load_tables;
#X obj 589 685 gemvertexbuffer;
#X msg 738 579 draw_range \$1 \$2;
#X obj 738 559 pack 0 0;
#X floatatom 738 517 5 0 0 0 - - -;
#X floatatom 784 517 5 0 0 0 - - -;
#X obj 784 536 t b f;
#X text 37 459 Inlet 1: message: draw_range float float : set the range
for partial draw.;
#X text 736 490 set start and end indexes to draw only a range of VBO
;
#X text 678 468 as soon as they are updated;
#X text 608 453 default : all VBO are disabled \, but they are enabled
;
#X floatatom 709 145 5 1 64 0 - - -;
#X floatatom 729 123 5 0 0 0 - - -;
#X msg 802 603 draw linee;
#X msg 624 320 texture blablau blablav;
#X obj 629 55 alpha;
#X obj 489 274 tgl 15 0 empty empty empty 17 7 0 10 -262144 -1 -1 1
1;
#X obj 487 303 metro 100;
#X connect 0 0 1 0;
#X connect 9 0 10 0;
#X connect 10 0 9 0;
#X connect 22 0 61 0;
#X connect 23 0 61 0;
#X connect 24 0 23 0;
#X connect 25 0 37 0;
#X connect 26 0 45 0;
#X connect 27 0 47 0;
#X connect 28 0 25 0;
#X connect 29 0 75 0;
#X connect 29 0 27 0;
#X connect 31 0 32 0;
#X connect 32 0 61 0;
#X connect 33 0 36 0;
#X connect 34 0 35 0;
#X connect 35 0 61 0;
#X connect 36 0 61 0;
#X connect 37 0 38 0;
#X connect 38 0 61 0;
#X connect 39 0 40 0;
#X connect 40 0 41 0;
#X connect 41 0 37 0;
#X connect 43 0 29 0;
#X connect 45 0 61 0;
#X connect 46 0 47 1;
#X connect 47 0 28 0;
#X connect 48 0 61 0;
#X connect 49 0 61 0;
#X connect 50 0 61 0;
#X connect 51 0 59 0;
#X connect 59 0 48 0;
#X connect 59 1 49 0;
#X connect 59 2 60 0;
#X connect 62 0 61 0;
#X connect 63 0 62 0;
#X connect 64 0 63 0;
#X connect 65 0 66 0;
#X connect 66 0 63 0;
#X connect 66 1 63 1;
#X connect 71 0 25 1;
#X connect 72 0 28 3;
#X connect 73 0 61 0;
#X connect 74 0 61 0;
#X connect 76 0 77 0;
#X connect 77 0 74 0;
