#N canvas 362 123 1085 776 10;
#X obj 371 -98 loadbang;
#X obj 53 237 t a b;
#X obj 330 104 until;
#X obj 330 128 f;
#X obj 361 129 + 1;
#X msg 380 100 0;
#X obj 330 150 t f f;
#X obj 330 214 * 7;
#X obj 330 193 - 0.5;
#X msg 346 399 draw linestrip;
#X obj 346 378 loadbang;
#X obj 345 -212 loadbang;
#X msg 345 -190 0;
#X msg 502 399 draw points;
#X floatatom 342 38 5 0 0 0 - - -, f 5;
#X obj 330 171 /;
#X obj 342 61 t f b f f;
#X msg 493 227 resize \$1;
#X obj 493 249 t a a a;
#X obj 346 -165 tgl 15 0 empty empty empty 17 7 0 10 -262144 -1 -1
0 1;
#X obj 330 235 tabwrite phasor;
#X obj 507 306 s sound;
#X obj 532 282 s phasor;
#X obj 398 -56 bng 15 250 50 0 empty empty empty 17 7 0 10 -262144
-1 -1;
#X obj -121 163 gemlist;
#X obj -121 135 until;
#X obj -121 91 t b a;
#X msg -121 113 1;
#X obj 346 -142 gemhead a;
#X msg 371 -29 1024;
#X obj 601 -118 table sound 1024;
#X obj 600 -95 table phasor 1024;
#X msg 598 399 draw line;
#X obj 380 -361 tabwrite sound;
#X msg 425 -396 0;
#X obj 399 -465 bng 15 250 50 0 empty empty empty 17 7 0 10 -262144
-1 -1;
#X obj 391 -429 t b b b b;
#X msg 458 -405 1;
#X msg 383 -396 -10;
#X obj 581 -345 f;
#X obj 617 -345 + 1;
#X obj 597 -502 bng 15 250 50 0 empty empty empty 17 7 0 10 -262144
-1 -1;
#X msg 646 -363 stop;
#X obj 648 -386 sel 1;
#X obj 588 -463 t b b;
#X msg 622 -438 -1;
#X obj 572 -312 t f f;
#X floatatom 447 -265 5 0 0 0 - - -, f 5;
#X obj 645 -409 >= 1023;
#X obj 133 -263 tabwrite phasor;
#X obj 52 -401 bng 15 250 50 0 empty empty empty 17 7 0 10 -262144
-1 -1;
#X obj 107 -404 bng 15 250 50 0 empty empty empty 17 7 0 10 -262144
-1 -1;
#X obj 51 -379 t b b;
#X msg 65 -346 0;
#X obj 106 -382 t b b;
#X msg 139 -342 1;
#X msg 111 -344 1;
#X msg 43 -318 30;
#X floatatom 129 -296 5 0 0 0 - - -, f 5;
#X floatatom 188 -298 5 0 0 0 - - -, f 5;
#X obj 151 -224 inlet;
#X obj 652 51 table POSXX 1024;
#X obj 655 108 table POSYY 1024;
#X obj 654 161 table POSZZ 1024;
#X msg 115 306 posX phasor \, posY sound;
#X msg 81 270 posX POSXX \, posY POSYY \, posZ POSZZ;
#X msg 773 109 \; POSYY const 0;
#X msg 772 169 \; POSZZ const 0;
#X msg 775 46 \; POSXX const 0;
#X obj 476 14 osc~;
#X floatatom 476 -15 5 0 0 0 - - -, f 5;
#X msg 532 26 bang;
#X obj 475 55 tabwrite~ POSXX;
#X obj 473 138 tabwrite~ POSYY;
#X msg 474 112 bang;
#X obj 123 140 tabwrite~ POSXX;
#X obj 659 -233 tabwrite phasor;
#X obj 517 -207 tabwrite POSXX;
#X obj 554 -401 metro 1;
#X floatatom 57 -63 5 0 0 0 - - -, f 5;
#X floatatom 99 -64 5 0 0 0 - - -, f 5;
#X obj 120 113 tabwrite~ POSXX;
#X obj 58 416 gemvertexbuffer 1024;
#X msg 693 -441 1023;
#X obj 812 -175 tgl 15 0 empty empty empty 17 7 0 10 -262144 -1 -1
1 1;
#X obj 731 -85 *~ 3;
#X msg 830 -126 start 2;
#X obj 728 -46 tabwrite~ POSYY;
#X obj 807 -195 loadbang;
#X obj 288 -293 oscillo.tabwrite;
#X obj 725 -120 adc~;
#X obj 511 -303 / 1024;
#X obj 516 -266 - 0.5;
#X obj 34 -33 scaleXYZ 13 0.5 1;
#X obj 801 -152 metro 10;
#X obj 46 60 colorRGB 0 0 0 1;
#X obj 100 28 t a;
#X msg 89 -7 1;
#X msg 127 -1 0;
#X obj 34 -182 r oscillo;
#X obj 34 -150 translateXYZ 0 0 -4;
#X obj 75 -118 spigot;
#X obj -108 379 colorRGB 1 1 1 1;
#X connect 0 0 29 0;
#X connect 1 0 82 0;
#X connect 1 1 65 0;
#X connect 2 0 3 0;
#X connect 3 0 4 0;
#X connect 3 0 6 0;
#X connect 4 0 3 1;
#X connect 5 0 3 1;
#X connect 6 0 15 0;
#X connect 6 1 20 1;
#X connect 7 0 20 0;
#X connect 8 0 7 0;
#X connect 9 0 82 0;
#X connect 10 0 9 0;
#X connect 11 0 12 0;
#X connect 12 0 19 0;
#X connect 13 0 82 0;
#X connect 14 0 16 0;
#X connect 15 0 8 0;
#X connect 16 0 2 0;
#X connect 16 1 5 0;
#X connect 16 2 15 1;
#X connect 16 3 17 0;
#X connect 17 0 18 0;
#X connect 18 0 82 0;
#X connect 18 1 21 0;
#X connect 18 2 22 0;
#X connect 19 0 28 0;
#X connect 23 0 29 0;
#X connect 25 0 24 0;
#X connect 26 0 27 0;
#X connect 26 1 24 1;
#X connect 27 0 25 0;
#X connect 29 0 14 0;
#X connect 32 0 82 0;
#X connect 34 0 33 1;
#X connect 35 0 36 0;
#X connect 36 0 38 0;
#X connect 36 1 34 0;
#X connect 36 2 38 0;
#X connect 36 3 37 0;
#X connect 37 0 33 1;
#X connect 38 0 33 0;
#X connect 39 0 40 0;
#X connect 39 0 46 0;
#X connect 39 0 48 0;
#X connect 40 0 39 1;
#X connect 41 0 44 0;
#X connect 42 0 78 0;
#X connect 43 0 42 0;
#X connect 44 0 78 0;
#X connect 44 1 45 0;
#X connect 45 0 40 0;
#X connect 46 0 91 0;
#X connect 46 1 77 1;
#X connect 48 0 43 0;
#X connect 50 0 52 0;
#X connect 51 0 54 0;
#X connect 52 0 57 0;
#X connect 52 1 53 0;
#X connect 53 0 49 1;
#X connect 54 0 56 0;
#X connect 54 1 55 0;
#X connect 55 0 49 1;
#X connect 56 0 49 0;
#X connect 57 0 49 0;
#X connect 58 0 49 0;
#X connect 59 0 49 1;
#X connect 60 0 101 1;
#X connect 65 0 82 0;
#X connect 70 0 69 0;
#X connect 71 0 72 0;
#X connect 74 0 73 0;
#X connect 78 0 39 0;
#X connect 79 0 93 1;
#X connect 80 0 93 2;
#X connect 82 0 102 0;
#X connect 83 0 48 1;
#X connect 84 0 94 0;
#X connect 85 0 87 0;
#X connect 88 0 84 0;
#X connect 90 0 85 0;
#X connect 90 1 85 0;
#X connect 91 0 47 0;
#X connect 91 0 92 0;
#X connect 92 0 77 0;
#X connect 93 0 95 0;
#X connect 94 0 86 0;
#X connect 95 0 1 0;
#X connect 96 0 95 2;
#X connect 96 0 95 1;
#X connect 96 0 95 3;
#X connect 97 0 96 0;
#X connect 98 0 96 0;
#X connect 99 0 100 0;
#X connect 100 0 101 0;
#X connect 101 0 93 0;
