#N canvas 327 187 1223 648 10;
#X obj 97 206 gemhead;
#X obj 97 341 t a b;
#X obj 233 530 t a;
#X msg -19 676 draw default;
#X msg -26 657 draw fill;
#X obj -26 720 t a;
#X msg -40 635 draw lineloop;
#X msg -12 695 draw lines;
#X obj 96 570 gemvertexbuffer 1024;
#X obj 97 257 translateXYZ 0 -2 0;
#X obj 98 234 colorRGB 1 1 1 1;
#X msg 232 375 posX XX \, posY in1 \, posZ ZZ;
#X obj -30 608 loadbang;
#X obj 493 328 t a b;
#X obj 493 431 GEMglPointSize 1;
#X floatatom 586 411 5 1 64 0 - - -;
#X obj 629 537 t a;
#X obj 400 680 t a;
#X obj 492 577 gemvertexbuffer 1024;
#X obj 800 325 t a b;
#X obj 800 428 GEMglPointSize 1;
#X floatatom 893 408 5 1 64 0 - - -;
#X obj 936 534 t a;
#X obj 799 574 gemvertexbuffer 1024;
#X obj 1115 320 t a b;
#X obj 1115 423 GEMglPointSize 1;
#X floatatom 1208 403 5 1 64 0 - - -;
#X obj 1251 529 t a;
#X obj 1114 569 gemvertexbuffer 1024;
#X msg 935 379 posX XX \, posY in3 \, posZ ZZ;
#X msg 628 382 posX XX \, posY in2 \, posZ ZZ;
#X msg 1249 374 posX XX \, posY in4 \, posZ ZZ;
#X obj 95 179 tgl 15 0 empty empty empty 17 7 0 10 -257985 -1 -1 1
1;
#X obj 588 100 tgl 24 0 empty empty empty 17 7 0 10 -257985 -1 -1 1
1;
#X obj 482 145 hsl 128 15 0.1 150 0 0 empty empty amp_0.5_>_50 -2 -8
0 10 -262144 -1 -1 0 1;
#X obj 730 72 r vertbuffonoff;
#X msg 731 709 draw_range \$1 \$2;
#X obj 731 689 pack 0 0;
#X floatatom 731 647 5 0 0 0 - - -;
#X floatatom 777 647 5 0 0 0 - - -;
#X obj 777 666 t b f;
#X msg 428 588 draw lineloop;
#X msg 415 475 draw lines;
#X floatatom 280 198 5 0 0 0 - - -;
#X obj 97 322 separator;
#X obj 480 302 separator;
#X obj 795 297 separator;
#X obj 1113 290 separator;
#X floatatom 232 180 5 0 0 0 - - -;
#X obj 97 281 scaleXYZ 5 10 1;
#X obj 254 306 GEMglPointSize 1;
#X floatatom 347 286 5 1 64 0 - - -;
#X msg 100 636 draw lineloopl;
#X msg 104 684 draw points;
#X msg 88 705 draw line;
#X msg 766 153 destroy;
#X obj 838 219 gemwin;
#X msg 853 195 create \, 1;
#X connect 0 0 10 0;
#X connect 1 0 8 0;
#X connect 1 1 11 0;
#X connect 2 0 8 0;
#X connect 3 0 5 0;
#X connect 4 0 5 0;
#X connect 5 0 17 0;
#X connect 6 0 5 0;
#X connect 7 0 5 0;
#X connect 9 0 49 0;
#X connect 10 0 9 0;
#X connect 11 0 2 0;
#X connect 12 0 6 0;
#X connect 13 0 14 0;
#X connect 13 1 30 0;
#X connect 14 0 18 0;
#X connect 15 0 14 1;
#X connect 16 0 18 0;
#X connect 17 0 18 0;
#X connect 17 0 23 0;
#X connect 17 0 28 0;
#X connect 17 0 8 0;
#X connect 19 0 20 0;
#X connect 19 1 29 0;
#X connect 20 0 23 0;
#X connect 21 0 20 1;
#X connect 22 0 23 0;
#X connect 24 0 25 0;
#X connect 24 1 31 0;
#X connect 25 0 28 0;
#X connect 26 0 25 1;
#X connect 27 0 28 0;
#X connect 29 0 22 0;
#X connect 30 0 16 0;
#X connect 31 0 27 0;
#X connect 32 0 0 0;
#X connect 33 0 32 0;
#X connect 34 0 49 2;
#X connect 35 0 33 0;
#X connect 36 0 18 0;
#X connect 37 0 36 0;
#X connect 38 0 37 0;
#X connect 39 0 40 0;
#X connect 40 0 37 0;
#X connect 40 1 37 1;
#X connect 41 0 18 0;
#X connect 42 0 18 0;
#X connect 43 0 49 1;
#X connect 44 0 1 0;
#X connect 45 0 13 0;
#X connect 46 0 19 0;
#X connect 47 0 24 0;
#X connect 48 0 9 2;
#X connect 49 0 50 0;
#X connect 50 0 44 0;
#X connect 51 0 50 1;
#X connect 52 0 5 0;
#X connect 53 0 17 0;
#X connect 54 0 5 0;
#X connect 55 0 56 0;
#X connect 57 0 56 0;
#X coords 0 -1 1 1 512 60 1 100 100;
