#N canvas 253 135 1150 703 10;
#X obj 468 77 adc~;
#X obj 505 2 tgl 15 0 empty empty empty 17 7 0 10 -262144 -1 -1 1 1
;
#X floatatom 344 145 5 0 0 0 - - -;
#X obj 133 227 cube;
#X obj 241 -27 gemhead 100 a;
#X obj 30 555 cnv 15 450 100 empty empty empty 20 12 0 14 -233017 -66577
0;
#X obj 31 715 cnv 15 450 375 empty empty empty 20 12 0 14 -233017 -66577
0;
#X obj 31 660 cnv 15 450 50 empty empty empty 20 12 0 14 -195568 -66577
0;
#X text 83 506 Class: geometric object;
#X text 85 486 Synopsis: [gemvertexbuffer];
#X text 30 559 Description: Renders a vertexbuffer.;
#X text 35 658 Arguments:;
#X text 33 720 Inlets:;
#X text 51 732 Inlet 1: gemlist;
#X text 33 1059 Outlets:;
#X text 45 1072 Outlet 1: gemlist;
#X obj 593 486 cnv 15 400 700 empty empty empty 20 12 0 14 -228992
-66577 0;
#X obj 600 1147 cnv 15 150 30 empty empty empty 20 12 0 14 -24198 -66577
0;
#X msg 816 1072 draw line;
#X msg 826 1093 draw points;
#X msg 716 863 color_enable \$1;
#X obj 697 863 tgl 15 0 empty empty empty 17 7 0 10 -262144 -1 -1 0
1;
#X obj 603 613 GEMglPointSize 1;
#X obj 840 1117 loadbang;
#X obj 603 555 translateXYZ 0 0 -2;
#X obj 603 593 rotateXYZ -45 0 -50;
#X text 618 733 update VBO using table value;
#X obj 667 845 tgl 15 0 empty empty empty 17 7 0 10 -262144 -1 -1 0
1;
#X msg 689 843 position_enable \$1;
#X obj 753 903 tgl 15 0 empty empty empty 17 7 0 10 -262144 -1 -1 0
1;
#X obj 723 885 tgl 15 0 empty empty empty 17 7 0 10 -262144 -1 -1 0
1;
#X msg 745 883 texture_enable \$1;
#X msg 772 903 normal_enable \$1;
#X obj 603 694 pix_image;
#X obj 603 713 pix_texture;
#X obj 617 632 bng 15 250 50 0 empty empty empty 0 -6 0 8 -262144 -1
-1;
#N canvas 1 51 450 300 openpanel 0;
#X obj 114 62 inlet;
#X obj 121 254 outlet;
#X obj 114 125 openpanel;
#X msg 114 162 set open \$1;
#X obj 114 199 t b a;
#X connect 0 0 2 0;
#X connect 2 0 3 0;
#X connect 3 0 4 0;
#X connect 4 0 1 0;
#X connect 4 1 1 0;
#X restore 617 649 pd openpanel;
#X msg 617 668 open /home/rep/Background/hachage_out_#2.jpg;
#X text 695 828 enable / disable specific VBO;
#X text 601 493 Example:;
#X msg 840 1137 resize 128;
#X floatatom 660 575 5 0 0 0 - - -;
#X obj 603 574 scale 3;
#X msg 617 750 position blablax blablay blablaz;
#X msg 628 769 color colorr colorg colorb colora;
#X msg 638 789 texture colorr colorg;
#X msg 651 810 normal colorr blablay blablaz;
#X obj 925 721 bng 15 250 50 0 empty \$0-init100 empty 17 7 0 10 -262144
-1 -1;
#X obj 865 535 cnv 15 120 160 empty empty empty 20 12 0 14 -233017
-66577 0;
#N canvas 615 145 657 666 lorenz 0;
#X floatatom 82 248 5 0 0 0 - - -;
#X floatatom 124 248 5 0 0 0 - - -;
#X floatatom 83 201 5 0 0 0 - - -;
#X floatatom 125 201 5 0 0 0 - - -;
#X floatatom 81 156 5 0 0 0 - - -;
#X floatatom 124 156 5 0 0 0 - - -;
#N canvas 145 116 1131 666 table 0;
#X obj 266 31 loadbang;
#X msg 266 53 dsp 1;
#X obj 266 75 s pd;
#X obj 38 33 loadbang;
#X obj 89 68 sig~ 1;
#X obj 89 140 osc~ 1;
#X obj 88 160 abs~;
#X obj 87 223 osc~ 11;
#X obj 86 243 abs~;
#X obj 38 58 bng 15 250 50 0 empty empty empty 17 7 0 10 -262144 -1
-1;
#X obj 87 310 sig~ 0.7;
#X obj 392 275 v pr;
#X obj 523 276 v r;
#X obj 449 277 v b;
#X floatatom 392 246 5 0 0 0 - - -;
#X floatatom 523 248 5 0 0 0 - - -;
#X msg 393 221 10;
#X obj 447 218 expr 8./3;
#X msg 344 344 set 1.2 2.3 4.4;
#X floatatom 449 247 7 0 0 0 - - -;
#X msg 321 308 stop;
#X msg 291 275 start;
#X floatatom 615 248 5 0 0 0 - - -;
#X obj 615 277 v dt;
#X msg 526 220 18;
#X msg 611 221 0.01;
#X obj 344 167 bng 15 250 50 0 empty empty empty 20 8 0 8 -262144 -1
-1;
#X text 679 250 <- experiment with these numbers;
#X obj 705 223 line;
#X obj 344 449 /~ 20;
#X obj 450 446 /~ 20;
#X obj 556 445 /~ 20;
#X msg 706 198 0.01 \, 0.04 5000;
#X obj 344 393 fexpr~ $y1+(pr*$y2-pr*$y1)*dt \; $y2 +(-$y1*$y3 + r*$y1-$y2)*dt
\; $y3+($y1*$y2 - b*$y3)*dt;
#X obj 276 164 loadbang;
#X text 329 108 This is an example of how fexpr~ could be used for
solving differential equations \, in this case the lorenz equations
which generate chotic signals;
#X text 577 390 Note the following shorthands:;
#X text 576 406 $y1 -> $y1[-1] \, $y2 -> $y2[-1] \, .....;
#X text 464 344 the 'set' commands sets the initial previous values
;
#X obj 639 442 bng 15 250 50 0 empty empty empty 17 7 0 10 -262144
-1 -1;
#X obj 673 437 loadbang;
#X obj 572 473 sig~ -1;
#X obj 673 467 metro 1000;
#X obj 89 391 table \$0blablax2 100000;
#X obj 87 411 table \$0blablay2 100000;
#X obj 87 431 table \$0blablaz2 100000;
#X obj 86 356 table \$0colora2 100000;
#X obj 86 335 tabwrite~ \$0colora2;
#X obj 87 287 table \$0colorb2 100000;
#X obj 86 265 tabwrite~ \$0colorb2;
#X obj 88 203 table \$0colorg2 100000;
#X obj 87 180 tabwrite~ \$0colorg2;
#X obj 87 112 table \$0colorr2 100000;
#X obj 88 91 tabwrite~ \$0colorr2;
#X obj 344 537 tabwrite~ \$0blablax2;
#X obj 451 517 tabwrite~ \$0blablay2;
#X obj 555 497 tabwrite~ \$0blablaz2;
#X connect 0 0 1 0;
#X connect 1 0 2 0;
#X connect 3 0 9 0;
#X connect 4 0 53 0;
#X connect 5 0 6 0;
#X connect 6 0 51 0;
#X connect 7 0 8 0;
#X connect 8 0 49 0;
#X connect 9 0 47 0;
#X connect 9 0 49 0;
#X connect 9 0 51 0;
#X connect 9 0 53 0;
#X connect 10 0 47 0;
#X connect 14 0 11 0;
#X connect 15 0 12 0;
#X connect 16 0 14 0;
#X connect 17 0 19 0;
#X connect 18 0 33 0;
#X connect 19 0 13 0;
#X connect 20 0 33 0;
#X connect 21 0 33 0;
#X connect 22 0 23 0;
#X connect 24 0 15 0;
#X connect 25 0 22 0;
#X connect 26 0 16 0;
#X connect 26 0 17 0;
#X connect 26 0 24 0;
#X connect 26 0 25 0;
#X connect 26 0 18 0;
#X connect 26 0 21 0;
#X connect 28 0 22 0;
#X connect 29 0 54 0;
#X connect 30 0 55 0;
#X connect 31 0 56 0;
#X connect 32 0 28 0;
#X connect 33 0 29 0;
#X connect 33 1 30 0;
#X connect 33 2 31 0;
#X connect 34 0 26 0;
#X connect 39 0 54 0;
#X connect 39 0 55 0;
#X connect 39 0 56 0;
#X connect 40 0 42 0;
#X connect 41 0 56 0;
#X connect 42 0 39 0;
#X restore 259 348 pd table;
#X obj 38 136 alpha;
#X msg 118 577 draw line;
#X msg 184 575 draw points;
#X floatatom 147 288 5 0 0 0 - - -;
#X msg 82 449 color_enable \$1;
#X obj 82 430 tgl 15 0 empty empty empty 17 7 0 10 -262144 -1 -1 0
1;
#X obj 38 222 scaleXYZ 3 3 3;
#X obj 38 305 GEMglPointSize 1;
#X obj 38 174 translateXYZ 0 0 -2;
#X obj 38 267 rotateXYZ -45 0 -50;
#X obj 38 114 gemhead;
#X obj 56 346 gemhead 10;
#X obj 56 327 tgl 15 0 empty empty empty 17 7 0 10 -262144 -1 -1 0
1;
#X obj 56 367 t b;
#X obj 98 115 switch~;
#X obj 38 43 tgl 15 0 empty empty empty 17 7 0 10 -262144 -1 -1 0 1
;
#X obj 116 10 loadbang;
#X obj 90 497 delay 1000;
#X obj 90 475 sel 1;
#X obj 38 13 inlet;
#X obj 218 469 bng 15 250 50 0 empty empty empty 17 7 0 10 -262144
-1 -1;
#X obj 218 444 loadbang;
#X obj 38 614 gemvertexbuffer 100000;
#X msg 116 32 0;
#X obj 91 516 i \$0;
#X msg 90 538 colorR \$1colorr2 \, colorG \$1colorg2 \, colorB \$1colorb2
\, colorA \$1colora2;
#X obj 38 69 t f f f f;
#X obj 56 387 i \$0;
#X msg 56 407 posX \$1blablax2 \, posY \$1blablay2 \, posZ \$1blablaz2
;
#X connect 0 0 16 1;
#X connect 1 0 16 2;
#X connect 2 0 13 1;
#X connect 3 0 13 2;
#X connect 4 0 15 1;
#X connect 5 0 15 2;
#X connect 7 0 15 0;
#X connect 8 0 29 0;
#X connect 9 0 29 0;
#X connect 10 0 14 1;
#X connect 11 0 29 0;
#X connect 12 0 11 0;
#X connect 13 0 16 0;
#X connect 14 0 29 0;
#X connect 15 0 13 0;
#X connect 16 0 14 0;
#X connect 17 0 7 0;
#X connect 18 0 20 0;
#X connect 19 0 18 0;
#X connect 20 0 34 0;
#X connect 22 0 33 0;
#X connect 23 0 30 0;
#X connect 24 0 31 0;
#X connect 25 0 24 0;
#X connect 26 0 22 0;
#X connect 27 0 31 0;
#X connect 28 0 27 0;
#X connect 30 0 22 0;
#X connect 31 0 32 0;
#X connect 32 0 29 0;
#X connect 33 0 17 0;
#X connect 33 1 19 0;
#X connect 33 2 25 0;
#X connect 33 3 21 0;
#X connect 34 0 35 0;
#X connect 35 0 29 0;
#X restore 873 579 pd lorenz;
#X obj 873 559 tgl 15 0 empty empty empty 17 7 0 10 -262144 -1 -1 0
1;
#N canvas 285 255 805 628 wave 0;
#X floatatom 87 237 5 0 0 0 - - -;
#X floatatom 129 237 5 0 0 0 - - -;
#X floatatom 172 237 5 0 0 0 - - -;
#X floatatom 88 190 5 0 0 0 - - -;
#X floatatom 130 190 5 0 0 0 - - -;
#X floatatom 173 190 5 0 0 0 - - -;
#X floatatom 86 145 5 0 0 0 - - -;
#X floatatom 129 145 5 0 0 0 - - -;
#X floatatom 173 145 5 0 0 0 - - -;
#X obj 43 592 gemvertexbuffer;
#N canvas 145 161 1131 747 table 0;
#X obj 36 59 bng 15 250 50 0 empty empty empty 17 7 0 10 -262144 -1
-1;
#X obj 583 129 until;
#X msg 583 110 100;
#N canvas 0 50 450 300 count 0;
#X obj 47 31 inlet;
#X obj 47 126 f;
#X obj 157 30 inlet;
#X obj 65 104 + 1;
#X obj 47 154 t f f;
#X msg 157 58 0;
#X obj 47 187 outlet;
#X connect 0 0 1 0;
#X connect 1 0 4 0;
#X connect 2 0 5 0;
#X connect 3 0 1 1;
#X connect 4 0 6 0;
#X connect 4 1 3 0;
#X connect 5 0 1 1;
#X restore 583 148 pd count;
#X obj 440 70 bng 15 250 50 0 empty empty empty 17 7 0 10 -262144 -1
-1;
#X obj 583 91 t b b;
#X obj 583 264 until;
#X msg 583 245 100;
#N canvas 0 50 450 300 count 0;
#X obj 47 31 inlet;
#X obj 47 126 f;
#X obj 157 30 inlet;
#X obj 65 104 + 1;
#X obj 47 154 t f f;
#X msg 157 58 0;
#X obj 47 187 outlet;
#X connect 0 0 1 0;
#X connect 1 0 4 0;
#X connect 2 0 5 0;
#X connect 3 0 1 1;
#X connect 4 0 6 0;
#X connect 4 1 3 0;
#X connect 5 0 1 1;
#X restore 583 283 pd count;
#X obj 583 224 t b b f;
#X obj 583 359 pack f f;
#X obj 583 321 - 0.5;
#X obj 583 302 / 99;
#X obj 583 340 * 2;
#X obj 583 186 - 0.5;
#X obj 583 167 / 99;
#X obj 583 205 * 2;
#X obj 583 383 t a a a a a a;
#X obj 671 404 unpack f f;
#X obj 583 509 + 0.01;
#X obj 796 513 + 0.01;
#N canvas 0 50 450 300 count 0;
#X obj 47 31 inlet;
#X obj 47 126 f;
#X obj 157 30 inlet;
#X obj 65 104 + 1;
#X obj 47 154 t f f;
#X msg 157 58 0;
#X obj 47 187 outlet;
#X connect 0 0 1 0;
#X connect 1 0 4 0;
#X connect 2 0 5 0;
#X connect 3 0 1 1;
#X connect 4 0 6 0;
#X connect 4 1 3 0;
#X connect 5 0 1 1;
#X restore 692 582 pd count;
#X obj 583 551 t f b;
#N canvas 0 50 450 300 count 0;
#X obj 47 31 inlet;
#X obj 47 126 f;
#X obj 157 30 inlet;
#X obj 65 104 + 1;
#X obj 47 154 t f f;
#X msg 157 58 0;
#X obj 47 187 outlet;
#X connect 0 0 1 0;
#X connect 1 0 4 0;
#X connect 2 0 5 0;
#X connect 3 0 1 1;
#X connect 4 0 6 0;
#X connect 4 1 3 0;
#X connect 5 0 1 1;
#X restore 905 585 pd count;
#X obj 796 554 t f b;
#X obj 640 508 - 0.01;
#X obj 851 513 - 0.01;
#X obj 653 423 unpack f f;
#X obj 635 442 unpack f f;
#X obj 583 461 unpack f f;
#X obj 440 92 t b b;
#X obj 440 134 until;
#N canvas 0 50 450 300 count 0;
#X obj 47 31 inlet;
#X obj 47 126 f;
#X obj 157 30 inlet;
#X obj 65 104 + 1;
#X obj 47 154 t f f;
#X msg 157 58 0;
#X obj 47 187 outlet;
#X connect 0 0 1 0;
#X connect 1 0 4 0;
#X connect 2 0 5 0;
#X connect 3 0 1 1;
#X connect 4 0 6 0;
#X connect 4 1 3 0;
#X connect 5 0 1 1;
#X restore 440 153 pd count;
#X obj 440 176 t f f f;
#X obj 440 239 t f f;
#X obj 440 261 *;
#X obj 485 240 t f f;
#X obj 485 262 *;
#X obj 440 292 +;
#X obj 440 335 sqrt;
#X obj 440 416 cos;
#X obj 440 313 t f f;
#X obj 477 377 exp;
#X obj 440 442 /;
#X msg 440 115 60000;
#X obj 477 355 * 2;
#X obj 341 46 gemhead 10;
#X obj 341 72 t b b;
#X obj 349 318 f;
#X obj 440 380 +;
#X floatatom 903 395 5 0 0 0 - - -;
#X obj 583 71 bng 15 250 50 0 empty empty empty 17 7 0 10 -262144 -1
-1;
#X obj 87 310 sig~ 0.3;
#X obj 903 371 / 99;
#X msg 903 347 1;
#X obj 383 322 - 0.1;
#X obj 440 354 * 7;
#X obj 440 31 t b b b;
#X text 162 619 color and position are updated at every frame. you
just have to change array value....;
#X text 156 504 replace this with iem_tab_* stuf in order to increase
performances if you wish to update point position at every frame;
#X obj 36 -2 inlet;
#X obj 123 122 f;
#X obj 279 120 f;
#X obj 438 6 bng 15 250 50 0 empty empty empty 17 7 0 10 -262144 -1
-1;
#X obj 123 56 sin;
#X obj 123 78 + 1;
#X obj 123 100 * 0.5;
#X obj 123 35 * 110;
#X obj 87 244 table \$0colorg3 60000;
#X obj 85 266 table \$0colorr3 60000;
#X obj 86 286 table \$0colorb3 60000;
#X obj 142 196 tabwrite \$0colorg3;
#X obj 141 172 tabwrite \$0colorb3;
#X obj 142 150 tabwrite \$0colorr3;
#X obj 86 335 tabwrite~ \$0colora3;
#X obj 86 356 table \$0colora3 60000;
#X obj 87 393 table \$0blablax3 60000;
#X obj 86 412 table \$0blablay3 60000;
#X obj 87 431 table \$0blablaz3 60000;
#X obj 440 466 tabwrite \$0blablaz3;
#X obj 463 198 tabread \$0blablay3;
#X obj 440 218 tabread \$0blablax3;
#X obj 582 605 tabwrite \$0blablax3;
#X obj 796 607 tabwrite \$0blablay3;
#X connect 0 0 74 0;
#X connect 1 0 3 0;
#X connect 2 0 1 0;
#X connect 3 0 15 0;
#X connect 4 0 30 0;
#X connect 5 0 2 0;
#X connect 5 1 3 1;
#X connect 5 1 21 1;
#X connect 5 1 23 1;
#X connect 6 0 8 0;
#X connect 7 0 6 0;
#X connect 8 0 12 0;
#X connect 9 0 7 0;
#X connect 9 1 8 1;
#X connect 9 2 10 1;
#X connect 10 0 17 0;
#X connect 11 0 13 0;
#X connect 12 0 11 0;
#X connect 13 0 10 0;
#X connect 14 0 16 0;
#X connect 15 0 14 0;
#X connect 16 0 9 0;
#X connect 17 0 29 0;
#X connect 17 1 18 0;
#X connect 17 2 27 0;
#X connect 17 3 28 0;
#X connect 17 4 27 0;
#X connect 17 5 18 0;
#X connect 18 0 25 0;
#X connect 18 1 20 0;
#X connect 19 0 22 0;
#X connect 20 0 24 0;
#X connect 21 0 82 1;
#X connect 22 0 82 0;
#X connect 22 1 21 0;
#X connect 23 0 83 1;
#X connect 24 0 83 0;
#X connect 24 1 23 0;
#X connect 25 0 22 0;
#X connect 26 0 24 0;
#X connect 27 0 19 0;
#X connect 27 1 26 0;
#X connect 28 0 25 0;
#X connect 28 1 26 0;
#X connect 29 0 19 0;
#X connect 29 1 20 0;
#X connect 30 0 44 0;
#X connect 30 1 32 1;
#X connect 31 0 32 0;
#X connect 32 0 33 0;
#X connect 33 0 81 0;
#X connect 33 1 80 0;
#X connect 33 2 62 0;
#X connect 33 2 79 1;
#X connect 34 0 35 0;
#X connect 34 1 35 1;
#X connect 35 0 38 0;
#X connect 36 0 37 0;
#X connect 36 1 37 1;
#X connect 37 0 38 1;
#X connect 38 0 41 0;
#X connect 39 0 56 0;
#X connect 39 0 67 0;
#X connect 40 0 43 0;
#X connect 41 0 39 0;
#X connect 41 1 45 0;
#X connect 42 0 43 1;
#X connect 43 0 79 0;
#X connect 44 0 31 0;
#X connect 45 0 42 0;
#X connect 47 0 30 0;
#X connect 47 1 48 0;
#X connect 48 0 49 1;
#X connect 48 0 55 0;
#X connect 49 0 40 0;
#X connect 50 0 19 1;
#X connect 50 0 25 1;
#X connect 50 0 20 1;
#X connect 50 0 26 1;
#X connect 51 0 5 0;
#X connect 52 0 74 0;
#X connect 53 0 50 0;
#X connect 54 0 53 0;
#X connect 55 0 48 1;
#X connect 56 0 49 0;
#X connect 57 0 4 0;
#X connect 57 1 51 0;
#X connect 57 2 54 0;
#X connect 60 0 0 0;
#X connect 60 0 57 0;
#X connect 61 0 71 0;
#X connect 61 0 72 0;
#X connect 61 0 73 0;
#X connect 62 0 71 1;
#X connect 62 0 72 1;
#X connect 62 0 73 1;
#X connect 63 0 57 0;
#X connect 64 0 65 0;
#X connect 65 0 66 0;
#X connect 66 0 61 0;
#X connect 67 0 64 0;
#X connect 80 0 36 0;
#X connect 81 0 34 0;
#X restore 298 556 pd table;
#X obj 43 125 alpha;
#X msg 98 518 draw points;
#X obj 43 211 scaleXYZ 3 3 3;
#X obj 106 549 loadbang;
#X obj 43 163 translateXYZ 0 0 -2;
#X obj 43 63 gemhead;
#X obj 61 306 tgl 15 0 empty empty empty 17 7 0 10 -262144 -1 -1 0
1;
#X obj 61 346 t b;
#X msg 106 572 resize 60000;
#X msg 94 495 draw triangle;
#X msg 57 102 auto 1;
#X obj 61 325 gemhead 20;
#X obj 43 285 GEMglShadeModel GL_SMOOTH;
#X obj 94 474 loadbang;
#X obj 43 256 rotateXYZ -65 0 35;
#X obj 57 82 loadbang;
#X obj 43 12 inlet;
#X obj 298 68 sel 1;
#X obj 61 366 i \$0;
#X obj 61 386 t f f;
#X msg 61 416 position \$1blablax3 \$1blablay3 \$1blablaz3;
#X msg 77 438 color \$1colorr3 \$1colorg3 \$1colorb3 \$1colora3;
#X obj 148 18 loadbang;
#X msg 148 40 0;
#X connect 0 0 25 1;
#X connect 1 0 25 2;
#X connect 2 0 25 3;
#X connect 3 0 13 1;
#X connect 4 0 13 2;
#X connect 5 0 13 3;
#X connect 6 0 15 1;
#X connect 7 0 15 2;
#X connect 8 0 15 3;
#X connect 11 0 15 0;
#X connect 12 0 9 0;
#X connect 13 0 25 0;
#X connect 14 0 19 0;
#X connect 15 0 13 0;
#X connect 16 0 11 0;
#X connect 17 0 22 0;
#X connect 18 0 29 0;
#X connect 19 0 9 0;
#X connect 20 0 9 0;
#X connect 21 0 11 0;
#X connect 22 0 18 0;
#X connect 23 0 9 0;
#X connect 24 0 20 0;
#X connect 25 0 23 0;
#X connect 26 0 21 0;
#X connect 27 0 16 0;
#X connect 27 0 28 0;
#X connect 28 0 10 0;
#X connect 29 0 30 0;
#X connect 30 0 31 0;
#X connect 30 1 32 0;
#X connect 31 0 9 0;
#X connect 32 0 9 0;
#X connect 33 0 34 0;
#X connect 34 0 16 0;
#X restore 873 663 pd wave;
#X obj 873 641 tgl 15 0 empty empty empty 17 7 0 10 -262144 -1 -1 0
1;
#N canvas 899 255 654 435 oscillo~ 0;
#X obj 47 78 gemhead;
#X obj 122 116 adc~;
#X obj 218 63 tgl 15 0 empty empty empty 17 7 0 10 -262144 -1 -1 1
1;
#X obj 218 41 loadbang;
#X obj 47 5 inlet;
#X obj 123 152 *~ 3;
#X obj 47 279 t a b;
#X obj 47 406 gemvertexbuffer 8192;
#X obj 298 167 until;
#X obj 298 191 f;
#X obj 329 192 + 1;
#X msg 348 163 0;
#X obj 298 213 t f f;
#X obj 298 277 * 7;
#X obj 298 256 - 0.5;
#X msg 82 384 draw linestrip;
#X obj 82 363 loadbang;
#X obj 63 30 loadbang;
#X msg 63 52 0;
#X obj 155 55 osc~ 10;
#X obj 155 75 *~ 0.1;
#X obj 122 178 tabwrite~ \$0sound;
#X obj 121 199 table \$0sound 8192;
#X obj 298 298 tabwrite \$0phasor;
#X obj 118 231 table \$0phasor 8192;
#X obj 79 306 i \$0;
#X msg 79 342 posX \$1phasor \, posY \$1sound;
#X floatatom 155 34 5 0 0 0 - - -;
#X obj 15 157 scale 1;
#X floatatom 52 115 5 0 0 0 - - -;
#X msg 227 395 draw points;
#X msg 298 73 8192;
#X floatatom 298 95 5 0 0 0 - - -;
#X obj 298 234 /;
#X obj 298 118 t f b f f;
#X msg 414 154 resize \$1;
#X obj 414 176 t a a a;
#X obj 437 216 s \$0sound;
#X obj 460 196 s \$0phasor;
#X obj 219 82 metro 200;
#X connect 0 0 28 0;
#X connect 1 0 5 0;
#X connect 1 1 5 0;
#X connect 2 0 39 0;
#X connect 3 0 2 0;
#X connect 3 0 31 0;
#X connect 4 0 0 0;
#X connect 5 0 21 0;
#X connect 6 0 7 0;
#X connect 6 1 25 0;
#X connect 8 0 9 0;
#X connect 9 0 10 0;
#X connect 9 0 12 0;
#X connect 10 0 9 1;
#X connect 11 0 9 1;
#X connect 12 0 33 0;
#X connect 12 1 23 1;
#X connect 13 0 23 0;
#X connect 14 0 13 0;
#X connect 15 0 7 0;
#X connect 16 0 15 0;
#X connect 17 0 18 0;
#X connect 18 0 0 0;
#X connect 19 0 20 0;
#X connect 20 0 5 0;
#X connect 25 0 26 0;
#X connect 26 0 7 0;
#X connect 27 0 19 0;
#X connect 28 0 6 0;
#X connect 29 0 28 1;
#X connect 30 0 7 0;
#X connect 31 0 32 0;
#X connect 32 0 34 0;
#X connect 33 0 14 0;
#X connect 34 0 8 0;
#X connect 34 1 11 0;
#X connect 34 2 33 1;
#X connect 34 3 35 0;
#X connect 35 0 36 0;
#X connect 36 0 7 0;
#X connect 36 1 37 0;
#X connect 36 2 38 0;
#X connect 39 0 21 0;
#X restore 873 620 pd oscillo~;
#X obj 873 600 tgl 15 0 empty empty empty 17 7 0 10 -262144 -1 -1 0
1;
#X text 870 539 other examples;
#X text 51 806 Inlet 1: message: texture / textureU / textureV: update
vertex texcoords from tables;
#X text 51 836 Inlet 1: message: normal / normalX / normalY / normalZ:
update vertex normals from tables;
#X text 51 776 Inlet 1: message: color / colorR / colorG / colorB /
colorA: update vertex colors from tables;
#X text 51 746 Inlet 1: message: position / posX / posY / posZ: update
vertex positions from tables;
#N canvas 422 179 679 574 tabledata 0;
#X text 65 43 applying table data as vertex data;
#X msg 30 100 position tabX tabY tabZ 0;
#X msg 30 130 position tabXYZ 0;
#X text 200 102 will read X \, Y & Z values from the 3 tables as position
data \, starting at offset=0 (offset can be omitted);
#X text 200 132 will read interleaved X \, Y & Z values from the table
tabXYZ \, starting at offset=0 (offset can be omitted);
#X text 200 172 will update only X values from given table (starting
at offset=10);
#X msg 31 169 posX tabX 10;
#X msg 31 209 posY tabY;
#X text 200 212 will update only Y values from given table (starting
at default offset=0);
#X text 39 290 the same applies to the other vertex data types:;
#X msg 234 346 colorR r;
#X msg 294 346 colorG g;
#X msg 354 346 colorB b;
#X msg 415 346 colorA a;
#X msg 36 376 texture U V;
#X msg 140 376 texture UV;
#X msg 234 376 textureU U;
#X msg 304 376 textureV V;
#X msg 36 406 normal x y z;
#X msg 36 346 color r g b a;
#X msg 141 346 color rgba;
#X msg 140 406 normal xyz;
#X msg 234 406 normalX x;
#X msg 304 406 normalY y;
#X msg 374 406 normalZ z;
#X msg 36 316 position X Y Z;
#X msg 140 316 position XYZ;
#X msg 234 316 positionX X;
#X msg 314 316 positionY Y;
#X msg 394 316 positionZ Z;
#X text 51 453 offset is always optional (default=0) \, and comes after
the table names;
#X text 50 507 unset table data is initialized to 0.f;
#X restore 488 812 pd tabledata;
#X text 51 863 Inlet 1: message: resize float : change the number of
vertex to use;
#X text 47 577 Vertex position \, color etc can be copy from pd table
to the vertex buffer (VBO = Vertex Buffer Object). This object can
draw lot's of points very efficiently.;
#X obj 923 745 t b b b;
#N canvas 986 108 450 459 load_tables 0;
#X obj 31 71 noise~;
#X obj 32 94 tabwrite~ colorr;
#X obj 32 114 noise~;
#X obj 33 158 noise~;
#X obj 33 137 tabwrite~ colorg;
#X obj 34 181 tabwrite~ colorb;
#X obj 33 209 noise~;
#X obj 34 252 noise~;
#X obj 35 296 noise~;
#X obj 34 232 tabwrite~ blablax;
#X obj 36 319 tabwrite~ blablaz;
#X obj 35 275 tabwrite~ blablay;
#X msg 288 48 dsp 1;
#X obj 288 68 s pd;
#X obj 288 28 loadbang;
#X obj 119 34 t b;
#X obj 119 13 loadbang;
#X msg 152 34 bang;
#X obj 215 10 inlet;
#X obj 266 152 table colorr 2000;
#X obj 266 172 table colorg 2000;
#X obj 266 194 table colorb 2000;
#X obj 266 216 table colora 2000;
#X obj 267 237 table blablax 2000;
#X obj 266 256 table blablay 2000;
#X obj 266 276 table blablaz 2000;
#X connect 0 0 1 0;
#X connect 2 0 4 0;
#X connect 3 0 5 0;
#X connect 6 0 9 0;
#X connect 7 0 11 0;
#X connect 8 0 10 0;
#X connect 12 0 13 0;
#X connect 14 0 12 0;
#X connect 15 0 1 0;
#X connect 15 0 4 0;
#X connect 15 0 5 0;
#X connect 15 0 9 0;
#X connect 15 0 11 0;
#X connect 15 0 10 0;
#X connect 16 0 15 0;
#X connect 17 0 15 0;
#X connect 18 0 15 0;
#X restore 915 781 pd load_tables;
#X obj 603 1154 gemvertexbuffer;
#X msg 752 1048 draw_range \$1 \$2;
#X obj 752 1028 pack 0 0;
#X floatatom 752 986 5 0 0 0 - - -;
#X floatatom 798 986 5 0 0 0 - - -;
#X obj 798 1005 t b f;
#X text 51 931 Inlet 1: message: draw_range float float : set the range
for partial draw.;
#X text 750 959 set start and end indexes to draw only a range of VBO
;
#X text 692 937 as soon as they are updated;
#X text 622 922 default : all VBO are disabled \, but they are enabled
;
#X floatatom 723 614 5 1 64 0 - - -;
#X floatatom 743 592 5 0 0 0 - - -;
#X text 51 958 Inlet 1: message: program float : set the id for glsl
program.;
#X text 51 888 Inlet 1: message: postion_enable float \, color_enable
float \, texture_enable float \, normal_enable float \, attribute_enable
float : enable/disable the use of this data;
#X text 51 986 Inlet 1: message: attribute name table (offset) : add
attribute / update attribute from table;
#X text 51 1016 Inlet 1: message: reset_attributes : clear attribute
data;
#X text 51 1031 Inlet 1: message: print_attributes : print active attributes
;
#X text 38 1125 see examples/10.glsl/16.vertexbuffer_attributes.pd
on how to;
#X text 39 1140 use attribute tables with the vertex buffer.;
#X text 81 669 number of vertices to be used. if this is a power of
two (2^n) \, you might have some performance gain.;
#X obj 514 36 metro 50;
#X msg 295 260 color Zpos Zpos Zpos Zpos;
#X obj 241 197 t a b;
#X msg 325 298 draw point;
#X obj 241 35 GEMglPointSize 1;
#X floatatom 360 36 5 1 64 0 - - -;
#X obj 241 105 scaleXYZ;
#X floatatom 289 67 5 0 0 0 - - -;
#X obj 241 357 gemvertexbuffer 256;
#X obj 803 188 table Xpos 256;
#X obj 803 218 table Ypos 256;
#X obj 803 248 table Zpos 256;
#X msg 337 323 draw line;
#X obj 502 168 loadbang;
#X msg 505 198 \; Zpos const 1;
#X msg 523 77 start 4;
#X obj 501 121 tabwrite~ Ypos;
#X msg 278 234 position Xpos Ypos Zpos;
#X obj 241 174 translateXYZ 0 0 0;
#X obj 465 207 bng 15 250 50 0 empty empty empty 17 7 0 10 -262144
-1 -1;
#X msg 491 249 \; Xpos const 0;
#N canvas 874 135 610 500 loadDataTables 1;
#X obj 92 -861 t b b;
#X obj 92 -794 t a b;
#X obj 122 -759 f;
#X obj 152 -760 + 1;
#X msg 137 -798 0;
#X obj 92 -729 tabwrite Xpos;
#X obj 92 -692 t b b;
#X obj 92 -625 t a b;
#X obj 122 -590 f;
#X obj 152 -591 + 1;
#X msg 137 -629 0;
#X obj 15 -792 bng 15 250 50 0 empty empty empty 17 7 0 10 -262144
-1 -1;
#X floatatom 187 -670 5 0 0 0 - - -;
#X obj 223 -724 hradio 15 1 0 4 empty empty empty 0 -8 0 10 -262144
-1 -1 0;
#X floatatom 195 -627 5 0 0 0 - - -;
#X obj 238 -598 hradio 15 1 0 4 empty empty empty 0 -8 0 10 -262144
-1 -1 0;
#X floatatom 182 -698 5 0 0 0 - - -;
#X obj 92 -560 tabwrite Ypos;
#X obj -102 -630 f;
#X obj -66 -630 + 1;
#X obj -86 -787 bng 15 250 50 0 empty empty empty 17 7 0 10 -262144
-1 -1;
#X msg -37 -648 stop;
#X obj -35 -671 sel 1;
#X obj -95 -748 t b b;
#X msg -61 -723 -1;
#X obj -38 -694 >= 127;
#X obj -170 -519 tabwrite Xpos;
#X obj -172 -588 / 32;
#X obj -111 -597 t f f;
#X floatatom -25 -588 5 0 0 0 - - -;
#X obj -46 -483 - 2;
#X obj -129 -686 metro 10;
#X msg 69 -663 0 \, -2 \, -2 \, 0;
#X msg 99 -834 4 \, 3 \, -3 \, -3;
#X obj 246 -681 print;
#X connect 0 0 33 0;
#X connect 0 1 4 0;
#X connect 1 0 5 0;
#X connect 1 1 2 0;
#X connect 2 0 3 0;
#X connect 2 0 5 1;
#X connect 2 0 16 0;
#X connect 2 0 34 0;
#X connect 3 0 2 1;
#X connect 4 0 2 1;
#X connect 6 0 32 0;
#X connect 6 1 10 0;
#X connect 7 0 17 0;
#X connect 7 1 8 0;
#X connect 8 0 9 0;
#X connect 8 0 17 1;
#X connect 9 0 8 1;
#X connect 10 0 8 1;
#X connect 11 0 0 0;
#X connect 11 0 6 0;
#X connect 12 0 5 0;
#X connect 13 0 5 1;
#X connect 14 0 17 0;
#X connect 15 0 17 1;
#X connect 18 0 19 0;
#X connect 18 0 25 0;
#X connect 18 0 28 0;
#X connect 19 0 18 1;
#X connect 20 0 23 0;
#X connect 21 0 31 0;
#X connect 22 0 21 0;
#X connect 23 0 31 0;
#X connect 23 1 24 0;
#X connect 24 0 19 0;
#X connect 25 0 22 0;
#X connect 27 0 29 0;
#X connect 27 0 30 0;
#X connect 28 0 27 0;
#X connect 28 1 26 1;
#X connect 30 0 26 0;
#X connect 31 0 18 0;
#X connect 32 0 7 0;
#X connect 33 0 1 0;
#X restore 724 111 pd loadDataTables;
#X obj 455 51 tgl 15 0 empty empty empty 17 7 0 10 -262144 -1 -1 1
1;
#X connect 0 0 101 0;
#X connect 1 0 85 0;
#X connect 2 0 103 3;
#X connect 4 0 89 0;
#X connect 18 0 65 0;
#X connect 19 0 65 0;
#X connect 20 0 65 0;
#X connect 21 0 20 0;
#X connect 22 0 33 0;
#X connect 23 0 40 0;
#X connect 24 0 42 0;
#X connect 25 0 22 0;
#X connect 27 0 28 0;
#X connect 28 0 65 0;
#X connect 29 0 32 0;
#X connect 30 0 31 0;
#X connect 31 0 65 0;
#X connect 32 0 65 0;
#X connect 33 0 34 0;
#X connect 34 0 65 0;
#X connect 35 0 36 0;
#X connect 36 0 37 0;
#X connect 37 0 33 0;
#X connect 40 0 65 0;
#X connect 41 0 42 1;
#X connect 42 0 25 0;
#X connect 43 0 65 0;
#X connect 44 0 65 0;
#X connect 45 0 65 0;
#X connect 46 0 65 0;
#X connect 47 0 63 0;
#X connect 50 0 49 0;
#X connect 52 0 51 0;
#X connect 54 0 53 0;
#X connect 63 0 43 0;
#X connect 63 1 44 0;
#X connect 63 2 64 0;
#X connect 66 0 65 0;
#X connect 67 0 66 0;
#X connect 68 0 67 0;
#X connect 69 0 70 0;
#X connect 70 0 67 0;
#X connect 70 1 67 1;
#X connect 75 0 22 1;
#X connect 76 0 25 3;
#X connect 85 0 100 0;
#X connect 86 0 93 0;
#X connect 87 0 93 0;
#X connect 87 1 102 0;
#X connect 88 0 93 0;
#X connect 89 0 91 0;
#X connect 90 0 89 1;
#X connect 91 0 103 0;
#X connect 92 0 91 2;
#X connect 92 0 91 1;
#X connect 92 0 91 3;
#X connect 97 0 93 0;
#X connect 98 0 99 0;
#X connect 100 0 101 0;
#X connect 102 0 93 0;
#X connect 103 0 87 0;
#X connect 104 0 105 0;
#X connect 107 0 4 0;
