#N canvas 498 236 935 584 10;
#X obj 87 -174 gemhead;
#X obj 87 -59 t a b;
#X obj 87 44 GEMglPointSize 1;
#X floatatom 180 24 5 1 64 0 - - -;
#X obj 223 150 t a;
#X msg -18 129 draw default;
#X msg -25 110 draw fill;
#X obj -25 173 t a;
#X obj 87 -100 scaleXYZ 15 10 1;
#X msg -39 88 draw lineloop;
#X msg -11 148 draw lines;
#X obj 86 190 gemvertexbuffer 1024;
#X obj 87 -123 translateXYZ 0 -2 0;
#X obj 88 -146 colorRGB 1 1 1 1;
#X msg 222 -5 posX XX \, posY in2 \, posZ ZZ;
#X connect 0 0 13 0;
#X connect 1 0 2 0;
#X connect 1 1 14 0;
#X connect 2 0 11 0;
#X connect 3 0 2 1;
#X connect 4 0 11 0;
#X connect 5 0 7 0;
#X connect 6 0 7 0;
#X connect 7 0 11 0;
#X connect 8 0 1 0;
#X connect 9 0 7 0;
#X connect 10 0 7 0;
#X connect 12 0 8 0;
#X connect 13 0 12 0;
#X connect 14 0 4 0;
