#N canvas 1126 306 1249 861 10;
#X obj -20 479 tempo;
#X obj 176 100 tgl 17 0 empty empty perspec 17 7 0 10 -228856 -1 -1
0 1;
#X obj 175 152 sel 1 0;
#X obj -23 305 colorRGB 0 0 0 1;
#X obj -23 242 gemhead 1;
#X obj -23 274 translateXYZ 0 44 -50;
#X obj -23 377 translateXYZ 0 -88 0;
#X obj -23 409 rectangle 250 10;
#X obj -23 349 rectangle 250 10;
#X msg 123 204 set 50;
#X obj 239 100 toggle2;
#X obj 283 287 gemhead;
#X obj 285 565 gemlist;
#X obj 285 543 until;
#X obj 285 497 t b a;
#X obj 283 266 tgl 15 1 empty empty empty 17 7 0 10 -262144 -1 -1 1
1;
#X obj 285 633 translateXYZ 0 0 0;
#X obj 284 690 rotateXYZ 0 0 9;
#X obj 285 427 rotateXYZ;
#X obj 336 399 line \$1;
#X obj 336 331 tgl 15 0 empty empty empty 17 7 0 10 -262144 -1 -1 1
1;
#X obj 336 352 metro 30000;
#X msg 336 375 0 \, 360 30000;
#X obj 285 450 translateXYZ 0 0 0;
#X obj 126 117 hsl 128 17 0 3 0 0 empty empty empty -2 -8 0 10 -262144
-1 -1 400 1;
#X obj 590 273 gemhead;
#X obj 592 551 gemlist;
#X obj 592 529 until;
#X obj 592 483 t b a;
#X obj 590 252 tgl 15 1 empty empty empty 17 7 0 10 -262144 -1 -1 1
1;
#X msg 592 505 20;
#X obj 592 619 translateXYZ 0 0 0;
#X obj 591 676 rotateXYZ 0 0 9;
#X obj 592 413 rotateXYZ;
#X obj 643 385 line \$1;
#X obj 643 317 tgl 15 0 empty empty empty 17 7 0 10 -262144 -1 -1 1
1;
#X obj 643 338 metro 30000;
#X obj 592 436 translateXYZ 0 0 0;
#X obj 591 714 rectangle 100 0.3;
#X msg 643 361 0 \, -360 30000;
#X msg 285 519 40;
#X obj 282 818 curve 4;
#X floatatom -3 758 5 0 0 0 - - -;
#X msg -3 781 width 1;
#X obj 375 709 loadbang;
#X msg 295 768 0 0 -3;
#X msg -3 163 set -400;
#X obj -21 593 random 10;
#X obj -17 674 line;
#X msg -17 645 \$1 1000;
#X obj 46 594 random 10;
#X obj 50 675 line;
#X msg 50 646 \$1 1000;
#X obj 155 664 line;
#X msg 155 635 \$1 1000;
#X obj 151 583 random 5;
#X obj 147 606 - 5;
#X obj 48 617 - 5;
#X msg 392 769 -20 6 0;
#X msg 344 765 1 20 -1;
#X msg 458 770 -2 \$1 4;
#X obj 39 719 pack f 0 -5;
#X connect 0 0 47 0;
#X connect 0 0 50 0;
#X connect 0 0 55 0;
#X connect 1 0 2 0;
#X connect 2 0 9 0;
#X connect 2 1 46 0;
#X connect 3 0 8 0;
#X connect 5 0 3 0;
#X connect 6 0 7 0;
#X connect 8 0 6 0;
#X connect 9 0 4 0;
#X connect 9 0 11 0;
#X connect 10 0 4 0;
#X connect 10 0 15 0;
#X connect 10 0 20 0;
#X connect 10 0 29 0;
#X connect 10 0 35 0;
#X connect 11 0 18 0;
#X connect 12 0 16 0;
#X connect 13 0 12 0;
#X connect 14 0 40 0;
#X connect 14 1 12 1;
#X connect 15 0 11 0;
#X connect 16 0 17 0;
#X connect 17 0 41 0;
#X connect 18 0 23 0;
#X connect 19 0 18 3;
#X connect 20 0 21 0;
#X connect 21 0 22 0;
#X connect 22 0 19 0;
#X connect 23 0 14 0;
#X connect 24 0 38 2;
#X connect 26 0 31 0;
#X connect 27 0 26 0;
#X connect 28 0 30 0;
#X connect 28 1 26 1;
#X connect 29 0 25 0;
#X connect 30 0 27 0;
#X connect 31 0 32 0;
#X connect 32 0 38 0;
#X connect 33 0 37 0;
#X connect 34 0 33 3;
#X connect 35 0 36 0;
#X connect 36 0 39 0;
#X connect 37 0 28 0;
#X connect 39 0 34 0;
#X connect 40 0 13 0;
#X connect 42 0 43 0;
#X connect 43 0 41 0;
#X connect 44 0 45 0;
#X connect 44 0 59 0;
#X connect 44 0 58 0;
#X connect 44 0 60 0;
#X connect 45 0 41 1;
#X connect 46 0 4 0;
#X connect 46 0 11 0;
#X connect 47 0 49 0;
#X connect 48 0 61 0;
#X connect 49 0 48 0;
#X connect 50 0 57 0;
#X connect 51 0 61 1;
#X connect 52 0 51 0;
#X connect 53 0 60 0;
#X connect 54 0 53 0;
#X connect 55 0 56 0;
#X connect 56 0 54 0;
#X connect 57 0 52 0;
#X connect 58 0 41 3;
#X connect 59 0 41 2;
#X connect 60 0 41 4;
#X connect 61 0 41 1;
#X coords 0 -1 1 1 156 34 1 100 100;
