#N canvas 521 93 1018 769 10;
#X obj 12 468 rotateXYZ;
#X obj 72 379 tgl 15 0 empty empty empty 17 7 0 10 -262144 -1 -1 1
1;
#X obj 72 330 loadbang;
#X msg 72 353 1;
#X obj 12 740 polygon 3;
#X msg 64 656 -0.5 0 0;
#X msg 89 698 0.5 0 0;
#X msg 77 677 0 30 0;
#X obj 307 119 rectangle 50 2;
#X obj 309 176 rectangle 50 2;
#X text 172 254 element place en fond de scene;
#X obj 309 34 colorRGB 0 0 0 1;
#X obj 309 73 translateXYZ 0 10 -7.9;
#X obj 307 149 translateXYZ 0 -20 0;
#X obj 142 653 loadbang;
#X text 313 8 bordures noires;
#X floatatom 155 232 5 0 0 0 - - -, f 5;
#X floatatom 77 512 5 0 0 0 - - -, f 5;
#X floatatom 108 231 5 0 0 0 - - -, f 5;
#X obj 13 252 translateXYZ 0 -4 -14;
#X obj 12 549 scaleXYZ 1.6 1.6 1.6;
#X msg 72 420 0 \, 360 10000;
#X obj 72 398 metro 10000;
#X obj 72 444 line;
#X obj 13 206 gemhead;
#X obj 12 584 t a a a a a;
#X obj 12 619 rotateXYZ 0 0 2;
#X obj 811 380 tempo;
#X obj 591 69 gemhead;
#X obj 591 309 gemlist;
#X obj 591 287 until;
#X obj 591 241 t b a;
#X obj 591 48 tgl 15 1 empty empty empty 17 7 0 10 -262144 -1 -1 1
1;
#X obj 591 336 translateXYZ 0 0 0;
#X obj 591 362 rotateXYZ 0 0 9;
#X obj 591 188 rotateXYZ;
#X obj 651 165 line \$1;
#X obj 651 97 tgl 15 0 empty empty empty 17 7 0 10 -262144 -1 -1 0
1;
#X obj 651 118 metro 30000;
#X msg 651 141 0 \, 360 30000;
#X obj 591 211 translateXYZ 0 0 0;
#X msg 591 263 40;
#X obj 591 683 curve 4;
#X floatatom 811 643 5 0 0 0 - - -, f 5;
#X msg 811 666 width 1;
#X obj 505 573 loadbang;
#X msg 602 590 0 0 -3;
#X obj 654 436 random 10;
#X obj 654 477 line;
#X msg 654 457 \$1 1000;
#X obj 718 464 random 10;
#X obj 718 525 line;
#X msg 718 504 \$1 1000;
#X obj 811 599 line;
#X msg 811 578 \$1 1000;
#X obj 811 538 random 5;
#X obj 811 558 - 5;
#X obj 718 484 - 5;
#X msg 625 634 -20 6 0;
#X msg 614 612 1 20 -1;
#X msg 637 657 -2 \$1 4;
#X obj 681 549 pack f 0 -5;
#X obj 59 147 tgl 15 0 empty empty empty 17 7 0 10 -262144 -1 -1 0
1;
#X connect 0 0 20 0;
#X connect 1 0 22 0;
#X connect 2 0 3 0;
#X connect 3 0 1 0;
#X connect 5 0 4 1;
#X connect 6 0 4 3;
#X connect 7 0 4 2;
#X connect 8 0 13 0;
#X connect 11 0 12 0;
#X connect 12 0 8 0;
#X connect 13 0 9 0;
#X connect 14 0 5 0;
#X connect 14 0 7 0;
#X connect 14 0 6 0;
#X connect 16 0 19 3;
#X connect 17 0 20 1;
#X connect 17 0 20 2;
#X connect 17 0 20 3;
#X connect 18 0 19 2;
#X connect 19 0 0 0;
#X connect 20 0 25 0;
#X connect 21 0 23 0;
#X connect 22 0 21 0;
#X connect 23 0 0 3;
#X connect 24 0 19 0;
#X connect 25 0 26 0;
#X connect 25 1 26 0;
#X connect 25 2 26 0;
#X connect 25 3 26 0;
#X connect 25 4 26 0;
#X connect 26 0 4 0;
#X connect 27 0 47 0;
#X connect 27 0 50 0;
#X connect 27 0 55 0;
#X connect 28 0 35 0;
#X connect 29 0 33 0;
#X connect 30 0 29 0;
#X connect 31 0 41 0;
#X connect 31 1 29 1;
#X connect 32 0 28 0;
#X connect 33 0 34 0;
#X connect 34 0 42 0;
#X connect 35 0 40 0;
#X connect 36 0 35 3;
#X connect 37 0 38 0;
#X connect 38 0 39 0;
#X connect 39 0 36 0;
#X connect 40 0 31 0;
#X connect 41 0 30 0;
#X connect 43 0 44 0;
#X connect 44 0 42 0;
#X connect 45 0 46 0;
#X connect 45 0 59 0;
#X connect 45 0 58 0;
#X connect 45 0 60 0;
#X connect 46 0 42 1;
#X connect 47 0 49 0;
#X connect 48 0 61 0;
#X connect 49 0 48 0;
#X connect 50 0 57 0;
#X connect 51 0 61 1;
#X connect 52 0 51 0;
#X connect 53 0 60 0;
#X connect 54 0 53 0;
#X connect 55 0 56 0;
#X connect 56 0 54 0;
#X connect 57 0 52 0;
#X connect 58 0 42 3;
#X connect 59 0 42 2;
#X connect 60 0 42 4;
#X connect 61 0 42 1;
#X connect 62 0 24 0;
#X coords 0 769 1 768 156 17 0;
