#N canvas 1 94 1585 764 10;
#X obj 28 74 gemhead;
#X obj 298 43 loadbang;
#X obj 28 279 t a b;
#X obj 28 406 gemvertexbuffer 8192;
#X obj 298 167 until;
#X obj 298 191 f;
#X obj 329 192 + 1;
#X msg 348 163 0;
#X obj 298 213 t f f;
#X obj 298 277 * 7;
#X obj 298 256 - 0.5;
#X msg 63 384 draw linestrip;
#X obj 63 363 loadbang;
#X obj 44 19 loadbang;
#X msg 44 41 0;
#X obj 298 298 tabwrite \$0phasor;
#X obj 60 306 i \$0;
#X msg 60 342 posX \$1phasor \, posY \$1sound;
#X obj 28 153 scale 1;
#X floatatom 65 111 5 0 0 0 - - -, f 5;
#X msg 208 389 draw points;
#X floatatom 298 95 5 0 0 0 - - -, f 5;
#X obj 298 234 /;
#X obj 298 118 t f b f f;
#X msg 414 154 resize \$1;
#X obj 414 176 t a a a;
#X obj 437 216 s \$0sound;
#X obj 460 196 s \$0phasor;
#X obj 645 364 tabwrite \$0sound;
#X msg 1020 36 rewind;
#X obj 1082 320 print done;
#X text 1242 214 read a file;
#X obj 1026 269 textfile;
#X text 1193 95 go to beginning;
#X msg 1070 110 bang;
#X text 1193 120 output one line as a list;
#X obj 1026 342 print list;
#X msg 1088 216 read textfile.txt cr;
#X msg 1110 149 clear;
#X text 1026 368 this outlet gets the lines in sequence.;
#X text 1113 289 This outlet gets a bang when you hit the end of the
sequence.;
#X msg 1087 243 print;
#X text 1141 246 debugging printout;
#X obj 884 357 openpanel;
#X obj 884 334 bng 15 250 50 0 empty empty empty 17 7 0 10 -262144
-1 -1;
#X msg 873 411 set \$1;
#X msg 872 441 /home/rep/Projets/BlankWorld/BlankWorld/tutu.txt;
#X msg 894 386 read \$1 cr;
#X obj 1070 71 tgl 15 0 empty empty empty 17 7 0 10 -262144 -1 -1 0
1;
#X obj 1070 90 metro 1;
#X obj 784 160 sel 1;
#X obj 764 107 f;
#X obj 802 107 + 1;
#X obj 764 60 tgl 15 0 empty empty empty 17 7 0 10 -262144 -1 -1 0
1;
#X obj 764 79 metro 1;
#X floatatom 744 212 5 0 0 0 - - -, f 5;
#X msg 876 86 0;
#X obj 744 188 - 1;
#X obj 846 251 t f b;
#X floatatom 823 386 5 0 0 0 - - -, f 5;
#X obj 934 3 tgl 15 0 empty empty empty 17 7 0 10 -262144 -1 -1 1 1
;
#X obj 917 24 t f b;
#X msg 298 73 1024;
#X obj 119 209 table \$0sound 1024;
#X obj 118 231 table \$0phasor 1024;
#X obj 784 138 > 1024;
#X obj 512 358 sel 1;
#X obj 492 305 f;
#X obj 530 305 + 1;
#X obj 492 258 tgl 15 0 empty empty empty 17 7 0 10 -262144 -1 -1 0
1;
#X obj 492 277 metro 1;
#X floatatom 472 410 5 0 0 0 - - -, f 5;
#X msg 604 284 0;
#X obj 472 386 - 1;
#X obj 512 336 > 1024;
#X obj 473 470 tabwrite \$0phasor;
#X obj 444 440 expr ( $f1 / 50) - 15.5;
#X obj 28 214 rotateXYZ;
#X floatatom 68 190 5 0 0 0 - - -, f 5;
#X obj 28 -4 tgl 15 0 empty empty empty 17 7 0 10 -262144 -1 -1 1 1
;
#X obj 693 626 abstractions/gemwin;
#X msg 696 557 dimen 800 400 \, create \, 1;
#X msg 727 587 destroy;
#X msg 939 475 /home/rep/Projets/BlankWorld/BlankWorld/tutu.txt;
#X obj 697 318 * 500;
#X connect 0 0 18 0;
#X connect 1 0 62 0;
#X connect 2 0 3 0;
#X connect 2 1 16 0;
#X connect 4 0 5 0;
#X connect 5 0 6 0;
#X connect 5 0 8 0;
#X connect 6 0 5 1;
#X connect 7 0 5 1;
#X connect 8 0 22 0;
#X connect 8 1 15 1;
#X connect 9 0 15 0;
#X connect 10 0 9 0;
#X connect 11 0 3 0;
#X connect 12 0 11 0;
#X connect 13 0 14 0;
#X connect 14 0 0 0;
#X connect 16 0 17 0;
#X connect 17 0 3 0;
#X connect 18 0 77 0;
#X connect 19 0 18 1;
#X connect 20 0 3 0;
#X connect 21 0 23 0;
#X connect 22 0 10 0;
#X connect 23 0 4 0;
#X connect 23 1 7 0;
#X connect 23 2 22 1;
#X connect 23 3 24 0;
#X connect 24 0 25 0;
#X connect 25 0 3 0;
#X connect 25 1 26 0;
#X connect 25 2 27 0;
#X connect 29 0 32 0;
#X connect 32 0 36 0;
#X connect 32 0 59 0;
#X connect 32 0 84 0;
#X connect 32 1 30 0;
#X connect 34 0 32 0;
#X connect 37 0 32 0;
#X connect 38 0 32 0;
#X connect 41 0 32 0;
#X connect 43 0 47 0;
#X connect 43 0 45 0;
#X connect 44 0 43 0;
#X connect 45 0 46 0;
#X connect 47 0 32 0;
#X connect 48 0 49 0;
#X connect 49 0 34 0;
#X connect 50 0 56 0;
#X connect 51 0 52 0;
#X connect 51 0 57 0;
#X connect 51 0 65 0;
#X connect 52 0 51 1;
#X connect 53 0 54 0;
#X connect 54 0 51 0;
#X connect 55 0 58 0;
#X connect 56 0 51 1;
#X connect 56 0 53 0;
#X connect 57 0 55 0;
#X connect 58 0 28 1;
#X connect 58 1 34 0;
#X connect 60 0 61 0;
#X connect 61 0 53 0;
#X connect 61 1 29 0;
#X connect 62 0 21 0;
#X connect 65 0 50 0;
#X connect 66 0 72 0;
#X connect 67 0 68 0;
#X connect 67 0 73 0;
#X connect 67 0 74 0;
#X connect 68 0 67 1;
#X connect 69 0 70 0;
#X connect 70 0 67 0;
#X connect 71 0 75 1;
#X connect 71 0 76 0;
#X connect 72 0 67 1;
#X connect 72 0 69 0;
#X connect 73 0 71 0;
#X connect 74 0 66 0;
#X connect 76 0 75 0;
#X connect 77 0 2 0;
#X connect 78 0 77 2;
#X connect 79 0 0 0;
#X connect 81 0 80 0;
#X connect 82 0 80 0;
#X connect 83 0 47 0;
#X connect 84 0 28 0;
