#N canvas 347 65 1121 819 10;
#X obj 665 35 inlet;
#X obj 665 56 bng 15 250 50 0 empty empty empty 17 7 0 10 -262144 -1
-1;
#X obj 554 174 shell;
#X obj 630 236 f;
#X obj 656 236 + 1;
#X msg 669 161 0;
#X obj 630 216 b;
#X obj 665 76 t b b b;
#X obj 597 312 pack s f;
#X obj 554 104 getdir;
#X obj 725 279 t a;
#X obj 654 412 s pd-_liste_.pd;
#X msg 597 332 obj 20 \$2 \$1;
#X obj 496 255 symbol2list;
#X obj 496 233 symbol;
#X msg 559 235 symbol .;
#X obj 496 205 t a b;
#X obj 496 279 unpack s s;
#X msg 724 302 vis 1 \, editmode 1 \, mouse 0 0 0 0 \, mouseup 199
3000 0 \, cut \, editmode 0;
#X msg 554 130 cd \$1 && ls --ignore _liste_.pd -B | grep .pd;
#X obj 656 256 * 100;
#X obj 20 200 cube_glissade_GUI;
#X obj 20 300 cube_glissade_line;
#X obj 20 400 cube_glissade;
#X obj 20 500 cube_simple_glissade_line;
#X obj 20 600 glissade;
#X connect 0 0 1 0;
#X connect 1 0 7 0;
#X connect 2 0 6 0;
#X connect 2 0 16 0;
#X connect 3 0 4 0;
#X connect 4 0 3 1;
#X connect 4 0 20 0;
#X connect 5 0 3 0;
#X connect 6 0 3 0;
#X connect 7 0 9 0;
#X connect 7 1 5 0;
#X connect 7 2 10 0;
#X connect 8 0 12 0;
#X connect 9 0 19 0;
#X connect 10 0 18 0;
#X connect 12 0 11 0;
#X connect 13 0 17 0;
#X connect 14 0 13 0;
#X connect 15 0 13 1;
#X connect 16 0 14 0;
#X connect 16 1 15 0;
#X connect 17 0 8 0;
#X connect 18 0 11 0;
#X connect 19 0 2 0;
#X connect 20 0 8 1;
