#N canvas 46 55 1075 826 10;
#X obj 557 338 translateXYZ;
#X obj 503 75 -;
#X obj 576 22 / 2;
#X msg 536 -78 10;
#X obj 503 23 random;
#X obj 771 53 -;
#X obj 823 -1 / 2;
#X msg 770 -78 10;
#X obj 758 10 random;
#X obj 319 193 rotateXYZ;
#X obj 557 424 cube;
#X obj 503 -177 r boumTransX;
#X obj 353 -170 r boumRotY;
#X obj 758 -170 r boumTransZ;
#X obj 353 52 random 360;
#X obj 515 -128 r SetRndTransX;
#X obj 849 -170 r SetRndTransZ;
#X obj 536 -34 f;
#X obj 791 -45 f;
#X obj 199 -173 r GEMHEADglissade;
#X msg 418 385 draw line;
#X obj 418 368 loadbang;
#X obj 557 565 rectangle;
#X obj 96 -151 tgl 15 0 empty empty empty 17 7 0 10 -262144 -1 -1 0
1;
#X obj 557 447 translateXYZ 0 0 1;
#X obj 633 180 r YY;
#X obj 96 -173 r GLISSADEHEAD;
#X msg 217 -133 set 60;
#X obj 199 -102 gemhead 60;
#X obj 199 -34 translateXYZ 0 0 -20;
#X obj 500 180 * 10;
#X obj 656 -169 loadbang;
#X obj 655 -120 bang;
#X obj 656 -142 bng 15 250 50 0 empty empty empty 17 7 0 10 -262144
-1 -1;
#X obj 500 157 line;
#X msg 500 133 \$1 1000;
#X obj 768 169 * 10;
#X obj 768 139 line;
#X msg 768 113 \$1 1000;
#X obj 353 120 line;
#X msg 353 97 \$1 1000;
#X obj 353 144 * 1;
#X obj 557 397 scaleXYZ 3 1 0.1;
#X obj 557 371 colorRGB 0.8 0.96 1 1;
#X obj 447 469 loadbang;
#X msg 447 486 thread 0;
#X obj 557 524 pix_texture;
#X obj 936 139 loadbang;
#X obj 963 169 metro 10000;
#X obj 936 228 route 1 2 3 4 5 6 7 8 9;
#X text 934 119 chargemebt des textures toutes les 10 secondes;
#X obj 922 124 cnv 10 10 10 empty empty empty 20 12 0 14 -258113 -66577
0;
#X msg 936 271 open ./medias/2.jpg;
#X msg 936 292 open ./medias/4.jpg;
#X msg 936 311 open ./medias/5.jpg;
#X msg 936 331 open ./medias/13.jpg;
#X msg 936 351 open ./medias/18.jpg;
#X msg 936 371 open ./medias/19.jpg;
#X msg 936 391 open ./medias/22.jpg;
#X msg 936 411 open ./medias/24.jpg;
#X msg 936 431 open ./medias/26.jpg;
#X obj 936 204 random 9;
#X obj 557 503 pix_image medias/2.jpg;
#X obj 713 464 t a;
#X connect 0 0 43 0;
#X connect 1 0 35 0;
#X connect 2 0 1 1;
#X connect 3 0 17 0;
#X connect 4 0 1 0;
#X connect 5 0 38 0;
#X connect 6 0 5 1;
#X connect 7 0 18 0;
#X connect 8 0 5 0;
#X connect 9 0 0 0;
#X connect 10 0 24 0;
#X connect 11 0 4 0;
#X connect 12 0 14 0;
#X connect 13 0 8 0;
#X connect 14 0 40 0;
#X connect 15 0 17 0;
#X connect 16 0 18 0;
#X connect 17 0 4 1;
#X connect 17 0 2 0;
#X connect 18 0 6 0;
#X connect 18 0 8 1;
#X connect 19 0 28 0;
#X connect 20 0 10 0;
#X connect 21 0 20 0;
#X connect 23 0 28 0;
#X connect 24 0 62 0;
#X connect 25 0 0 2;
#X connect 26 0 23 0;
#X connect 27 0 28 0;
#X connect 28 0 29 0;
#X connect 29 0 9 0;
#X connect 30 0 0 1;
#X connect 31 0 33 0;
#X connect 32 0 3 0;
#X connect 32 0 7 0;
#X connect 33 0 32 0;
#X connect 34 0 30 0;
#X connect 35 0 34 0;
#X connect 36 0 0 3;
#X connect 37 0 36 0;
#X connect 38 0 37 0;
#X connect 39 0 41 0;
#X connect 40 0 39 0;
#X connect 41 0 9 2;
#X connect 42 0 10 0;
#X connect 43 0 42 0;
#X connect 44 0 45 0;
#X connect 45 0 62 0;
#X connect 46 0 22 0;
#X connect 47 0 48 0;
#X connect 47 0 61 0;
#X connect 49 0 52 0;
#X connect 49 1 53 0;
#X connect 49 2 54 0;
#X connect 49 3 55 0;
#X connect 49 4 56 0;
#X connect 49 5 57 0;
#X connect 49 6 58 0;
#X connect 49 7 59 0;
#X connect 49 8 60 0;
#X connect 52 0 63 0;
#X connect 53 0 63 0;
#X connect 54 0 63 0;
#X connect 55 0 63 0;
#X connect 56 0 63 0;
#X connect 57 0 63 0;
#X connect 58 0 63 0;
#X connect 59 0 63 0;
#X connect 60 0 63 0;
#X connect 61 0 49 0;
#X connect 62 0 46 0;
#X connect 63 0 62 0;
