#N canvas 484 53 1075 826 10;
#X obj 309 -318 inlet;
#X obj 557 338 translateXYZ;
#X obj 433 75 -;
#X obj 489 34 / 2;
#X msg 466 -78 10;
#X obj 433 42 random;
#X obj 751 53 -;
#X obj 803 -1 / 2;
#X msg 750 -78 10;
#X obj 738 21 random;
#X obj 189 193 rotateXYZ;
#X obj 557 724 cube;
#X obj 557 802 outlet;
#X obj 433 -177 r boumTransX;
#X obj 1 -170 r boumRotY;
#X obj 738 -170 r boumTransZ;
#X obj 1 52 random 360;
#X obj 635 367 r sizeY;
#X obj 598 455 random 100;
#X obj 598 435 loadbang;
#X obj 445 -128 r SetRndTransX;
#X obj 829 -170 r SetRndTransZ;
#X obj 466 -34 f;
#X obj 771 -45 f;
#X obj 656 -231 inlet;
#X obj 587 654 pix_texture;
#X obj 835 258 loadbang;
#X obj 862 288 metro 10000;
#X obj 964 284 openpanel;
#X msg 964 303 set \$1;
#X obj 964 267 bng 15 250 50 0 empty empty empty 17 7 0 10 -262144
-1 -1;
#X obj 835 347 route 1 2 3 4 5 6 7 8 9;
#X obj 557 401 scaleXYZ 5 5 5;
#X obj 199 -170 r GEMHEADglissade;
#X msg 490 707 draw line;
#X obj 490 679 loadbang;
#X obj 557 767 rectangle;
#X obj 557 697 scaleXYZ 1 1 0.3;
#X floatatom 697 449 5 0 0 0 - - -;
#X obj 96 -148 tgl 15 0 empty empty empty 17 7 0 10 -262144 -1 -1 0
1;
#X obj 557 747 translateXYZ 0 0 1;
#X obj 598 -234 r YY;
#X obj 96 -170 r GLISSADEHEAD;
#X obj 556 524 colorRGB 1 1 1 1;
#X obj 41 485 pix_texture;
#X msg 79 402 open /Users/rep/Desktop/BackUp_SushiBook/LIVE/MEDIAS/robots/robot_humps_medium.mov
;
#X obj 41 457 pix_film;
#X msg 41 375 auto \$1;
#X obj 47 351 tgl 15 0 empty empty empty 0 -6 0 8 -262144 -1 -1 0 1
;
#X obj 13 308 metro 1000;
#X obj 13 283 r tintin;
#X msg 13 333 1;
#X text 833 238 chargemebt des textures toutes les 10 secondes;
#X obj 821 243 cnv 10 10 10 empty empty empty 20 12 0 14 -258113 -66577
0;
#X obj 990 484 pix_image;
#X obj 1064 353 route 1 2 3 4 5 6 7 8 9;
#X msg 1064 396 open /LIVE/MEDIAS/ImmeublesChine/2.jpg;
#X msg 1064 416 open /LIVE/MEDIAS/ImmeublesChine/4.jpg;
#X msg 1064 436 open /LIVE/MEDIAS/ImmeublesChine/5.jpg;
#X msg 1064 456 open /LIVE/MEDIAS/ImmeublesChine/13.jpg;
#X msg 1064 476 open /LIVE/MEDIAS/ImmeublesChine/18.jpg;
#X msg 1064 496 open /LIVE/MEDIAS/ImmeublesChine/19.jpg;
#X msg 1064 516 open /LIVE/MEDIAS/ImmeublesChine/22.jpg;
#X msg 1064 536 open /LIVE/MEDIAS/ImmeublesChine/24.jpg;
#X msg 1064 556 open /LIVE/MEDIAS/ImmeublesChine/26.jpg;
#X msg 835 390 open ./medias/2.jpg;
#X msg 835 411 open ./medias/4.jpg;
#X msg 835 430 open ./medias/5.jpg;
#X msg 835 450 open ./medias/13.jpg;
#X msg 835 470 open ./medias/18.jpg;
#X msg 835 490 open ./medias/19.jpg;
#X msg 835 510 open ./medias/22.jpg;
#X msg 835 530 open ./medias/24.jpg;
#X msg 835 550 open ./medias/26.jpg;
#X obj 835 323 random 9;
#X obj 598 475 / 100;
#X msg 217 -123 set 60;
#X obj 189 -99 gemhead 60;
#X obj 540 547 colorRGB 0.5 0.8 1 1;
#X obj 587 611 pix_image medias/2.jpg;
#X obj 713 575 t a;
#X obj 766 852 rotateXYZ;
#X obj 766 923 translateXYZ;
#X obj 766 991 cube;
#X msg 699 974 draw line;
#X obj 699 954 loadbang;
#X obj 766 1034 rectangle;
#X obj 766 1014 translateXYZ 0 0 1;
#X obj 911 743 r boumTransX;
#X obj 189 -31 translateXYZ 0 0 -20;
#X obj 919 894 line;
#X obj 856 869 line;
#X obj 800 830 line;
#X obj 800 789 random 360;
#X obj 919 853 random 10;
#X obj 856 828 random 10;
#X msg 856 849 \$1 500;
#X msg 919 874 \$1 500;
#X msg 800 810 \$1 500;
#X obj 766 756 t a;
#X obj 337 72 t a;
#N canvas 469 53 445 299 preset 0;
#X msg 36 193 setK 0.05 \, setD 0 \, setD2 30;
#X msg 55 166 setK 1 \, setD 0 \, setD2 30;
#X msg 75 138 setK 1 \, setD 0 \, setD2 200;
#X obj 36 16 inlet;
#X obj 115 254 outlet;
#X msg 95 108 setK 300 \, setD 300 \, setD2 5;
#X obj 36 43 sel 2 1 0 3 4;
#X msg 115 78 setK 3000 \, setD 1000 \, setD2 5000;
#X connect 0 0 4 0;
#X connect 1 0 4 0;
#X connect 2 0 4 0;
#X connect 3 0 6 0;
#X connect 5 0 4 0;
#X connect 6 0 0 0;
#X connect 6 1 1 0;
#X connect 6 2 2 0;
#X connect 6 3 5 0;
#X connect 6 4 7 0;
#X connect 7 0 4 0;
#X restore 318 -242 pd preset;
#X obj 380 -299 loadbang;
#X obj 380 -277 f 1;
#X obj 103 4 bng 15 250 50 0 empty empty empty 17 7 0 10 -262144 -1
-1;
#X obj 449 -263 r preset_pmpd;
#X obj 434 192 * 10;
#X obj 574 -132 loadbang;
#X obj 551 -102 bang;
#X obj 545 -131 bng 15 250 50 0 empty empty empty 17 7 0 10 -262144
-1 -1;
#X obj 434 160 line;
#X floatatom 450 218 5 0 0 0 - - -;
#X msg 430 133 \$1 1000;
#X obj 741 212 * 10;
#X floatatom 751 84 5 0 0 0 - - -;
#X obj 741 147 line;
#X msg 748 113 \$1 1000;
#X floatatom 9 147 5 0 0 0 - - -;
#X obj 1 100 line;
#X msg 1 77 \$1 1000;
#X obj 1 124 * 1;
#X floatatom 735 270 5 0 0 0 - - -;
#X connect 0 0 101 0;
#X connect 3 0 2 1;
#X connect 4 0 22 0;
#X connect 5 0 2 0;
#X connect 6 0 114 0;
#X connect 7 0 6 1;
#X connect 8 0 23 0;
#X connect 9 0 6 0;
#X connect 10 0 32 0;
#X connect 11 0 40 0;
#X connect 13 0 5 0;
#X connect 14 0 16 0;
#X connect 15 0 9 0;
#X connect 16 0 119 0;
#X connect 17 0 32 2;
#X connect 18 0 75 0;
#X connect 19 0 18 0;
#X connect 20 0 22 0;
#X connect 21 0 23 0;
#X connect 22 0 5 1;
#X connect 22 0 3 0;
#X connect 23 0 7 0;
#X connect 23 0 9 1;
#X connect 24 0 32 2;
#X connect 26 0 27 0;
#X connect 26 0 74 0;
#X connect 28 0 29 0;
#X connect 30 0 28 0;
#X connect 31 0 65 0;
#X connect 31 1 66 0;
#X connect 31 2 67 0;
#X connect 31 3 68 0;
#X connect 31 4 69 0;
#X connect 31 5 70 0;
#X connect 31 6 71 0;
#X connect 31 7 72 0;
#X connect 31 8 73 0;
#X connect 32 0 78 0;
#X connect 33 0 77 0;
#X connect 34 0 11 0;
#X connect 35 0 34 0;
#X connect 36 0 12 0;
#X connect 36 0 99 0;
#X connect 37 0 11 0;
#X connect 38 0 43 4;
#X connect 38 0 43 3;
#X connect 38 0 43 2;
#X connect 38 0 43 1;
#X connect 39 0 77 0;
#X connect 40 0 36 0;
#X connect 41 0 1 2;
#X connect 42 0 39 0;
#X connect 45 0 46 0;
#X connect 46 0 44 0;
#X connect 47 0 46 0;
#X connect 48 0 47 0;
#X connect 49 0 51 0;
#X connect 50 0 49 0;
#X connect 51 0 47 0;
#X connect 55 0 56 0;
#X connect 55 1 57 0;
#X connect 55 2 58 0;
#X connect 55 3 59 0;
#X connect 55 4 60 0;
#X connect 55 5 61 0;
#X connect 55 6 62 0;
#X connect 55 7 63 0;
#X connect 55 8 64 0;
#X connect 56 0 54 0;
#X connect 57 0 54 0;
#X connect 58 0 54 0;
#X connect 59 0 54 0;
#X connect 60 0 54 0;
#X connect 61 0 54 0;
#X connect 62 0 54 0;
#X connect 63 0 54 0;
#X connect 64 0 54 0;
#X connect 65 0 80 0;
#X connect 66 0 80 0;
#X connect 67 0 80 0;
#X connect 68 0 80 0;
#X connect 69 0 80 0;
#X connect 70 0 80 0;
#X connect 71 0 80 0;
#X connect 72 0 80 0;
#X connect 73 0 80 0;
#X connect 74 0 31 0;
#X connect 75 0 43 3;
#X connect 75 0 43 2;
#X connect 75 0 43 1;
#X connect 76 0 77 0;
#X connect 77 0 89 0;
#X connect 78 0 37 0;
#X connect 79 0 25 0;
#X connect 80 0 79 0;
#X connect 81 0 82 0;
#X connect 82 0 83 0;
#X connect 83 0 87 0;
#X connect 84 0 83 0;
#X connect 85 0 84 0;
#X connect 87 0 86 0;
#X connect 88 0 93 0;
#X connect 88 0 94 0;
#X connect 88 0 95 0;
#X connect 89 0 10 0;
#X connect 90 0 82 3;
#X connect 91 0 82 1;
#X connect 92 0 81 2;
#X connect 93 0 98 0;
#X connect 94 0 97 0;
#X connect 95 0 96 0;
#X connect 96 0 91 0;
#X connect 97 0 90 0;
#X connect 98 0 92 0;
#X connect 99 0 81 0;
#X connect 101 0 100 0;
#X connect 102 0 103 0;
#X connect 103 0 101 0;
#X connect 105 0 101 0;
#X connect 106 0 1 1;
#X connect 106 0 111 0;
#X connect 107 0 109 0;
#X connect 108 0 4 0;
#X connect 108 0 8 0;
#X connect 109 0 108 0;
#X connect 110 0 106 0;
#X connect 112 0 110 0;
#X connect 113 0 1 3;
#X connect 113 0 121 0;
#X connect 115 0 113 0;
#X connect 116 0 115 0;
#X connect 118 0 120 0;
#X connect 119 0 118 0;
#X connect 120 0 117 0;
#X connect 120 0 10 2;
