#N canvas 345 -40 1585 820 10;
#X obj 309 -318 inlet;
#N canvas 366 625 268 186 stuff 0;
#X obj 13 20 loadbang;
#X obj 48 97 s \$0-lia;
#X obj 13 72 t b b;
#X obj 13 123 s \$0-masse;
#X obj 89 20 bng 15 250 50 0 empty empty empty 0 -6 0 8 -262144 -1
-1;
#X msg 124 92 reset;
#X msg 89 66 resetL \, resetF;
#X obj 89 40 t b b;
#X obj 74 -30 r stop_glissafe_pmpd;
#X obj 13 45 metro 25;
#X connect 0 0 9 0;
#X connect 2 0 3 0;
#X connect 2 1 1 0;
#X connect 4 0 7 0;
#X connect 5 0 3 0;
#X connect 6 0 1 0;
#X connect 7 0 6 0;
#X connect 7 1 5 0;
#X connect 8 0 9 0;
#X connect 9 0 2 0;
#X restore 357 156 pd stuff;
#X obj 433 156 link \$0-lia 0 1 0 200;
#X obj 557 338 translateXYZ;
#X obj 433 75 -;
#X obj 489 34 / 2;
#X msg 466 -78 10;
#X obj 433 42 random;
#X obj 751 156 link \$0-lia 0 1 0 200;
#X obj 751 53 -;
#X obj 803 -1 / 2;
#X msg 750 -78 10;
#X obj 738 21 random;
#X msg 537 -4 setK 1 \, setD 0 \, setD2 200;
#X obj 189 193 rotateXYZ;
#X obj 1 156 link \$0-lia 0 1 0 200;
#X obj 558 771 cube;
#X obj 433 -187 r boumTransX;
#X obj 1 -170 r boumRotY;
#X obj 738 -170 r boumTransZ;
#X obj 1 102 random 360;
#X obj 445 -158 r SetRndTransX;
#X obj 829 -170 r SetRndTransZ;
#X obj 466 -34 f;
#X obj 771 -45 f;
#X obj 557 704 pix_texture;
#X obj 835 258 loadbang;
#X obj 964 284 openpanel;
#X msg 964 303 set \$1;
#X obj 964 267 bng 15 250 50 0 empty empty empty 17 7 0 10 -262144
-1 -1;
#X obj 835 347 route 1 2 3 4 5 6 7 8 9;
#X obj 199 -170 r GEMHEADglissade;
#X msg 491 754 draw line;
#X obj 491 726 loadbang;
#X obj 558 814 rectangle;
#X obj 96 -148 tgl 15 0 empty empty empty 17 7 0 10 -262144 -1 -1 0
1;
#X obj 558 794 translateXYZ 0 0 1;
#X obj 603 -234 r YY;
#X obj 96 -170 r GLISSADEHEAD;
#X text 833 238 chargemebt des textures toutes les 10 secondes;
#X obj 821 243 cnv 10 10 10 empty empty empty 20 12 0 14 -258113 -66577
0;
#X obj 990 484 pix_image;
#X obj 1064 353 route 1 2 3 4 5 6 7 8 9;
#X msg 1064 396 open /LIVE/MEDIAS/ImmeublesChine/2.jpg;
#X msg 1064 416 open /LIVE/MEDIAS/ImmeublesChine/4.jpg;
#X msg 1064 436 open /LIVE/MEDIAS/ImmeublesChine/5.jpg;
#X msg 1064 456 open /LIVE/MEDIAS/ImmeublesChine/13.jpg;
#X msg 1064 476 open /LIVE/MEDIAS/ImmeublesChine/18.jpg;
#X msg 1064 496 open /LIVE/MEDIAS/ImmeublesChine/19.jpg;
#X msg 1064 516 open /LIVE/MEDIAS/ImmeublesChine/22.jpg;
#X msg 1064 536 open /LIVE/MEDIAS/ImmeublesChine/24.jpg;
#X msg 1064 556 open /LIVE/MEDIAS/ImmeublesChine/26.jpg;
#X obj 835 323 random 9;
#X msg 217 -123 set 60;
#X obj 189 -99 gemhead 60;
#X obj 711 577 t a;
#X obj 541 989 rotateXYZ;
#X obj 541 1060 translateXYZ;
#X obj 541 1084 cube;
#X msg 454 1067 draw line;
#X obj 454 1047 loadbang;
#X obj 541 1160 rectangle;
#X obj 541 1122 translateXYZ 0 0 1;
#X obj 694 909 r boumTransX;
#X obj 694 1031 line;
#X obj 631 1006 line;
#X obj 575 967 line;
#X obj 575 926 random 360;
#X obj 694 990 random 10;
#X obj 631 965 random 10;
#X msg 631 986 \$1 500;
#X msg 694 1011 \$1 500;
#X msg 575 947 \$1 500;
#X obj 541 893 t a;
#X obj 337 72 t a;
#N canvas 791 104 445 299 preset 0;
#X msg 36 193 setK 0.05 \, setD 0 \, setD2 30;
#X msg 55 166 setK 1 \, setD 0 \, setD2 30;
#X msg 75 138 setK 1 \, setD 0 \, setD2 200;
#X obj 36 16 inlet;
#X obj 115 254 outlet;
#X msg 95 108 setK 300 \, setD 300 \, setD2 5;
#X obj 36 43 sel 2 1 0 3 4;
#X msg 115 78 setK 3000 \, setD 1000 \, setD2 5000;
#X connect 0 0 4 0;
#X connect 1 0 4 0;
#X connect 2 0 4 0;
#X connect 3 0 6 0;
#X connect 5 0 4 0;
#X connect 6 0 0 0;
#X connect 6 1 1 0;
#X connect 6 2 2 0;
#X connect 6 3 5 0;
#X connect 6 4 7 0;
#X connect 7 0 4 0;
#X restore 318 -242 pd preset;
#X obj 380 -299 loadbang;
#X obj 380 -277 f 1;
#X obj 580 156 mass \$0-masse 1000 0;
#X obj 891 156 mass \$0-masse 1000 0;
#X obj 449 -263 r preset_pmpd;
#X obj 506 247 * 10;
#X obj 537 -143 loadbang;
#X obj 537 -95 bang;
#X obj 537 -118 bng 15 250 50 0 empty empty empty 17 7 0 10 -262144
-1 -1;
#X obj 335 576 loadbang;
#X obj 862 288 metro 1000;
#X obj 306 553 r init_Glissade;
#N canvas 46 53 729 700 ligne 0;
#X obj -686 275 GEMglEnd;
#X obj -549 -16 GLdefine GL_SMOOTH;
#X obj -685 48 GEMglBegin;
#X obj -685 1 GEMglShadeModel;
#X obj -686 298 GEMglShadeModel;
#X obj -543 281 GLdefine GL_FLAT;
#X obj -549 31 GLdefine GL_LINES;
#X msg -518 -83 bang;
#X msg -955 258 font /usr/share/fonts/truetype/ttf-f500/f500.ttf;
#X obj -685 95 GEMglColor4f 1 1 1 1;
#X obj -685 168 GEMglColor4f 1 1 1 1;
#X obj -478 -100 loadbang;
#X obj -518 -126 r init_Glissade;
#X obj -685 -93 inlet;
#X obj -685 114 GEMglVertex3f 0 300 0;
#X obj -686 190 GEMglVertex3f 0 -300 0;
#X connect 0 0 4 0;
#X connect 1 0 3 1;
#X connect 2 0 9 0;
#X connect 3 0 2 0;
#X connect 5 0 4 1;
#X connect 6 0 2 1;
#X connect 7 0 5 0;
#X connect 7 0 1 0;
#X connect 7 0 6 0;
#X connect 9 0 14 0;
#X connect 10 0 15 0;
#X connect 11 0 7 0;
#X connect 12 0 7 0;
#X connect 13 0 3 0;
#X connect 14 0 10 0;
#X connect 15 0 0 0;
#X restore 280 958 pd ligne;
#X obj 189 -31 translateXYZ 0 0 -10;
#X obj 557 661 pix_grey;
#X obj 223 155 mass \$0-masse 500 0;
#X obj 296 237 vsl 15 128 0 360 0 0 empty empty empty 0 -9 0 10 -262144
-1 -1 0 1;
#X obj 189 -69 scaleXYZ 3 3 3;
#X obj 557 545 colorRGB 1 0 0 0;
#X obj 557 745 scaleXYZ 3 3 3;
#X obj 558 616 pix_image ../../Medias/007.Glissade/26.jpg;
#X msg 835 510 open ../../Medias/007.Glissade/22.jpg;
#X msg 835 530 open ../../Medias/007.Glissade/24.jpg;
#X msg 835 550 open ../../Medias/007.Glissade/26.jpg;
#X msg 835 470 open ../../Medias/007.Glissade/18.jpg;
#X msg 835 490 open ../../Medias/007.Glissade/19.jpg;
#X msg 834 451 open ../../Medias/007.Glissade/13.jpg;
#X msg 833 430 open ../../Medias/007.Glissade/5.jpg;
#X msg 835 411 open ../../Medias/007.Glissade/4.jpg;
#X msg 835 390 open ../../Medias/2.jpg;
#X msg 335 599 thread 0;
#X connect 0 0 75 0;
#X connect 2 1 78 0;
#X connect 3 0 94 0;
#X connect 4 0 2 0;
#X connect 5 0 4 1;
#X connect 6 0 23 0;
#X connect 7 0 4 0;
#X connect 8 1 79 0;
#X connect 9 0 8 0;
#X connect 10 0 9 1;
#X connect 11 0 24 0;
#X connect 12 0 9 0;
#X connect 13 0 8 0;
#X connect 13 0 2 0;
#X connect 13 0 15 0;
#X connect 14 0 3 0;
#X connect 15 1 91 0;
#X connect 16 0 36 0;
#X connect 17 0 7 0;
#X connect 18 0 20 0;
#X connect 19 0 12 0;
#X connect 20 0 15 0;
#X connect 21 0 23 0;
#X connect 22 0 24 0;
#X connect 23 0 7 1;
#X connect 23 0 5 0;
#X connect 24 0 10 0;
#X connect 24 0 12 1;
#X connect 25 0 95 0;
#X connect 26 0 52 0;
#X connect 26 0 86 0;
#X connect 27 0 28 0;
#X connect 29 0 27 0;
#X connect 30 0 105 0;
#X connect 30 1 104 0;
#X connect 30 2 103 0;
#X connect 30 3 102 0;
#X connect 30 4 100 0;
#X connect 30 5 101 0;
#X connect 30 6 97 0;
#X connect 30 7 98 0;
#X connect 30 8 99 0;
#X connect 31 0 54 0;
#X connect 32 0 16 0;
#X connect 33 0 32 0;
#X connect 34 0 73 0;
#X connect 35 0 54 0;
#X connect 36 0 34 0;
#X connect 37 0 3 2;
#X connect 38 0 35 0;
#X connect 42 0 43 0;
#X connect 42 1 44 0;
#X connect 42 2 45 0;
#X connect 42 3 46 0;
#X connect 42 4 47 0;
#X connect 42 5 48 0;
#X connect 42 6 49 0;
#X connect 42 7 50 0;
#X connect 42 8 51 0;
#X connect 43 0 41 0;
#X connect 44 0 41 0;
#X connect 45 0 41 0;
#X connect 46 0 41 0;
#X connect 47 0 41 0;
#X connect 48 0 41 0;
#X connect 49 0 41 0;
#X connect 50 0 41 0;
#X connect 51 0 41 0;
#X connect 52 0 30 0;
#X connect 53 0 54 0;
#X connect 54 0 93 0;
#X connect 55 0 96 0;
#X connect 56 0 57 0;
#X connect 57 0 58 0;
#X connect 58 0 62 0;
#X connect 59 0 58 0;
#X connect 60 0 59 0;
#X connect 62 0 61 0;
#X connect 63 0 67 0;
#X connect 63 0 68 0;
#X connect 63 0 69 0;
#X connect 64 0 57 3;
#X connect 65 0 57 1;
#X connect 66 0 56 2;
#X connect 67 0 72 0;
#X connect 68 0 71 0;
#X connect 69 0 70 0;
#X connect 70 0 65 0;
#X connect 71 0 64 0;
#X connect 72 0 66 0;
#X connect 73 0 56 0;
#X connect 74 0 8 0;
#X connect 74 0 15 0;
#X connect 74 0 2 0;
#X connect 75 0 74 0;
#X connect 76 0 77 0;
#X connect 77 0 75 0;
#X connect 78 0 2 1;
#X connect 78 0 81 0;
#X connect 79 0 8 1;
#X connect 79 0 3 3;
#X connect 80 0 75 0;
#X connect 81 0 3 1;
#X connect 82 0 84 0;
#X connect 83 0 6 0;
#X connect 83 0 11 0;
#X connect 83 0 13 0;
#X connect 84 0 83 0;
#X connect 85 0 106 0;
#X connect 87 0 106 0;
#X connect 89 0 14 0;
#X connect 90 0 25 0;
#X connect 91 0 15 1;
#X connect 91 0 14 2;
#X connect 91 0 92 0;
#X connect 93 0 89 0;
#X connect 94 0 96 0;
#X connect 95 0 16 0;
#X connect 96 0 90 0;
#X connect 97 0 55 0;
#X connect 98 0 55 0;
#X connect 99 0 55 0;
#X connect 100 0 55 0;
#X connect 101 0 55 0;
#X connect 102 0 55 0;
#X connect 103 0 55 0;
#X connect 104 0 55 0;
#X connect 105 0 55 0;
#X connect 106 0 96 0;
