#N canvas 567 55 1030 651 10;
#X obj 295 38 gemhead;
#X obj 295 57 world_light;
#X obj 55 38 gemhead;
#X obj 55 69 colorRGB 1 1 1 1;
#X obj 200 36 s boooom;
#X obj 200 18 bng 15 250 50 0 empty empty empty 17 7 0 10 -262144 -1
-1;
#X obj 419 37 camera_mvt;
#N canvas 494 169 455 511 arbre 1;
#N canvas 864 119 541 655 params 0;
#X obj 78 104 bng 15 250 50 0 empty empty empty 0 -6 0 8 -262144 -1
-1;
#X obj 78 122 openpanel;
#X obj 230 79 tgl 15 0 empty empty empty 0 -6 0 8 -262144 -1 -1 0 1
;
#X msg 230 99 rescale \$1;
#X msg 82 188 smooth \$1;
#X obj 230 139 tgl 15 0 empty empty empty 0 -6 0 8 -262144 -1 -1 0
1;
#X msg 230 159 revert \$1;
#X msg 78 238 material \$1;
#X msg 230 209 texture \$1;
#X msg 232 261 group \$1;
#X floatatom 82 170 5 0 1 0 - - -;
#X msg 78 143 open \$1;
#X obj 232 243 hradio 15 1 0 3 empty empty empty 0 -6 0 8 -262144 -1
-1 0;
#X obj 78 218 tgl 15 0 empty empty empty 0 -6 0 8 -262144 -1 -1 0 1
;
#X obj 230 189 hradio 15 1 0 3 empty empty empty 0 -6 0 8 -262144 -1
-1 0;
#X obj 65 283 t a;
#X obj 64 308 outlet;
#X connect 0 0 1 0;
#X connect 1 0 11 0;
#X connect 2 0 3 0;
#X connect 3 0 15 0;
#X connect 4 0 15 0;
#X connect 5 0 6 0;
#X connect 6 0 15 0;
#X connect 7 0 15 0;
#X connect 8 0 15 0;
#X connect 9 0 15 0;
#X connect 10 0 4 0;
#X connect 11 0 15 0;
#X connect 12 0 9 0;
#X connect 13 0 7 0;
#X connect 14 0 8 0;
#X connect 15 0 16 0;
#X restore 97 345 pd params;
#X obj 99 196 random 100;
#X obj 99 220 - 50;
#X obj 76 279 translateXYZ;
#X obj 172 227 random 10;
#X obj 172 249 - 7;
#X obj 99 243 / 10;
#X obj 47 86 inlet;
#X obj 151 139 t b b;
#X obj 168 94 r boooom;
#X obj 78 379 model ./frene.obj;
#X connect 0 0 10 0;
#X connect 1 0 2 0;
#X connect 2 0 6 0;
#X connect 3 0 10 0;
#X connect 4 0 5 0;
#X connect 5 0 3 3;
#X connect 6 0 3 1;
#X connect 7 0 3 0;
#X connect 8 0 1 0;
#X connect 8 1 4 0;
#X connect 9 0 8 0;
#X restore 55 120 pd arbre;
#X obj 633 87 gemwin;
#X msg 633 35 dimen 800 300 \, FSAA 5 \, create \, 1;
#X msg 643 60 destroy;
#X obj 712 61 r fogmess;
#N canvas 466 223 681 651 lightingeffect 0;
#X text 115 144 lighting 1/0 : turn lighting on/off;
#X text 273 196 ambient R G B : the ambient lighting color;
#X text 279 250 specular R G B : the specular lighting color;
#X text 207 287 shininess num : the shininess value;
#X text 142 336 fogmode 0/1/2/3 : set the fog mode (OFF/LINEAR/EXP/EXP^2)
;
#X text 308 457 fogcolor R G B : the color of the fog;
#X text 229 377 fog num : the fog density;
#X obj 34 126 tgl 15 0 empty empty empty 0 -6 0 10 -262144 -1 -1 0
1;
#X msg 34 144 lighting \$1;
#N canvas 714 134 566 458 color 0;
#X obj 103 100 hsl 128 15 0 1 0 0 empty empty R 12 8 1 12 -261689 -1
-1 0 1;
#X obj 236 100 hsl 128 15 0 1 0 0 empty empty G 12 8 1 12 -225271 -1
-1 0 1;
#X obj 370 100 hsl 128 15 0 1 0 0 empty empty B 12 8 1 12 -228992 -1
-1 0 1;
#X obj 100 329 outlet;
#X obj 132 253 list;
#X msg 132 273 set ambient \$1 \$2 \$3;
#X obj 233 144 t b f;
#X obj 367 144 t b f;
#X obj 100 201 pack 0 0 0;
#X obj 100 230 t b a;
#X connect 0 0 8 0;
#X connect 1 0 6 0;
#X connect 2 0 7 0;
#X connect 4 0 5 0;
#X connect 5 0 3 0;
#X connect 6 0 8 0;
#X connect 6 1 8 1;
#X connect 7 0 8 0;
#X connect 7 1 8 2;
#X connect 8 0 9 0;
#X connect 9 0 3 0;
#X connect 9 1 4 0;
#X coords 0 -1 1 1 400 13 1 100 100;
#X restore 45 175 pd color sliders;
#X msg 45 197 ambient 0 0 0;
#N canvas 714 134 566 366 color 0;
#X obj 103 100 hsl 128 15 0 1 0 0 empty empty R 12 8 1 12 -261689 -1
-1 0 1;
#X obj 236 100 hsl 128 15 0 1 0 0 empty empty G 12 8 1 12 -225271 -1
-1 0 1;
#X obj 370 100 hsl 128 15 0 1 0 0 empty empty B 12 8 1 12 -228992 -1
-1 0 1;
#X obj 100 299 outlet;
#X obj 132 223 list;
#X msg 132 242 set specular \$1 \$2 \$3;
#X obj 233 124 t b f;
#X obj 367 124 t b f;
#X obj 100 171 pack 0 0 0;
#X obj 100 199 t b a;
#X connect 0 0 8 0;
#X connect 1 0 6 0;
#X connect 2 0 7 0;
#X connect 4 0 5 0;
#X connect 5 0 3 0;
#X connect 6 0 8 0;
#X connect 6 1 8 1;
#X connect 7 0 8 0;
#X connect 7 1 8 2;
#X connect 8 0 9 0;
#X connect 9 0 3 0;
#X connect 9 1 4 0;
#X coords 0 -1 1 1 400 13 1 100 100;
#X restore 52 229 pd color sliders;
#X msg 52 251 specular 0 0 0;
#N canvas 710 134 570 462 color 0;
#X obj 103 100 hsl 128 15 0 1 0 0 empty empty R 12 8 1 12 -261689 -1
-1 0 1;
#X obj 236 100 hsl 128 15 0 1 0 0 empty empty G 12 8 1 12 -225271 -1
-1 0 1;
#X obj 370 100 hsl 128 15 0 1 0 0 empty empty B 12 8 1 12 -228992 -1
-1 0 1;
#X obj 100 299 outlet;
#X obj 132 223 list;
#X msg 132 242 set fogcolor \$1 \$2 \$3;
#X obj 233 125 t b f;
#X obj 367 125 t b f;
#X obj 100 171 pack 0 0 0;
#X obj 100 200 t b a;
#X connect 0 0 8 0;
#X connect 1 0 6 0;
#X connect 2 0 7 0;
#X connect 4 0 5 0;
#X connect 5 0 3 0;
#X connect 6 0 8 0;
#X connect 6 1 8 1;
#X connect 7 0 8 0;
#X connect 7 1 8 2;
#X connect 8 0 9 0;
#X connect 9 0 3 0;
#X connect 9 1 4 0;
#X coords 0 -1 1 1 400 13 1 100 100;
#X restore 64 436 pd color sliders;
#X msg 64 458 fogcolor 0 0 0;
#X msg 69 348 fogmode 0;
#N canvas 889 134 348 479 fog 0;
#X obj 84 239 outlet;
#X obj 100 101 hradio 15 1 0 4 empty empty empty 0 -6 0 10 -262144
-1 -1 0;
#X msg 207 182 set fogmode \$1;
#X obj 84 140 trigger bang float;
#X connect 1 0 3 0;
#X connect 2 0 0 0;
#X connect 3 0 0 0;
#X connect 3 1 2 0;
#X coords 0 -1 1 1 60 13 1 100 100;
#X restore 69 324 pd fog;
#X msg 60 298 shininess 0;
#N canvas 889 134 356 487 fog 0;
#X obj 84 239 outlet;
#X obj 84 140 trigger bang float;
#X msg 207 182 set shininess \$1;
#X obj 103 101 hsl 128 15 0 1 0 0 empty empty empty -2 -6 0 10 -262144
-1 -1 0 1;
#X connect 1 0 0 0;
#X connect 1 1 2 0;
#X connect 2 0 0 0;
#X connect 3 0 1 0;
#X coords 0 -1 1 1 133 13 1 100 100;
#X restore 60 276 pd fog;
#X msg 70 398 fog 0;
#N canvas 889 134 364 495 fog 0;
#X obj 84 239 outlet;
#X obj 84 140 trigger bang float;
#X obj 103 101 hsl 128 15 0 1 0 0 empty empty empty -2 -6 0 10 -262144
-1 -1 0 1;
#X msg 207 182 set fog \$1;
#X connect 1 0 0 0;
#X connect 1 1 3 0;
#X connect 2 0 1 0;
#X connect 3 0 0 0;
#X coords 0 -1 1 1 133 13 1 100 100;
#X restore 70 376 pd fog;
#X obj 34 485 s \$0-gemwin-in;
#X msg 301 22 \; fogmess fogmode 2 \; fogmess fog 0.1;
#X msg 41 24 \; fogmess fogmode 0;
#X msg 169 23 \; fogmess fogmode 1 \; fogmess fog 0.7;
#X text 75 0 no fog;
#X text 188 -2 linear fog;
#X text 336 -3 exp fog;
#X text 459 -4 exp^2 fog;
#X msg 430 21 \; fogmess fogmode 3 \; fogmess fog 0.1;
#X connect 7 0 8 0;
#X connect 8 0 21 0;
#X connect 9 0 10 0;
#X connect 10 0 21 0;
#X connect 11 0 12 0;
#X connect 12 0 21 0;
#X connect 13 0 14 0;
#X connect 14 0 21 0;
#X connect 15 0 21 0;
#X connect 16 0 15 0;
#X connect 17 0 21 0;
#X connect 18 0 17 0;
#X connect 19 0 21 0;
#X connect 20 0 19 0;
#X restore 686 130 pd lightingeffect;
#X connect 0 0 1 0;
#X connect 2 0 3 0;
#X connect 3 0 7 0;
#X connect 5 0 4 0;
#X connect 9 0 8 0;
#X connect 10 0 8 0;
#X connect 11 0 8 0;
