#N canvas 1 84 1598 815 10;
#X obj 336 786 model;
#X msg 347 758 open \$1;
#X obj 347 737 openpanel;
#X obj 347 718 bng 15 250 50 0 empty empty empty 17 7 0 10 -191407
-1 -1;
#X floatatom 427 649 5 0 0 0 - - -, f 5;
#X msg 426 754 set \$1;
#X msg 426 775 /home/rep/LIVE/VJSET_backup/LIVE3/001_Paysage/montagne.obj
;
#X obj 57 112 nbx 5 14 -1e+37 1e+37 0 0 empty empty empty 0 -8 0 10
-257985 -1 -1 -9 256;
#X obj 59 44 loadbang;
#X obj 336 680 scaleXYZ 300 500 300;
#X msg 59 65 -9;
#X obj 181 685 loadbang;
#X msg 181 705 open montagne.obj;
#X obj 336 551 GEMglPolygonMode;
#X obj 382 494 GLdefine GL_FRONT_AND_BACK;
#X obj 419 412 loadbang;
#X obj 359 444 GLdefine GL_FRONT_AND_BACK;
#X obj 529 464 bng 15 250 50 0 empty empty empty 17 7 0 10 -257985
-1 -1;
#X obj 336 954 GEMglPolygonMode;
#X obj 398 907 GLdefine GL_FRONT_AND_BACK;
#X obj 458 828 loadbang;
#X obj 390 857 GLdefine GL_FRONT_AND_BACK;
#X obj 496 881 bng 15 250 50 0 empty empty empty 17 7 0 10 -257985
-1 -1;
#X obj 445 929 GLdefine GL_FILL;
#X obj 336 380 colorRGB 1 1 1 1;
#X obj 429 516 GLdefine GL_LINE;
#X obj 487 200 electribe_note;
#X floatatom 487 174 5 0 0 0 - - -, f 5;
#X obj 376 276 random 360;
#X obj 336 315 rotateXYZ;
#X obj 487 -147 inlet;
#X obj 574 217 bng 15 250 50 0 empty empty empty 17 7 0 10 -262144
-1 -1;
#X obj 336 169 alpha;
#X obj 459 558 GLdefine GL_FILL;
#X obj 597 543 bng 15 250 50 0 empty empty empty 17 7 0 10 -257985
-1 -1;
#X obj 277 533 t f;
#X obj 479 363 pipe 150;
#X msg 479 331 0;
#X obj 447 230 t b b;
#X msg 445 331 1;
#X obj 375 -147 inlet;
#X obj 336 606 translateXYZ 0 -9 0;
#X obj 336 93 spigot;
#X obj 336 -56 r montagnes;
#X obj 336 124 separator;
#X obj 336 150 translateXYZ 0 0 -4;
#X connect 0 0 18 0;
#X connect 1 0 0 0;
#X connect 2 0 1 0;
#X connect 2 0 5 0;
#X connect 3 0 2 0;
#X connect 4 0 9 1;
#X connect 4 0 9 2;
#X connect 4 0 9 3;
#X connect 5 0 6 0;
#X connect 7 0 35 0;
#X connect 8 0 10 0;
#X connect 9 0 0 0;
#X connect 10 0 7 0;
#X connect 11 0 12 0;
#X connect 12 0 0 0;
#X connect 13 0 41 0;
#X connect 14 0 13 1;
#X connect 15 0 14 0;
#X connect 15 0 16 0;
#X connect 15 0 25 0;
#X connect 16 0 13 1;
#X connect 17 0 14 0;
#X connect 17 0 16 0;
#X connect 17 0 25 0;
#X connect 19 0 18 1;
#X connect 20 0 19 0;
#X connect 20 0 23 0;
#X connect 20 0 21 0;
#X connect 21 0 18 1;
#X connect 22 0 19 0;
#X connect 22 0 23 0;
#X connect 22 0 21 0;
#X connect 23 0 18 2;
#X connect 24 0 13 0;
#X connect 25 0 13 2;
#X connect 26 0 31 0;
#X connect 26 0 38 0;
#X connect 27 0 26 0;
#X connect 28 0 29 2;
#X connect 29 0 24 0;
#X connect 30 0 27 0;
#X connect 32 0 29 0;
#X connect 33 0 13 2;
#X connect 34 0 33 0;
#X connect 36 0 24 4;
#X connect 37 0 36 0;
#X connect 38 0 28 0;
#X connect 38 1 39 0;
#X connect 38 1 37 0;
#X connect 39 0 24 4;
#X connect 40 0 42 1;
#X connect 41 0 9 0;
#X connect 42 0 44 0;
#X connect 43 0 42 0;
#X connect 44 0 45 0;
#X connect 45 0 32 0;
#X coords 0 815 1 814 256 32 0;
