#N canvas 179 154 1236 574 10;
#X obj 170 102 hradio 15 1 0 5 empty empty empty 0 -6 0 8 -262144 -1
-1 0;
#N canvas 477 25 445 299 preset 0;
#X msg 36 193 setK 0.05 \, setD 0 \, setD2 30;
#X msg 55 166 setK 1 \, setD 0 \, setD2 30;
#X msg 75 138 setK 1 \, setD 0 \, setD2 200;
#X obj 36 16 inlet;
#X obj 115 254 outlet;
#X msg 95 108 setK 300 \, setD 300 \, setD2 5;
#X obj 36 43 sel 2 1 0 3 4;
#X msg 115 78 setK 3000 \, setD 1000 \, setD2 5000;
#X connect 0 0 4 0;
#X connect 1 0 4 0;
#X connect 2 0 4 0;
#X connect 3 0 6 0;
#X connect 5 0 4 0;
#X connect 6 0 0 0;
#X connect 6 1 1 0;
#X connect 6 2 2 0;
#X connect 6 3 5 0;
#X connect 6 4 7 0;
#X connect 7 0 4 0;
#X restore 170 125 pd preset;
#X obj 170 225 link \$0-link 0 1 0 200;
#X obj 312 226 mass \$0-mass 10000 0;
#X obj 203 337 outlet;
#X obj 170 52 loadbang;
#X msg 170 75 0;
#X obj 429 49 inlet;
#N canvas 1 165 268 186 stuff 0;
#X obj 13 20 loadbang;
#X obj 48 97 s \$0-link;
#X obj 13 72 t b b;
#X obj 13 123 s \$0-mass;
#X obj 89 20 bng 15 250 50 0 empty empty empty 0 -6 0 8 -262144 -1
-1;
#X msg 124 92 reset;
#X msg 89 66 resetL \, resetF;
#X obj 89 40 t b b;
#X obj 13 45 metro 10;
#X obj 4 5 tgl 15 0 empty empty empty 17 7 0 10 -262144 -1 -1 0 1;
#X connect 0 0 8 0;
#X connect 2 0 3 0;
#X connect 2 1 1 0;
#X connect 4 0 7 0;
#X connect 5 0 3 0;
#X connect 6 0 1 0;
#X connect 7 0 6 0;
#X connect 7 1 5 0;
#X connect 8 0 2 0;
#X connect 9 0 8 0;
#X restore 508 -23 pd stuff;
#X obj 468 205 link \$0-link 0 1 0 200;
#X obj 610 206 mass \$0-mass 10000 0;
#X obj 755 190 link \$0-link 0 1 0 200;
#X obj 897 192 mass \$0-mass 10000 0;
#X obj 470 124 / 25;
#X obj 471 151 + 1;
#X obj 146 102 tgl 15 0 empty empty empty 17 7 0 10 -262144 -1 -1 1
1;
#X obj 203 311 spigot;
#X obj 547 318 outlet;
#X obj 546 297 spigot;
#X obj 881 289 outlet;
#X obj 883 264 spigot;
#X obj 680 -57 inlet;
#X obj 773 81 / 2;
#X obj 773 61 t f f;
#X obj 857 -45 inlet;
#X obj 470 98 random 50;
#X obj 769 130 random 50;
#X obj 184 165 random 50;
#X obj 193 195 - 40;
#X obj 766 159 - 40;
#X connect 0 0 1 0;
#X connect 1 0 2 0;
#X connect 1 0 9 0;
#X connect 1 0 11 0;
#X connect 2 1 3 0;
#X connect 3 0 2 1;
#X connect 3 0 16 0;
#X connect 5 0 6 0;
#X connect 6 0 0 0;
#X connect 7 0 25 0;
#X connect 7 0 26 0;
#X connect 7 0 27 0;
#X connect 9 1 10 0;
#X connect 10 0 9 1;
#X connect 10 0 18 0;
#X connect 11 1 12 0;
#X connect 12 0 11 1;
#X connect 12 0 20 0;
#X connect 13 0 14 0;
#X connect 14 0 9 0;
#X connect 15 0 16 1;
#X connect 15 0 18 1;
#X connect 15 0 20 1;
#X connect 16 0 4 0;
#X connect 18 0 17 0;
#X connect 20 0 19 0;
#X connect 21 0 15 0;
#X connect 22 0 28 1;
#X connect 22 0 29 1;
#X connect 23 0 22 0;
#X connect 23 1 26 1;
#X connect 23 1 27 1;
#X connect 24 0 23 0;
#X connect 25 0 13 0;
#X connect 26 0 29 0;
#X connect 27 0 28 0;
#X connect 28 0 2 0;
#X connect 29 0 11 0;
#X coords 0 -1 1 1 150 20 1 100 100;
