#N canvas 19 104 1539 795 10;
#X declare -path /home/rep/LIVE3/Medias/Paysage;
#X declare -path /home/rep/LIVE/VJSET_backup/LIVE3;
#X obj -233 315 gemhead;
#X obj -138 294 s boooom;
#X obj 103 110 bng 15 250 50 0 empty empty boom 17 7 0 10 -257985 -1
-1;
#X obj -385 276 gemhead;
#X obj -388 368 translateXYZ 0 -1 0;
#X obj -388 387 rotateXYZ -90 0 0;
#X obj -170 259 s seeed;
#X obj 260 128 tgl 15 0 empty empty empty 17 7 0 10 -257985 -1 -1 1
1;
#X obj 103 146 tgl 15 0 empty empty Sol 17 7 0 10 -257985 -1 -1 0 1
;
#X obj 704 276 mvt;
#X obj 704 410 s caameeraa;
#X obj -233 402 scaleXYZ 10 10 10;
#X floatatom -314 349 5 0 0 0 - - -, f 5;
#X obj -388 406 circle 300;
#X obj 704 234 tgl 15 0 empty empty empty 17 7 0 10 -262144 -1 -1 1
1;
#X msg 285 558 draw point;
#X msg 201 558 draw default;
#X obj 484 516 s caameeraa;
#X msg 484 495 fog \$1;
#X obj 484 473 line;
#X obj 422 438 bng 15 250 50 0 empty empty empty 17 7 0 10 -262144
-1 -1;
#X obj 376 394 gemhead 40;
#X msg 391 470 1;
#X msg 422 487 0;
#X obj 422 516 t f;
#X msg 484 453 0.1 \, 0 200;
#X obj 422 470 delay 50;
#X obj 523 480 hsl 128 15 0 1 0 0 empty empty empty -2 -8 0 10 -262144
-1 -1 0 1;
#X obj 704 367 pack f f f f f f;
#X msg 704 387 view \$1 \$2 \$3 \$4 \$5 \$6 0 1 0;
#X obj 953 386 int;
#X obj 933 365 line;
#X obj 896 411 random 100;
#X obj 896 389 b;
#X obj 933 319 bng 15 250 50 0 empty empty empty 17 7 0 10 -262144
-1 -1;
#X msg 836 335 0;
#X msg 932 340 100 \, 0 500;
#X obj 376 373 tgl 15 0 empty empty empty 17 7 0 10 -257985 -1 -1 0
1;
#X floatatom -163 351 5 0 0 0 - - -, f 5;
#X msg 515 -62 /home/rep/LIVE3/Medias/Paysage/ciel_etoile.png;
#X obj 87 399 gemhead;
#X msg 6 492 draw point;
#X obj 6 472 loadbang;
#X obj 87 381 tgl 15 0 empty empty empty 17 7 0 10 -257985 -1 -1 1
1;
#X obj 117 509 sphere 250 100;
#X obj 376 575 sphere 300 100;
#X obj -233 380 translateXYZ 0 9 0;
#X obj 297 29 loadbang;
#X msg 295 49 1;
#X obj 704 188 loadbang;
#X msg 704 210 1;
#X obj 87 341 loadbang;
#X msg 87 361 1;
#X msg 20 382 set 100;
#X obj 123 179 nbx 5 14 -1e+37 1e+37 0 0 empty empty y_position 0 -8
0 10 -257985 -1 -1 0 256;
#X obj 205 177 nbx 5 14 -1e+37 1e+37 0 0 empty empty y_viewpoint 0
-8 0 10 -257985 -1 -1 0 256;
#X obj 185 381 nbx 5 14 -1e+37 1e+37 0 0 empty empty empty 0 -8 0 10
-257985 -1 -1 270 256;
#X obj 259 381 nbx 5 14 -1e+37 1e+37 0 0 empty empty empty 0 -8 0 10
-257985 -1 -1 0 256;
#X obj 157 481 - 1;
#X obj 231 27 loadbang;
#X obj -89 386 tgl 15 0 empty empty empty 17 7 0 10 -257985 -1 -1 0
112;
#X msg -89 406 \$1;
#X obj -89 343 loadbang;
#X msg -89 366 0;
#X obj 242 -62 declare -path /home/rep/LIVE3/Medias/Paysage;
#X obj 157 434 t a;
#X obj 103 128 tgl 15 0 empty empty Arbres 17 7 0 10 -257985 -1 -1
0 1;
#X obj 320 103 tgl 15 0 empty empty all 17 7 0 10 -257985 -1 -1 0 1
;
#X obj 376 545 colorRGB 0 0 0 1;
#X floatatom 746 92 0 0 0 0 - - -;
#X text 744 60 controleur;
#X floatatom 797 96 5 0 0 0 - - -, f 5;
#X obj 746 75 notein 1;
#X obj 781 477 gemwin;
#X obj 603 516 gemwin;
#X obj 561 14 ./_Utiles/fenetre;
#X obj 678 13 ./_Utiles/joystick;
#X text 679 -5 USER INPUT;
#X text 560 -3 OPENGL WINDOW;
#X obj 564 52 hsl 128 15 0 1 0 0 empty empty empty -2 -8 0 10 -257985
-1 -1 0 1;
#X msg 561 69 color \$1 \$1 \$1;
#X msg 561 33 0;
#X obj 561 88 gemwin;
#X obj 563 -26 declare -path /home/rep/LIVE/VJSET_backup/LIVE3;
#X obj 704 253 metro 10000;
#X obj 180 113 nbx 5 14 -1e+37 1e+37 0 0 empty empty grosseur_lune
0 -8 0 10 -257985 -1 -1 270 256;
#X msg 232 44 270;
#X obj -422 452 translateXYZ 0 -0.2 0;
#X obj -232 423 colorRGB 1 1 1 1;
#X msg 483 41 lighting 0;
#X obj -383 310 colorRGB 0 0 0 1;
#X obj -398 50 camera;
#X floatatom -410 0 5 0 0 0 - - -, f 5;
#X floatatom -371 -3 5 0 0 0 - - -, f 5;
#X floatatom -332 -3 5 0 0 0 - - -, f 5;
#X floatatom -296 -5 5 0 0 0 - - -, f 5;
#X floatatom -255 -9 5 0 0 0 - - -, f 5;
#X floatatom -214 -10 5 0 0 0 - - -, f 5;
#X floatatom -176 -13 5 0 0 0 - - -, f 5;
#X obj -387 -129 tgl 15 0 empty empty empty 17 7 0 10 -262144 -1 -1
0 1;
#X msg -352 -133 open 17;
#X msg -172 -71 refresh;
#X msg -235 -118 print;
#X msg -283 -131 close;
#X msg -170 -112 poll 2;
#X text -174 -127 start polling and set the poll delay in ms;
#X obj -333 -57 hid/joystick;
#X obj -167 472 rotateXYZ;
#X obj -74 481 line;
#X obj 270 177 tgl 15 0 empty empty rotate_tree 17 7 0 10 -260097 -1
-1 0 1;
#X obj -57 439 metro 60000;
#X msg -81 459 0 \, 360 60000;
#X floatatom 777 214 5 0 0 0 - - -, f 5;
#X floatatom 260 145 5 10 200 0 random_deplacement - -, f 5;
#X obj 831 452 unpack f f f f f f f;
#X floatatom 810 595 5 0 0 0 - - -, f 5;
#X floatatom 830 574 5 0 0 0 - - -, f 5;
#X floatatom 858 559 5 0 0 0 - - -, f 5;
#X floatatom 876 536 5 0 0 0 - - -, f 5;
#X floatatom 899 514 5 0 0 0 - - -, f 5;
#X floatatom 919 495 5 0 0 0 - - -, f 5;
#X floatatom 945 477 5 0 0 0 - - -, f 5;
#X text 275 125 seed;
#X obj 319 125 tgl 15 0 empty empty mvt 17 7 0 10 -257985 -1 -1 0 1
;
#X obj 434 319 sel 0;
#X msg 434 343 stop;
#X obj 312 150 tgl 15 0 empty empty nuit 17 7 0 10 -257985 -1 -1 0
1;
#X obj -241 513 arbre frene3.obj;
#X obj -442 493 arbre buis.obj;
#X connect 0 0 46 0;
#X connect 2 0 1 0;
#X connect 3 0 90 0;
#X connect 4 0 5 0;
#X connect 5 0 13 0;
#X connect 7 0 6 0;
#X connect 8 0 3 0;
#X connect 9 0 28 0;
#X connect 9 1 28 2;
#X connect 11 0 88 0;
#X connect 12 0 4 2;
#X connect 14 0 84 0;
#X connect 15 0 45 0;
#X connect 16 0 45 0;
#X connect 18 0 17 0;
#X connect 18 0 74 0;
#X connect 19 0 18 0;
#X connect 20 0 25 0;
#X connect 20 0 22 0;
#X connect 20 0 26 0;
#X connect 21 0 68 0;
#X connect 22 0 24 0;
#X connect 23 0 24 0;
#X connect 24 0 68 3;
#X connect 24 0 68 2;
#X connect 24 0 68 1;
#X connect 25 0 19 0;
#X connect 26 0 23 0;
#X connect 27 0 18 0;
#X connect 28 0 29 0;
#X connect 28 0 114 0;
#X connect 29 0 10 0;
#X connect 29 0 73 0;
#X connect 30 0 32 1;
#X connect 31 0 30 0;
#X connect 31 0 33 0;
#X connect 32 0 28 3;
#X connect 33 0 32 0;
#X connect 34 0 36 0;
#X connect 35 0 28 5;
#X connect 35 0 28 4;
#X connect 35 0 28 3;
#X connect 36 0 31 0;
#X connect 37 0 21 0;
#X connect 38 0 46 2;
#X connect 40 0 44 0;
#X connect 41 0 44 0;
#X connect 42 0 41 0;
#X connect 43 0 40 0;
#X connect 46 0 11 0;
#X connect 47 0 48 0;
#X connect 48 0 7 0;
#X connect 49 0 50 0;
#X connect 50 0 14 0;
#X connect 51 0 52 0;
#X connect 52 0 43 0;
#X connect 53 0 40 0;
#X connect 54 0 28 1;
#X connect 55 0 28 4;
#X connect 56 0 65 0;
#X connect 57 0 45 2;
#X connect 58 0 44 1;
#X connect 59 0 86 0;
#X connect 60 0 61 0;
#X connect 61 0 88 3;
#X connect 61 0 88 2;
#X connect 61 0 88 1;
#X connect 62 0 63 0;
#X connect 63 0 60 0;
#X connect 65 0 58 0;
#X connect 65 0 45 1;
#X connect 66 0 0 0;
#X connect 67 0 66 0;
#X connect 67 0 8 0;
#X connect 67 0 43 0;
#X connect 67 0 37 0;
#X connect 67 0 123 0;
#X connect 68 0 45 0;
#X connect 72 0 69 0;
#X connect 72 1 71 0;
#X connect 79 0 80 0;
#X connect 80 0 82 0;
#X connect 81 0 79 0;
#X connect 84 0 9 0;
#X connect 85 0 56 0;
#X connect 86 0 85 0;
#X connect 87 0 128 0;
#X connect 88 0 107 0;
#X connect 89 0 82 0;
#X connect 90 0 4 0;
#X connect 99 0 106 0;
#X connect 100 0 106 0;
#X connect 101 0 106 0;
#X connect 102 0 106 0;
#X connect 103 0 106 0;
#X connect 104 0 106 0;
#X connect 106 0 92 0;
#X connect 106 1 93 0;
#X connect 106 2 94 0;
#X connect 106 3 95 0;
#X connect 106 4 96 0;
#X connect 106 5 97 0;
#X connect 106 6 98 0;
#X connect 107 0 87 0;
#X connect 107 0 127 0;
#X connect 108 0 107 2;
#X connect 109 0 110 0;
#X connect 109 0 124 0;
#X connect 110 0 111 0;
#X connect 111 0 108 0;
#X connect 113 0 9 2;
#X connect 114 0 115 0;
#X connect 114 1 116 0;
#X connect 114 2 117 0;
#X connect 114 3 118 0;
#X connect 114 4 119 0;
#X connect 114 5 120 0;
#X connect 114 6 121 0;
#X connect 123 0 9 1;
#X connect 124 0 125 0;
#X connect 125 0 108 0;
#X connect 126 0 37 0;
#X coords 0 -1 1 1 256 98 1 100 100;
