#N canvas 24 171 1364 706 10;
#X msg 236 665 draw point;
#X obj 232 639 loadbang;
#X obj 361 -88 tgl 15 0 empty empty sphere 17 7 0 10 -257985 -1 -1
1 1;
#X obj 322 682 sphere 250 100;
#X obj 528 -127 loadbang;
#X obj 370 582 nbx 5 14 -1e+37 1e+37 0 0 empty empty empty 0 -8 0 10
-257985 -1 -1 0 256;
#X obj 362 654 - 1;
#X obj 362 607 t a;
#X obj -368 12 camera;
#X floatatom -380 -38 5 0 0 0 - - -, f 5;
#X floatatom -341 -41 5 0 0 0 - - -, f 5;
#X floatatom -302 -41 5 0 0 0 - - -, f 5;
#X floatatom -266 -43 5 0 0 0 - - -, f 5;
#X floatatom -225 -47 5 0 0 0 - - -, f 5;
#X floatatom -184 -48 5 0 0 0 - - -, f 5;
#X floatatom -146 -51 5 0 0 0 - - -, f 5;
#X obj -357 -167 tgl 15 0 empty empty empty 17 7 0 10 -262144 -1 -1
0 1;
#X msg -322 -171 open 17;
#X msg -142 -109 refresh;
#X msg -205 -156 print;
#X msg -253 -169 close;
#X msg -140 -150 poll 2;
#X text -144 -165 start polling and set the poll delay in ms;
#X obj -303 -95 hid/joystick;
#X floatatom 709 394 5 0 0 0 - - -, f 5;
#X obj 509 337 tgl 15 0 empty empty empty 17 7 0 10 -262144 -1 -1 1
1;
#X obj 322 531 rotateXYZ;
#X obj 639 405 / 4;
#X obj 509 377 cyclone/MouseStatee;
#X obj 509 293 loadbang;
#X msg 509 316 1;
#X obj 322 -169 r paysage;
#X obj 322 92 translateXYZ 0 0 -4;
#X obj 322 210 colorRGB 0.5 0.5 0.5 1;
#X floatatom 431 43 5 1 64 0 - - -, f 5;
#X obj 322 64 GEMglPointSize 2;
#X obj 322 -26 spigot;
#X obj 509 357 metro 100;
#X obj 639 465 line;
#X msg 639 428 \$1 100;
#X msg 528 -105 0;
#X obj 362 427 line;
#X obj 362 367 tgl 15 0 empty empty empty 17 7 0 10 -262144 -1 -1 1
1;
#X obj 89 444 s root;
#X floatatom -363 325 5 0 0 0 - - -, f 5;
#X floatatom -363 344 5 0 0 0 - - -, f 5;
#X floatatom -325 327 5 0 0 0 - - -, f 5;
#X floatatom -255 319 5 0 0 0 - - -, f 5;
#X floatatom -266 277 5 0 0 0 - - -, f 5;
#X obj -371 165 tgl 15 0 empty empty empty 17 7 0 10 -262144 -1 -1
0 1;
#X obj -352 94 tgl 15 0 empty empty empty 17 7 0 10 -262144 -1 -1 0
1;
#X msg -317 90 open 17;
#X msg -137 152 refresh;
#X msg -200 105 print;
#X msg -248 92 close;
#X text -139 96 start polling and set the poll delay in ms;
#X obj -298 166 t a;
#X msg -135 111 poll 20;
#X obj -362 268 hid/mouse 1;
#X obj 361 -138 inlet;
#X msg 397 159 0.5;
#X msg 360 159 1;
#X msg 434 159 0;
#X obj 397 183 t a;
#X obj 362 385 metro 100000;
#X msg 362 405 0 \, 360 100000;
#X obj 362 327 loadbang;
#X msg 362 347 1;
#X obj 362 482 t a;
#X obj 360 139 bng 15 250 50 0 empty empty empty 17 7 0 10 -262144
-1 -1;
#X obj 397 139 bng 15 250 50 0 empty empty empty 17 7 0 10 -99865 -1
-1;
#X obj 434 140 bng 15 250 50 0 empty empty empty 17 7 0 10 -1 -1 -1
;
#X connect 0 0 3 0;
#X connect 1 0 0 0;
#X connect 2 0 36 1;
#X connect 4 0 40 0;
#X connect 5 0 7 0;
#X connect 6 0 3 1;
#X connect 7 0 6 0;
#X connect 16 0 23 0;
#X connect 17 0 23 0;
#X connect 18 0 23 0;
#X connect 19 0 23 0;
#X connect 20 0 23 0;
#X connect 21 0 23 0;
#X connect 23 0 9 0;
#X connect 23 1 10 0;
#X connect 23 2 11 0;
#X connect 23 3 12 0;
#X connect 23 4 13 0;
#X connect 23 5 14 0;
#X connect 23 6 15 0;
#X connect 25 0 37 0;
#X connect 26 0 3 0;
#X connect 27 0 39 0;
#X connect 28 1 24 0;
#X connect 28 1 27 0;
#X connect 29 0 30 0;
#X connect 30 0 25 0;
#X connect 31 0 36 0;
#X connect 32 0 33 0;
#X connect 33 0 26 0;
#X connect 34 0 35 1;
#X connect 35 0 32 0;
#X connect 36 0 35 0;
#X connect 37 0 28 0;
#X connect 38 0 68 0;
#X connect 39 0 38 0;
#X connect 40 0 2 0;
#X connect 41 0 43 0;
#X connect 41 0 68 0;
#X connect 42 0 64 0;
#X connect 44 0 45 0;
#X connect 49 0 58 0;
#X connect 50 0 56 0;
#X connect 51 0 56 0;
#X connect 52 0 56 0;
#X connect 53 0 56 0;
#X connect 54 0 56 0;
#X connect 56 0 58 0;
#X connect 57 0 56 0;
#X connect 58 0 44 0;
#X connect 58 1 46 0;
#X connect 58 2 47 0;
#X connect 58 3 48 0;
#X connect 59 0 2 0;
#X connect 60 0 63 0;
#X connect 61 0 63 0;
#X connect 62 0 63 0;
#X connect 63 0 33 3;
#X connect 63 0 33 2;
#X connect 63 0 33 1;
#X connect 64 0 65 0;
#X connect 65 0 41 0;
#X connect 66 0 67 0;
#X connect 67 0 42 0;
#X connect 68 0 26 2;
#X connect 69 0 61 0;
#X connect 70 0 60 0;
#X connect 71 0 62 0;
#X coords 0 706 1 705 256 17 0;
