#N canvas 707 604 958 677 10;
#X obj 61 275 translateXYZ;
#X obj 144 78 t b b;
#X obj 276 -153 r boooom;
#X obj 186 366 rotateXYZ;
#X obj 220 333 random 360;
#X obj 26 19 inlet;
#X obj 255 450 outlet;
#X obj 343 101 spigot 0;
#X obj 424 100 spigot 0;
#X obj 588 85 tgl 15 0 empty empty empty 17 7 0 10 -262144 -1 -1 1
1;
#X obj 441 -188 inlet;
#X obj 588 60 r seeed;
#X obj 518 100 spigot 0;
#X obj 187 269 b;
#X obj 456 -41 + 1;
#X msg 360 -6 seed \$1;
#X msg 431 65 seed \$1;
#X msg 517 49 seed \$1;
#X obj 522 2 + 1;
#X obj 441 -163 t b b b;
#X obj 383 -38 f;
#X obj 433 1 f;
#X obj 503 25 f;
#X obj 411 -73 random 10;
#X obj 84 115 random 5;
#X obj 84 139 - 2;
#X obj 130 201 random 5;
#X obj 130 226 - 2;
#X connect 0 0 3 0;
#X connect 1 0 24 0;
#X connect 1 1 26 0;
#X connect 2 0 1 0;
#X connect 2 0 4 0;
#X connect 2 0 23 0;
#X connect 3 0 6 0;
#X connect 4 0 3 2;
#X connect 5 0 0 0;
#X connect 5 0 1 0;
#X connect 5 0 13 0;
#X connect 7 0 24 0;
#X connect 8 0 26 0;
#X connect 9 0 7 1;
#X connect 9 0 8 1;
#X connect 9 0 12 1;
#X connect 10 0 19 0;
#X connect 11 0 9 0;
#X connect 12 0 4 0;
#X connect 13 0 4 0;
#X connect 14 0 18 0;
#X connect 14 0 21 1;
#X connect 15 0 7 0;
#X connect 16 0 8 0;
#X connect 17 0 12 0;
#X connect 18 0 22 1;
#X connect 19 0 20 0;
#X connect 19 1 21 0;
#X connect 19 2 22 0;
#X connect 20 0 15 0;
#X connect 21 0 16 0;
#X connect 22 0 17 0;
#X connect 23 0 14 0;
#X connect 23 0 20 1;
#X connect 24 0 25 0;
#X connect 25 0 0 1;
#X connect 26 0 27 0;
#X connect 27 0 0 3;
