#N canvas 52 346 620 362 10;
#X obj 112 97 loadbang;
#X msg 112 124 \; pd dsp 1;
#X obj 291 87 adc~;
#X obj 297 224 dac~;
#N canvas 40 398 725 368 wooork 1;
#X obj 148 94 rfft~;
#X obj 148 121 *~;
#X obj 175 121 *~;
#X obj 148 150 q8_sqrt~;
#X obj 177 195 q8_sqrt~;
#X obj 134 29 inlet~;
#X obj 122 224 outlet~;
#X obj 331 86 rfft~;
#X obj 331 113 *~;
#X obj 358 113 *~;
#X obj 330 153 +~;
#X obj 331 184 sqrt~;
#X obj 538 214 block~ 512;
#X msg 560 125 set 64;
#X msg 520 90 set 512 2 1;
#X connect 0 0 1 0;
#X connect 0 0 1 1;
#X connect 0 1 2 0;
#X connect 0 1 2 1;
#X connect 1 0 3 0;
#X connect 2 0 3 0;
#X connect 3 0 6 0;
#X connect 5 0 0 0;
#X connect 7 0 8 0;
#X connect 7 0 8 1;
#X connect 7 1 9 0;
#X connect 7 1 9 1;
#X connect 8 0 10 0;
#X connect 9 0 10 1;
#X connect 10 0 11 0;
#X connect 13 0 12 0;
#X connect 14 0 12 0;
#X restore 304 153 pd wooork;
#X connect 0 0 1 0;
#X connect 2 0 4 0;
#X connect 2 1 4 0;
#X connect 4 0 3 0;
#X connect 4 0 3 1;
