#N canvas 483 146 855 714 10;
#X obj 257 247 *~ 3;
#X obj 257 181 inlet~;
#X obj 207 982 block~ 512;
#X obj 110 321 rfft~;
#X obj 110 348 *~;
#X obj 137 348 *~;
#X obj 110 377 q8_sqrt~;
#X obj 207 911 bng 15 250 50 0 empty empty empty 17 7 0 10 -262144
-1 -1;
#X obj 207 887 loadbang;
#X floatatom 282 224 5 0 0 0 - - -, f 5;
#X obj 398 657 tgl 15 0 empty empty empty 17 7 0 10 -262144 -1 -1 0
1;
#X obj 398 679 gemhead -1 a;
#X msg 333 926 set 256;
#X obj 403 319 *~;
#X msg 458 965 set 512;
#X floatatom 416 751 5 0 0 0 - - -, f 5;
#X obj 398 771 f 1;
#X obj 398 704 b;
#X msg 381 799 start \$1;
#X obj 583 626 inlet;
#X msg 207 936 set 512;
#X obj 356 826 tabwrite~ POSYY;
#X msg 147 775 0;
#X obj 114 805 tabwrite POSYY;
#X obj 147 752 loadbang;
#X obj 403 498 *~;
#X obj 110 599 *~;
#X obj 240 647 *~;
#X obj 241 420 *~;
#X obj 241 716 +~;
#X obj 432 351 vsl 15 128 0 100 0 0 empty empty empty 0 -9 0 10 -262144
-1 -1 12100 1;
#X obj 274 489 vsl 15 128 0 1 0 0 empty empty empty 0 -9 0 10 -262144
-1 -1 0 1;
#X obj 150 441 vsl 15 128 0 1 0 0 empty empty empty 0 -9 0 10 -262144
-1 -1 0 1;
#X obj 257 464 r oscillo_amp_2;
#X obj 434 481 r oscillo_amp_3;
#X obj 64 478 r oscillo_amp_1;
#X connect 0 0 3 0;
#X connect 0 0 13 1;
#X connect 0 0 13 0;
#X connect 0 0 28 1;
#X connect 1 0 0 0;
#X connect 3 0 4 0;
#X connect 3 0 4 1;
#X connect 3 1 5 0;
#X connect 3 1 5 1;
#X connect 4 0 6 0;
#X connect 5 0 6 0;
#X connect 6 0 26 0;
#X connect 6 0 28 0;
#X connect 7 0 20 0;
#X connect 8 0 7 0;
#X connect 9 0 0 1;
#X connect 10 0 11 0;
#X connect 11 0 17 0;
#X connect 12 0 2 0;
#X connect 13 0 25 0;
#X connect 14 0 2 0;
#X connect 15 0 16 1;
#X connect 16 0 18 0;
#X connect 17 0 16 0;
#X connect 18 0 21 0;
#X connect 19 0 15 0;
#X connect 20 0 2 0;
#X connect 22 0 23 0;
#X connect 22 0 23 1;
#X connect 24 0 22 0;
#X connect 25 0 29 0;
#X connect 26 0 29 0;
#X connect 27 0 29 0;
#X connect 28 0 27 0;
#X connect 29 0 21 0;
#X connect 30 0 25 1;
#X connect 31 0 27 1;
#X connect 32 0 26 1;
#X connect 33 0 27 1;
#X connect 34 0 25 1;
#X connect 35 0 26 1;
