#N canvas 596 203 826 498 10;
#X obj 297 173 pd~, f 21;
#X floatatom 377 117 5 0 0 0 - - -, f 5;
#X msg 365 47 pd~ start audio.pd;
#X obj 367 221 env~;
#X floatatom 366 255 5 0 0 0 - - -, f 5;
#X obj 367 139 osc~;
#X msg 328 13 pd~ stop;
#X msg 386 90 0.02;
#X connect 0 1 3 0;
#X connect 1 0 5 0;
#X connect 2 0 0 0;
#X connect 3 0 4 0;
#X connect 5 0 0 0;
#X connect 6 0 0 0;
#X connect 7 0 1 0;
