#N canvas 301 129 1023 591 10;
#X declare -lib zexy;
#X obj 26 2 gemwin;
#X msg 53 -70 create;
#X msg 53 -38 destroy;
#X obj 26 -70 tgl 15 0 empty empty empty 17 7 0 10 -262144 -1 -1 0
1;
#X obj 67 202 f;
#X msg 94 182 0;
#X obj 107 202 + 1;
#X obj 93 162 f;
#X obj 133 162 + 1;
#X obj 26 414 translateXYZ;
#X obj 52 322 -;
#X obj 132 322 -;
#X obj 212 322 -;
#X obj 155 232 t f f f;
#X obj 212 302 mod 2;
#X obj 132 262 div 2;
#X obj 132 302 mod 3;
#X obj 52 262 div 2;
#X obj 52 282 div 3;
#X obj 52 302 mod 4;
#X obj 96 302 - 1;
#X obj 96 322 / 2;
#X obj 176 302 - 1;
#X obj 256 302 - 1;
#X obj 256 322 / 2;
#X obj 212 211 unpack f f f;
#X obj 166 152 unpack f f f;
#X obj 166 182 *;
#X obj 205 182 *;
#X obj 206 91 t b f;
#X obj 246 92 t b f;
#X floatatom 166 49 5 1 10 0 - - -;
#X floatatom 206 49 5 1 10 0 - - -;
#X floatatom 246 49 5 1 10 0 - - -;
#X obj 52 342 /;
#X obj 132 342 /;
#X obj 212 342 /;
#X text 222 9 requires [repeat] from Zexy;
#X obj 26 230 gemhead;
#X obj 26 201 t b b;
#X obj 26 172 until;
#X obj 26 153 f 24;
#X obj 26 122 t b b b;
#X msg 42 587 draw line;
#X msg 361 -15 fogcolor \$1 \$2 \$3;
#X msg 42 587 draw line;
#X msg 42 604 draw default;
#X obj 532 -30 tgl 15 0 empty empty empty 0 -6 0 10 -262144 -1 -1 0
1;
#X msg 532 -15 lighting \$1;
#X msg 284 -15 fogmode \$1;
#X obj 284 -30 hradio 15 1 0 4 empty empty empty 0 -6 0 10 -262144
-1 -1 0;
#X obj 159 -32 pack f f f;
#X obj 171 -49 b;
#X obj 161 -80 hsl 100 10 0 1 0 0 empty empty empty -2 -6 0 10 -258113
-1 -1 0 1;
#X obj 161 -70 hsl 100 10 0 1 0 0 empty empty empty -2 -6 0 10 -4034
-1 -1 0 1;
#X obj 161 -59 hsl 100 10 0 1 0 0 empty empty empty -2 -6 0 10 -4160
-1 -1 0 1;
#X obj 368 -32 pack f f f;
#X obj 383 -49 b;
#X obj 371 -79 hsl 100 10 0 1 0 0 empty empty empty -2 -6 0 10 -258113
-1 -1 9900 1;
#X obj 371 -69 hsl 100 10 0 1 0 0 empty empty empty -2 -6 0 10 -4034
-1 -1 0 1;
#X obj 371 -59 hsl 100 10 0 1 0 0 empty empty empty -2 -6 0 10 -4160
-1 -1 0 1;
#X msg 159 -15 color \$1 \$2 \$3;
#X msg 479 -15 fog \$1;
#X obj 502 -118 vsl 10 100 0 1 0 0 empty empty empty 0 -8 0 10 -262144
-1 -1 3800 1;
#X obj 616 -32 pack f f f;
#X obj 631 -49 b;
#X obj 619 -79 hsl 100 10 0 1 0 0 empty empty empty -2 -6 0 10 -258113
-1 -1 0 1;
#X obj 619 -69 hsl 100 10 0 1 0 0 empty empty empty -2 -6 0 10 -4034
-1 -1 0 1;
#X obj 619 -59 hsl 100 10 0 1 0 0 empty empty empty -2 -6 0 10 -4160
-1 -1 0 1;
#X msg 616 -15 ambient \$1 \$2 \$3;
#X obj 24 -123 gemhead;
#X obj 24 -106 world_light;
#X obj 736 -32 pack f f f;
#X obj 736 -49 b;
#X obj 739 -79 hsl 100 10 0 1 0 0 empty empty empty -2 -6 0 10 -258113
-1 -1 0 1;
#X obj 739 -69 hsl 100 10 0 1 0 0 empty empty empty -2 -6 0 10 -4034
-1 -1 0 1;
#X obj 739 -59 hsl 100 10 0 1 0 0 empty empty empty -2 -6 0 10 -4160
-1 -1 0 1;
#X msg 736 -15 specular \$1 \$2 \$3;
#X msg 871 -15 shininess \$1;
#X obj 906 -118 vsl 10 100 0 100 0 0 empty empty empty 0 -8 0 10 -262144
-1 -1 0 1;
#X obj 166 124 pack 3 3 3;
#X obj 26 476 scaleXYZ 1 1 1;
#X obj 176 322 / 2;
#X obj 27 88 scaleXYZ;
#X floatatom 81 50 5 0 0 0 - - -;
#N canvas 0 105 1240 691 calculBandesFreqCubes 0;
#X obj 922 138 bonk~;
#X obj 921 108 adc~;
#X obj 980 121 metro 30;
#X obj 980 101 tgl 15 0 empty empty empty 17 7 0 10 -262144 -1 -1 1
1;
#X obj 516 408 f;
#X obj 486 408 f;
#X obj 456 408 f;
#X obj 426 408 f;
#X obj 636 408 f;
#X obj 606 408 f;
#X obj 576 408 f;
#X obj 546 408 f;
#X obj 623 527 f;
#X obj 426 376 b;
#X obj 456 376 b;
#X obj 486 376 b;
#X obj 516 376 b;
#X obj 546 376 b;
#X obj 576 376 b;
#X obj 606 376 b;
#X obj 636 376 b;
#X obj 247 84 inlet;
#X obj 623 563 outlet;
#X obj 764 48 loadbang;
#X obj 726 408 f;
#X obj 696 408 f;
#X obj 666 408 f;
#X obj 666 376 b;
#X obj 696 376 b;
#X obj 726 376 b;
#X obj 287 182 route 1 2 3 4 5 6 7 8 9 10 11;
#X obj 247 142 f;
#X obj 325 142 + 1;
#X obj 247 194 sel 1;
#X msg 169 154 -1;
#X obj 167 98 b;
#X obj 247 169 > 10;
#X obj 684 281 line;
#X obj 734 281 line;
#X obj 784 281 line;
#X obj 834 281 line;
#X obj 884 281 line;
#X msg 884 260 \$1 40;
#X obj 934 281 line;
#X msg 934 260 \$1 40;
#X obj 984 281 line;
#X msg 984 260 \$1 40;
#X obj 1034 281 line;
#X msg 1034 260 \$1 40;
#X obj 1084 281 line;
#X msg 1084 260 \$1 40;
#X obj 1134 281 line;
#X msg 1134 260 \$1 40;
#X msg 834 260 \$1 40;
#X msg 784 260 \$1 40;
#X msg 734 260 \$1 40;
#X msg 684 260 \$1 40;
#X obj 922 159 unpack f f f f f f f f f f f f;
#X obj 1184 281 line;
#X msg 1184 260 \$1 40;
#X connect 0 0 57 0;
#X connect 1 0 0 0;
#X connect 2 0 0 0;
#X connect 3 0 2 0;
#X connect 4 0 12 0;
#X connect 5 0 12 0;
#X connect 6 0 12 0;
#X connect 7 0 12 0;
#X connect 8 0 12 0;
#X connect 9 0 12 0;
#X connect 10 0 12 0;
#X connect 11 0 12 0;
#X connect 12 0 22 0;
#X connect 13 0 7 0;
#X connect 14 0 6 0;
#X connect 15 0 5 0;
#X connect 16 0 4 0;
#X connect 17 0 11 0;
#X connect 18 0 10 0;
#X connect 19 0 9 0;
#X connect 20 0 8 0;
#X connect 21 0 35 0;
#X connect 21 0 31 0;
#X connect 23 0 3 0;
#X connect 24 0 12 0;
#X connect 25 0 12 0;
#X connect 26 0 12 0;
#X connect 27 0 26 0;
#X connect 28 0 25 0;
#X connect 29 0 24 0;
#X connect 30 0 13 0;
#X connect 30 1 14 0;
#X connect 30 2 15 0;
#X connect 30 3 16 0;
#X connect 30 4 17 0;
#X connect 30 5 18 0;
#X connect 30 6 19 0;
#X connect 30 7 20 0;
#X connect 30 8 27 0;
#X connect 30 9 28 0;
#X connect 30 10 29 0;
#X connect 31 0 32 0;
#X connect 31 0 36 0;
#X connect 32 0 31 1;
#X connect 32 0 30 0;
#X connect 33 0 34 0;
#X connect 34 0 31 0;
#X connect 36 0 33 0;
#X connect 37 0 7 1;
#X connect 38 0 6 1;
#X connect 39 0 5 1;
#X connect 40 0 4 1;
#X connect 41 0 11 1;
#X connect 42 0 41 0;
#X connect 43 0 10 1;
#X connect 44 0 43 0;
#X connect 45 0 9 1;
#X connect 46 0 45 0;
#X connect 47 0 8 1;
#X connect 48 0 47 0;
#X connect 49 0 26 1;
#X connect 50 0 49 0;
#X connect 51 0 25 1;
#X connect 52 0 51 0;
#X connect 53 0 40 0;
#X connect 54 0 39 0;
#X connect 55 0 38 0;
#X connect 56 0 37 0;
#X connect 57 0 56 0;
#X connect 57 1 55 0;
#X connect 57 2 54 0;
#X connect 57 3 53 0;
#X connect 57 4 42 0;
#X connect 57 5 44 0;
#X connect 57 6 46 0;
#X connect 57 7 48 0;
#X connect 57 8 50 0;
#X connect 57 9 52 0;
#X connect 57 10 59 0;
#X connect 58 0 24 1;
#X connect 59 0 58 0;
#X restore 194 431 pd calculBandesFreqCubes;
#X obj 25 56 alpha;
#X obj 194 462 / 10;
#X obj 229 506 b;
#X obj 209 556 -;
#X obj 274 529 vsl 15 128 0 1 0 0 empty empty empty 0 -9 0 10 -262144
-1 -1 12700 1;
#X obj 26 627 cube 0.05;
#X msg 174 519 1;
#X obj 25 502 couleur;
#X obj 686 86 analyse_son;
#X obj 273 491 loadbang;
#X obj 426 15 loadbang;
#X obj 309 339 rotateXYZ;
#X floatatom 343 311 5 0 0 0 - - -;
#X obj 343 232 tgl 15 0 empty empty empty 17 7 0 10 -262144 -1 -1 1
1;
#X obj 343 281 compteur 0 360;
#X obj 343 254 metro 40;
#X msg 378 32 3;
#X obj 110 435 / 10;
#X obj 499 182 gemhead;
#X obj 499 318 scaleXYZ;
#X obj 529 296 line;
#X obj 132 465 / 1;
#X obj 499 155 tgl 15 0 empty empty empty 17 7 0 10 -262144 -1 -1 0
1;
#X obj 25 31 gemhead 90;
#X msg 698 426 draw line;
#X msg 615 426 draw point;
#X obj 499 350 sphere 1 20;
#X obj 499 271 rotateXYZ;
#X obj 499 374 rotateXYZ 0 30 0;
#X obj 553 517 rotateXYZ 0 30 0;
#X obj 615 409 loadbang;
#X floatatom 390 210 5 0 0 0 - - -;
#X obj 386 390 line;
#X msg 401 359 \$1 30;
#X msg 646 343 \$1 \, 0 200;
#X obj 210 583 * 250;
#X obj 553 544 sphere 1.2 5;
#X obj 499 406 sphere 1.1 5;
#X obj 703 255 bpmgen;
#X obj 703 225 taptempo;
#X obj 703 284 QuartTemps;
#X msg 733 350 1;
#X obj 402 539 * 3;
#X obj 499 210 alpha;
#X obj 499 243 colorRGB 1 1 1 0.2;
#X floatatom 604 223 5 0 0 0 - - -;
#X obj 127 19 tgl 15 0 empty empty empty 17 7 0 10 -262144 -1 -1 0
1;
#X connect 1 0 0 0;
#X connect 2 0 0 0;
#X connect 3 0 0 0;
#X connect 4 0 6 0;
#X connect 4 0 13 0;
#X connect 4 0 85 0;
#X connect 5 0 4 1;
#X connect 6 0 4 1;
#X connect 7 0 8 0;
#X connect 8 0 7 1;
#X connect 9 0 81 0;
#X connect 10 0 34 0;
#X connect 11 0 35 0;
#X connect 12 0 36 0;
#X connect 13 0 17 0;
#X connect 13 1 15 0;
#X connect 13 2 14 0;
#X connect 14 0 12 0;
#X connect 15 0 16 0;
#X connect 16 0 11 0;
#X connect 17 0 18 0;
#X connect 18 0 19 0;
#X connect 19 0 10 0;
#X connect 20 0 21 0;
#X connect 21 0 10 1;
#X connect 22 0 82 0;
#X connect 23 0 24 0;
#X connect 24 0 12 1;
#X connect 25 0 20 0;
#X connect 25 0 19 1;
#X connect 25 0 34 1;
#X connect 25 1 22 0;
#X connect 25 1 16 1;
#X connect 25 1 35 1;
#X connect 25 1 18 1;
#X connect 25 2 23 0;
#X connect 25 2 14 1;
#X connect 25 2 15 1;
#X connect 25 2 17 1;
#X connect 25 2 36 1;
#X connect 26 0 27 0;
#X connect 26 1 28 0;
#X connect 26 2 28 1;
#X connect 27 0 41 1;
#X connect 28 0 27 1;
#X connect 29 0 80 0;
#X connect 29 1 80 1;
#X connect 30 0 80 0;
#X connect 30 1 80 2;
#X connect 31 0 80 0;
#X connect 32 0 29 0;
#X connect 33 0 30 0;
#X connect 34 0 9 1;
#X connect 35 0 9 2;
#X connect 36 0 9 3;
#X connect 38 0 97 0;
#X connect 39 0 38 0;
#X connect 39 1 4 0;
#X connect 40 0 39 0;
#X connect 41 0 40 0;
#X connect 42 0 41 0;
#X connect 42 1 7 0;
#X connect 42 2 5 0;
#X connect 43 0 91 0;
#X connect 44 0 0 0;
#X connect 46 0 91 0;
#X connect 47 0 48 0;
#X connect 48 0 0 0;
#X connect 49 0 0 0;
#X connect 50 0 49 0;
#X connect 51 0 61 0;
#X connect 52 0 51 0;
#X connect 53 0 51 0;
#X connect 54 0 51 1;
#X connect 54 0 52 0;
#X connect 55 0 51 2;
#X connect 55 0 52 0;
#X connect 56 0 44 0;
#X connect 57 0 56 0;
#X connect 58 0 56 0;
#X connect 59 0 56 1;
#X connect 59 0 57 0;
#X connect 60 0 56 2;
#X connect 60 0 57 0;
#X connect 61 0 0 0;
#X connect 62 0 0 0;
#X connect 63 0 62 0;
#X connect 64 0 69 0;
#X connect 65 0 64 0;
#X connect 66 0 64 0;
#X connect 67 0 64 1;
#X connect 67 0 65 0;
#X connect 68 0 64 2;
#X connect 68 0 65 0;
#X connect 69 0 0 0;
#X connect 70 0 71 0;
#X connect 72 0 77 0;
#X connect 73 0 72 0;
#X connect 74 0 72 0;
#X connect 75 0 72 1;
#X connect 75 0 73 0;
#X connect 76 0 72 2;
#X connect 76 0 73 0;
#X connect 77 0 0 0;
#X connect 78 0 0 0;
#X connect 79 0 78 0;
#X connect 80 0 25 0;
#X connect 80 0 26 0;
#X connect 81 0 93 0;
#X connect 82 0 11 1;
#X connect 83 0 42 0;
#X connect 84 0 83 1;
#X connect 84 0 83 2;
#X connect 84 0 83 3;
#X connect 85 0 87 0;
#X connect 85 0 103 0;
#X connect 86 0 83 0;
#X connect 87 0 88 0;
#X connect 87 0 89 1;
#X connect 88 0 89 0;
#X connect 89 0 121 0;
#X connect 92 0 89 0;
#X connect 93 0 91 0;
#X connect 94 0 128 0;
#X connect 95 0 92 0;
#X connect 96 0 102 0;
#X connect 97 0 9 0;
#X connect 98 0 113 2;
#X connect 98 0 119 0;
#X connect 99 0 101 0;
#X connect 100 0 98 0;
#X connect 101 0 100 0;
#X connect 102 0 33 0;
#X connect 102 0 32 0;
#X connect 102 0 31 0;
#X connect 103 0 81 3;
#X connect 103 0 81 1;
#X connect 103 0 107 0;
#X connect 104 0 129 0;
#X connect 105 0 112 0;
#X connect 106 0 105 1;
#X connect 106 0 105 2;
#X connect 106 0 105 3;
#X connect 107 0 81 2;
#X connect 108 0 104 0;
#X connect 109 0 86 0;
#X connect 110 0 112 0;
#X connect 110 0 122 0;
#X connect 110 0 123 0;
#X connect 111 0 112 0;
#X connect 111 0 122 0;
#X connect 111 0 123 0;
#X connect 112 0 114 0;
#X connect 113 0 105 0;
#X connect 114 0 123 0;
#X connect 115 0 122 0;
#X connect 116 0 111 0;
#X connect 117 0 101 1;
#X connect 118 0 97 2;
#X connect 119 0 118 0;
#X connect 120 0 106 0;
#X connect 121 0 90 0;
#X connect 124 0 126 0;
#X connect 125 0 124 0;
#X connect 126 0 127 0;
#X connect 127 0 120 0;
#X connect 128 0 93 4;
#X connect 129 0 130 0;
#X connect 130 0 113 0;
#X connect 131 0 130 4;
#X connect 132 0 109 0;
