#N canvas 410 299 450 300 10;
#X obj 172 237 disque;
#X obj 85 -41 gemhead;
#X floatatom 205 208 5 0 0 0 - - -;
#X obj 172 145 alpha;
#X obj 172 115 translateXYZ;
#X obj 195 -70 tgl 15 0 empty empty empty 17 7 0 10 -262144 -1 -1 1
1;
#X obj 195 -44 metro 2000;
#X obj 315 146 line;
#X msg 315 115 1 \, 0 2000;
#X floatatom 315 177 5 0 0 0 - - -;
#X obj 195 -8 randomline 6 2000;
#X obj 218 52 randomline 6 2000;
#X obj 195 26 - 3;
#X obj 218 86 - 3;
#X obj 85 52 scaleXYZ;
#X obj 115 18 line;
#X msg 115 -13 0 \, 1 2000;
#X connect 1 0 14 0;
#X connect 2 0 0 1;
#X connect 3 0 0 0;
#X connect 4 0 3 0;
#X connect 5 0 6 0;
#X connect 6 0 8 0;
#X connect 6 0 10 0;
#X connect 6 0 11 0;
#X connect 6 0 16 0;
#X connect 7 0 9 0;
#X connect 8 0 7 0;
#X connect 9 0 0 2;
#X connect 10 0 12 0;
#X connect 11 0 13 0;
#X connect 12 0 4 1;
#X connect 13 0 4 2;
#X connect 14 0 4 0;
#X connect 15 0 14 1;
#X connect 15 0 14 2;
#X connect 15 0 14 3;
#X connect 16 0 15 0;
