#N canvas 429 285 989 797 10;
#X obj 222 -74 gemhead;
#X obj 495 578 cube 1;
#X obj 222 238 rotateXYZ 0 36 0;
#X obj 222 35 rotateXYZ;
#X obj 27 624 openpanel;
#X obj 27 603 bng 15 250 50 0 empty empty empty 17 7 0 10 -262144 -1
-1;
#X msg 27 648 set \$1;
#X obj 222 -37 alpha;
#X obj 222 438 pix_texture;
#X obj 222 408 masque;
#X obj 222 281 translateXYZ 2 0 0;
#X obj 222 358 playervideo;
#X obj 465 2 taptempo;
#X obj 465 53 QuartTemps;
#X obj 465 30 bpmgen;
#X msg 222 315 open /LIVE/MEDIAS/bonhommeDeNeigeAscii/bonhomme_de_neige_ascii.avi.mov
;
#X obj 542 578 cube 1;
#X obj 222 471 separator;
#X obj 366 -44 tgl 15 0 empty empty empty 17 7 0 10 -262144 -1 -1 0
1;
#X obj 366 -6 compteur 0 3600;
#X obj 366 18 / 10;
#X floatatom 612 545 5 0 0 0 - - -;
#X obj 366 -26 metro 5;
#X obj -176 116 line;
#X obj -40 109 line;
#X msg -40 83 2 1000;
#X msg -126 90 0 1000;
#X msg 10 83 0 1000;
#X obj -85 13 line;
#X msg -35 -13 0 1000;
#X msg -176 90 3 1000;
#X obj -309 -28 bng 15 250 50 0 empty empty cylindre 17 7 0 10 -262144
-1 -1;
#X obj -153 -28 bng 15 250 50 0 empty empty reset 17 7 0 10 -262144
-1 -1;
#X obj -218 -28 bng 15 250 50 0 empty empty barre 17 7 0 10 -262144
-1 -1;
#X obj 291 207 r GlissadeRotateY;
#X obj -85 39 s GlissadeRotateY;
#X obj 257 260 r GlissadeTranslateX;
#X obj -40 138 s GlissadeTranslateX;
#X obj 612 527 r GlissadeTranslateY;
#X obj -176 138 s GlissadeTranslateY;
#X obj 362 578 cube 1;
#X obj 362 561 translateXYZ 0 0 3;
#X obj 542 561 translateXYZ 0 3 0;
#X obj 222 500 t a a a a;
#X msg -85 -13 60 1000;
#X obj 222 578 translateXYZ 0 -3 0;
#X obj 296 561 * -1;
#X obj 222 200 repeat 2;
#X obj -309 139 s GlissadeIterations;
#X obj -309 115 line;
#X obj 267 176 r GlissadeIterations;
#X msg -309 91 6 1000;
#X msg -249 91 2 1000;
#X obj 495 618 scaleXYZ;
#X obj 612 631 * 2;
#X obj 222 143 translateXYZ;
#X obj 396 53 b;
#X obj 421 110 randomline 360 2000;
#X obj 429 210 taptempo;
#X obj 429 249 QuartTemps;
#X obj 429 232 bpmgen;
#X obj 245 70 randomline 20 4000;
#X obj 292 110 randomline 20 4000;
#X obj 268 117 - 10;
#X obj 268 90 randomline 20 4000;
#X msg 13 673 open \$1;
#X obj -148 333 videogrid videogrid1 6 5 #F0F0F0 #0F0F0F /LIVE/MEDIAS/bonhommeDeNeigeAscii//bonhomme_de_neige_ascii.avi.mov|/LIVE/MEDIAS/bonhommeDeNeigeAscii//bonhomme_de_neige_ascii_2.avi.mov|/LIVE/MEDIAS/bonhommeDeNeigeAscii//bonhomme_de_neige_ascii_3.avi.mov|/LIVE/MEDIAS/bonhommeDeNeigeAscii//bonhomme_de_neige_ascii_4.avi.mov|
;
#X msg -147 253 putvideodir /LIVE/MEDIAS/AnalogRecycling/;
#X obj 315 -144 vsl 15 128 0 1 0 0 empty empty empty 0 -9 0 10 -262144
-1 -1 12400 1;
#X obj 222 -99 tgl 15 0 empty empty empty 17 7 0 10 -262144 -1 -1 1
1;
#X msg 115 663 /LIVE/MEDIAS/bonhommeDeNeigeAscii/bonhomme_de_neige_ascii_2.avi.mov
;
#X msg -153 299 putvideodir /LIVE/MEDIAS/bonhommeDeNeigeAscii/;
#X obj 511 93 bng 15 250 50 0 empty empty empty 17 7 0 10 -262144 -1
-1;
#X floatatom -166 207 5 0 0 0 - - -;
#X obj 222 -7 colorRGB 1 1 1 0;
#X msg 119 18 0;
#X floatatom 116 54 5 0 0 0 - - -;
#X obj 120 -63 scaleXYZ;
#X floatatom 155 -95 5 0 0 0 - - -;
#X msg 157 92 0;
#X obj 222 605 rectangle;
#X obj 495 647 rectangle;
#X msg 159 189 0;
#X connect 0 0 77 0;
#X connect 1 0 53 0;
#X connect 2 0 10 0;
#X connect 3 0 55 0;
#X connect 4 0 6 0;
#X connect 4 0 65 0;
#X connect 5 0 4 0;
#X connect 6 0 70 0;
#X connect 7 0 74 0;
#X connect 8 0 17 0;
#X connect 9 0 8 0;
#X connect 10 0 11 0;
#X connect 11 0 9 0;
#X connect 12 0 14 0;
#X connect 13 0 56 0;
#X connect 13 0 72 0;
#X connect 14 0 13 0;
#X connect 15 0 11 0;
#X connect 17 0 43 0;
#X connect 18 0 22 0;
#X connect 19 0 20 0;
#X connect 21 0 42 2;
#X connect 21 0 41 3;
#X connect 21 0 46 0;
#X connect 21 0 54 0;
#X connect 22 0 19 0;
#X connect 23 0 39 0;
#X connect 24 0 37 0;
#X connect 25 0 24 0;
#X connect 26 0 23 0;
#X connect 27 0 24 0;
#X connect 28 0 35 0;
#X connect 29 0 28 0;
#X connect 30 0 23 0;
#X connect 31 0 44 0;
#X connect 31 0 25 0;
#X connect 31 0 30 0;
#X connect 31 0 51 0;
#X connect 32 0 29 0;
#X connect 32 0 27 0;
#X connect 32 0 26 0;
#X connect 32 0 52 0;
#X connect 33 0 29 0;
#X connect 33 0 25 0;
#X connect 33 0 30 0;
#X connect 33 0 52 0;
#X connect 34 0 2 2;
#X connect 36 0 10 1;
#X connect 38 0 21 0;
#X connect 41 0 40 0;
#X connect 42 0 16 0;
#X connect 43 0 45 0;
#X connect 43 1 41 0;
#X connect 43 2 42 0;
#X connect 43 3 1 0;
#X connect 44 0 28 0;
#X connect 45 0 80 0;
#X connect 46 0 45 2;
#X connect 47 0 2 0;
#X connect 49 0 48 0;
#X connect 50 0 47 1;
#X connect 51 0 49 0;
#X connect 52 0 49 0;
#X connect 53 0 81 0;
#X connect 54 0 53 3;
#X connect 54 0 53 2;
#X connect 54 0 53 1;
#X connect 55 0 47 0;
#X connect 56 0 57 0;
#X connect 56 0 61 0;
#X connect 56 0 62 0;
#X connect 56 0 64 0;
#X connect 58 0 60 0;
#X connect 59 0 11 2;
#X connect 60 0 59 0;
#X connect 61 0 55 1;
#X connect 62 0 55 3;
#X connect 63 0 55 2;
#X connect 64 0 63 0;
#X connect 65 0 11 0;
#X connect 66 0 65 0;
#X connect 67 0 66 0;
#X connect 68 0 74 4;
#X connect 69 0 0 0;
#X connect 71 0 66 0;
#X connect 73 0 48 0;
#X connect 74 0 3 0;
#X connect 75 0 3 1;
#X connect 75 0 3 2;
#X connect 75 0 3 3;
#X connect 76 0 3 2;
#X connect 77 0 7 0;
#X connect 78 0 77 1;
#X connect 78 0 77 2;
#X connect 78 0 77 3;
#X connect 79 0 55 1;
#X connect 79 0 55 2;
#X connect 79 0 55 3;
#X connect 82 0 2 1;
#X connect 82 0 2 3;
