#N canvas 260 102 1000 417 10;
#X floatatom 191 -11 10 0 0 0 - - -;
#X floatatom 191 -66 5 0 0 0 - - -;
#X floatatom 228 -66 5 0 0 0 - - -;
#X floatatom 266 -66 5 0 0 0 - - -;
#X floatatom 266 -12 5 0 0 0 - - -;
#X obj 191 -41 mvtcirculaire;
#X obj 125 55 translateXYZ;
#X obj 191 -145 tgl 15 0 empty empty empty 17 7 0 10 -262144 -1 -1
1 1;
#X obj 191 -102 compteur 0 360;
#X obj 125 130 scaleXYZ;
#X obj 125 20 alpha;
#X floatatom 212 114 5 0 0 0 - - -;
#X obj 125 211 sphere 1 50;
#X obj 125 174 colorRGB 1 1 1 0;
#X obj 191 -123 metro 30;
#X obj 335 29 line;
#X obj 320 132 -;
#X msg 282 100 1;
#X obj 305 68 b;
#X msg 335 -2 0 \, 1.2 400;
#X obj 125 101 sphere 0.3 50;
#X floatatom 491 -11 10 0 0 0 - - -;
#X floatatom 491 -66 5 0 0 0 - - -;
#X floatatom 528 -66 5 0 0 0 - - -;
#X floatatom 566 -66 5 0 0 0 - - -;
#X floatatom 566 -12 5 0 0 0 - - -;
#X obj 491 -41 mvtcirculaire;
#X obj 425 55 translateXYZ;
#X obj 491 -145 tgl 15 0 empty empty empty 17 7 0 10 -262144 -1 -1
1 1;
#X obj 491 -102 compteur 0 360;
#X obj 425 130 scaleXYZ;
#X obj 425 20 alpha;
#X floatatom 512 114 5 0 0 0 - - -;
#X obj 425 211 sphere 1 50;
#X obj 425 174 colorRGB 1 1 1 0;
#X obj 512 97 * 50;
#X obj 635 29 line;
#X obj 620 132 -;
#X msg 582 100 1;
#X obj 605 68 b;
#X msg 635 -2 0 \, 1.2 400;
#X obj 425 101 sphere 0.3 50;
#X obj 765 -65 bpmgen;
#X obj 749 -121 taptempo;
#X obj 366 -86 alternate;
#X obj 125 -7 gemhead 100;
#X obj 425 -7 gemhead 100;
#X obj 212 97 * 70;
#X obj 491 -123 metro 20;
#X connect 0 0 6 1;
#X connect 1 0 5 0;
#X connect 2 0 5 1;
#X connect 3 0 5 2;
#X connect 4 0 6 3;
#X connect 5 0 0 0;
#X connect 5 1 4 0;
#X connect 6 0 20 0;
#X connect 7 0 14 0;
#X connect 8 0 1 0;
#X connect 9 0 13 0;
#X connect 10 0 6 0;
#X connect 11 0 9 3;
#X connect 11 0 9 2;
#X connect 11 0 9 1;
#X connect 13 0 12 0;
#X connect 14 0 8 0;
#X connect 15 0 18 0;
#X connect 15 0 16 1;
#X connect 15 0 47 0;
#X connect 16 0 13 4;
#X connect 17 0 16 0;
#X connect 18 0 17 0;
#X connect 18 0 16 0;
#X connect 19 0 15 0;
#X connect 20 0 9 0;
#X connect 21 0 27 1;
#X connect 22 0 26 0;
#X connect 23 0 26 1;
#X connect 24 0 26 2;
#X connect 25 0 27 3;
#X connect 26 0 21 0;
#X connect 26 1 25 0;
#X connect 27 0 41 0;
#X connect 28 0 48 0;
#X connect 29 0 22 0;
#X connect 30 0 34 0;
#X connect 31 0 27 0;
#X connect 32 0 30 3;
#X connect 32 0 30 2;
#X connect 32 0 30 1;
#X connect 34 0 33 0;
#X connect 35 0 32 0;
#X connect 36 0 35 0;
#X connect 36 0 39 0;
#X connect 36 0 37 1;
#X connect 37 0 34 4;
#X connect 38 0 37 0;
#X connect 39 0 38 0;
#X connect 39 0 37 0;
#X connect 40 0 36 0;
#X connect 41 0 30 0;
#X connect 42 0 44 0;
#X connect 43 0 42 0;
#X connect 44 0 40 0;
#X connect 44 1 19 0;
#X connect 45 0 10 0;
#X connect 46 0 31 0;
#X connect 47 0 11 0;
#X connect 48 0 29 0;
