#N canvas 195 118 1197 616 10;
#X obj 404 245 r SCREEN;
#X obj 341 269 pix_texture;
#X obj 341 25 r desktop;
#X obj 341 210 t a a;
#X floatatom 380 129 5 0 0 0 - - -, f 5;
#X obj 404 450 r SCREEN;
#X obj 341 481 pix_texture;
#X obj 341 432 t a a;
#X obj 341 306 square 0.9;
#X obj 341 518 square 0.9;
#X obj 341 93 spigot;
#X obj 374 66 inlet;
#X obj 341 392 rotateXYZ 0 180 0;
#X floatatom 489 293 5 0 0 0 - - -, f 5;
#X obj 341 345 translateXYZ 5.8 0 0;
#X floatatom 135 181 5 0 0 0 - - -, f 5;
#X obj 134 158 / 100;
#X floatatom 134 134 5 0 0 0 - - -, f 5;
#X obj 541 261 / 100;
#X floatatom 549 239 5 0 0 0 - - -, f 5;
#X obj 834 212 s presetOSD1;
#X obj 928 212 s presetOSD2;
#X obj 1038 212 s presetOSD3;
#X obj 72 86 r presetOSD1;
#X obj 454 80 r presetOSD2;
#X obj 521 219 r presetOSD3;
#X obj 712 166 bng 15 250 50 0 empty empty empty 17 7 0 10 -262144
-1 -1;
#X obj 811 63 bng 15 250 50 0 empty empty empty 17 7 0 10 -262144 -1
-1;
#X obj 712 23 inlet;
#X obj 811 23 inlet;
#X obj 771 275 scaleXYZ;
#X floatatom 777 231 5 0 0 0 - - -, f 5;
#X obj 341 160 translateXYZ -3.1 0 -8;
#X msg 834 181 4.45;
#X msg 928 181 -4.37;
#X msg 1038 181 8.834;
#X msg 834 78 2.27;
#X msg 929 78 -5.65;
#X msg 1038 78 11.3;
#X connect 0 0 1 1;
#X connect 1 0 8 0;
#X connect 2 0 10 0;
#X connect 3 0 1 0;
#X connect 4 0 32 1;
#X connect 5 0 6 1;
#X connect 6 0 9 0;
#X connect 7 0 6 0;
#X connect 8 0 14 0;
#X connect 10 0 32 0;
#X connect 11 0 10 1;
#X connect 12 0 7 0;
#X connect 13 0 14 1;
#X connect 14 0 12 0;
#X connect 15 0 8 1;
#X connect 15 0 9 1;
#X connect 16 0 15 0;
#X connect 17 0 16 0;
#X connect 18 0 13 0;
#X connect 19 0 18 0;
#X connect 23 0 15 0;
#X connect 24 0 4 0;
#X connect 25 0 13 0;
#X connect 26 0 33 0;
#X connect 26 0 34 0;
#X connect 26 0 35 0;
#X connect 27 0 36 0;
#X connect 27 0 37 0;
#X connect 27 0 38 0;
#X connect 28 0 26 0;
#X connect 29 0 27 0;
#X connect 31 0 30 1;
#X connect 31 0 30 2;
#X connect 31 0 30 3;
#X connect 32 0 3 0;
#X connect 33 0 20 0;
#X connect 34 0 21 0;
#X connect 35 0 22 0;
#X connect 36 0 20 0;
#X connect 37 0 21 0;
#X connect 38 0 22 0;
#X coords 0 616 1 615 256 18 0;
