#N canvas 1 111 1585 788 10;
#X obj 244 367 text3d;
#X floatatom 320 353 5 0 0 0 - - -, f 5;
#X obj 244 -54 r TXT;
#X msg 888 273 set \$1;
#X msg 888 295 /home/rep/2015_VJSet/001.2d.OnScreenDisplay/ShareTechMono-Regular.ttf
;
#X obj 888 252 openpanel;
#X obj 888 234 bng 15 250 50 0 empty empty empty 17 7 0 10 -262144
-1 -1;
#X obj 244 53 GEMglLoadIdentity;
#X floatatom 381 103 5 0 0 0 - - -, f 5;
#X obj 244 146 colorRGB 0 1 0 1;
#X obj 885 115 ggee/shell;
#X msg 885 94 dmesg | tail -1;
#X msg 885 157 text kernel.perf_event_max_sample_rate to 25000;
#X msg 259 255 font ShareTechMono-Regular.ttf;
#X msg 885 136 set text \$1 \$2 \$3;
#X obj 598 186 tgl 15 0 empty empty empty 17 7 0 10 -262144 -1 -1 1
1;
#X obj 417 238 loadbang;
#X obj 549 308 textfile;
#X msg 549 154 rewind;
#X msg 598 224 bang;
#X obj 654 -1 loadbang;
#X obj 648 137 t b b;
#X msg 275 282 justify left base;
#X floatatom 289 103 5 0 0 0 - - -, f 5;
#X msg 287 325 text \$1 \$2 \$3 \$4 \$5;
#X obj 741 82 bng 15 250 50 0 empty empty empty 17 7 0 10 -262144 -1
-1;
#X floatatom 348 85 5 0 0 0 - - -, f 5;
#X floatatom 70 393 5 0 0 0 - - -, f 5;
#X obj 330 -35 inlet;
#X obj 244 24 spigot;
#X obj 385 627 text3d;
#X floatatom 461 613 5 0 0 0 - - -, f 5;
#X msg 400 515 font ShareTechMono-Regular.ttf;
#X obj 558 498 loadbang;
#X msg 416 542 justify left base;
#X msg 428 585 text \$1 \$2 \$3 \$4 \$5;
#X floatatom 211 653 5 0 0 0 - - -, f 5;
#X obj 549 445 textfile;
#X msg 680 428 read dmesg2.txt;
#X obj 465 401 loadbang;
#X obj 244 428 translateXYZ 0 -0.6 0;
#X obj 834 631 text3d;
#X floatatom 910 617 5 0 0 0 - - -, f 5;
#X msg 849 519 font ShareTechMono-Regular.ttf;
#X obj 1007 502 loadbang;
#X msg 865 546 justify left base;
#X obj 834 692 translateXYZ 0 -1 0;
#X floatatom 660 657 5 0 0 0 - - -, f 5;
#X obj 880 473 textfile;
#X obj 386 688 translateXYZ 0 -0.6 0;
#X msg 680 291 read dmesg3.txt;
#X msg 1011 456 read dmesg1.txt;
#X obj 244 123 translateXYZ -3.66 0.5 -2;
#X msg 446 433 6;
#X obj 598 204 metro 1000;
#X floatatom 707 216 5 0 0 0 - - -, f 5;
#X msg 781 169 1000;
#X obj 661 47 delay 5000;
#X msg 901 582 text \$1 \$2 \$3 \$4 \$5 \$6 \$7;
#X connect 0 0 40 0;
#X connect 1 0 0 1;
#X connect 2 0 29 0;
#X connect 3 0 4 0;
#X connect 5 0 3 0;
#X connect 6 0 5 0;
#X connect 7 0 52 0;
#X connect 8 0 52 3;
#X connect 9 0 0 0;
#X connect 10 0 14 0;
#X connect 11 0 10 0;
#X connect 13 0 0 0;
#X connect 14 0 12 0;
#X connect 15 0 54 0;
#X connect 16 0 13 0;
#X connect 16 0 22 0;
#X connect 17 0 24 0;
#X connect 17 1 18 0;
#X connect 18 0 17 0;
#X connect 18 0 37 0;
#X connect 18 0 48 0;
#X connect 19 0 17 0;
#X connect 19 0 37 0;
#X connect 19 0 48 0;
#X connect 20 0 57 0;
#X connect 21 0 18 0;
#X connect 21 0 15 0;
#X connect 21 1 50 0;
#X connect 21 1 38 0;
#X connect 21 1 51 0;
#X connect 22 0 0 0;
#X connect 23 0 52 1;
#X connect 24 0 0 0;
#X connect 25 0 21 0;
#X connect 26 0 52 2;
#X connect 27 0 1 0;
#X connect 28 0 29 1;
#X connect 28 0 15 0;
#X connect 29 0 7 0;
#X connect 30 0 49 0;
#X connect 31 0 30 1;
#X connect 32 0 30 0;
#X connect 33 0 32 0;
#X connect 33 0 34 0;
#X connect 34 0 30 0;
#X connect 35 0 30 0;
#X connect 36 0 31 0;
#X connect 37 0 35 0;
#X connect 38 0 37 0;
#X connect 39 0 53 0;
#X connect 40 0 30 0;
#X connect 41 0 46 0;
#X connect 42 0 41 1;
#X connect 43 0 41 0;
#X connect 44 0 43 0;
#X connect 44 0 45 0;
#X connect 45 0 41 0;
#X connect 47 0 42 0;
#X connect 48 0 58 0;
#X connect 49 0 41 0;
#X connect 50 0 17 0;
#X connect 51 0 48 0;
#X connect 52 0 9 0;
#X connect 53 0 1 0;
#X connect 53 0 31 0;
#X connect 53 0 42 0;
#X connect 54 0 19 0;
#X connect 55 0 54 1;
#X connect 56 0 55 0;
#X connect 57 0 21 0;
#X connect 58 0 41 0;
#X coords 0 788 1 787 256 18 0;
