#N canvas 829 285 586 614 10;
#X obj 99 35 r rayurejaune;
#X obj 99 218 rotateXYZ 0 0 67;
#X obj 99 166 translateXYZ 0 0 -4;
#X obj 99 333 rectangle 100 1;
#X obj 99 197 colorRGB 1 1 1 1;
#X obj 99 117 spigot;
#X obj 227 37 inlet;
#X obj 99 422 rectangle 100 1;
#X obj 99 511 rectangle 100 1;
#X obj 99 464 translateXYZ 0 -2 0;
#X obj 426 324 bng 15 250 50 0 empty empty empty 17 7 0 10 -262144
-1 -1;
#X floatatom 266 105 5 0 0 0 - - -;
#X obj 99 280 translateXYZ 0 4 0;
#X obj 99 375 translateXYZ 0 -2 0;
#X obj 99 600 rectangle 100 1;
#X obj 99 553 translateXYZ 0 -2 0;
#X obj 99 680 rectangle 100 1;
#X obj 99 633 translateXYZ 0 -2 0;
#X obj 219 75 tgl 15 0 empty empty empty 17 7 0 10 -262144 -1 -1 0
1;
#X obj 321 258 bng 15 250 50 0 empty empty empty 17 7 0 10 -262144
-1 -1;
#X floatatom 450 96 5 0 0 0 - - -;
#X msg 357 475 0.5;
#X obj 357 494 t a;
#X msg 310 349 0;
#X msg 276 247 1;
#X msg 331 71 0.7 \, -0.7 80;
#X obj 357 456 loadbang;
#X obj 449 44 inlet;
#X obj 422 302 electribe_note 38;
#X obj 389 187 electribe_note 9;
#X obj 330 92 line_;
#X obj 310 215 t b;
#X obj 373 238 bng 15 250 50 0 empty empty empty 17 7 0 10 -262144
-1 -1;
#X obj 99 66 alpha;
#X obj 298 297 pipe 200;
#X obj 190 12 bng 15 250 50 0 empty empty empty 17 7 0 10 -262144 -1
-1;
#X obj 190 -12 ../100.Input/lpd8/lpd8_pad 41;
#X connect 0 0 33 0;
#X connect 1 0 12 0;
#X connect 2 0 4 0;
#X connect 3 0 13 0;
#X connect 4 0 1 0;
#X connect 5 0 2 0;
#X connect 6 0 5 1;
#X connect 7 0 9 0;
#X connect 8 0 15 0;
#X connect 9 0 8 0;
#X connect 11 0 2 3;
#X connect 12 0 3 0;
#X connect 13 0 7 0;
#X connect 14 0 17 0;
#X connect 15 0 14 0;
#X connect 17 0 16 0;
#X connect 18 0 5 1;
#X connect 19 0 34 0;
#X connect 20 0 29 0;
#X connect 21 0 22 0;
#X connect 22 0 3 2;
#X connect 22 0 7 2;
#X connect 22 0 8 2;
#X connect 22 0 14 2;
#X connect 22 0 16 2;
#X connect 23 0 4 4;
#X connect 24 0 4 4;
#X connect 25 0 30 0;
#X connect 26 0 21 0;
#X connect 27 0 20 0;
#X connect 28 0 10 0;
#X connect 29 0 31 0;
#X connect 30 0 2 1;
#X connect 31 0 19 0;
#X connect 31 0 24 0;
#X connect 31 0 25 0;
#X connect 32 0 31 0;
#X connect 33 0 5 0;
#X connect 34 0 23 0;
#X connect 35 0 31 0;
#X connect 36 0 35 0;
